<svg xmlns="http://www.w3.org/2000/svg" data-name="Layer 1" viewBox="0 0 24 24" fill="#1da750" width="256" height="256">
<path d="M2 8A9.917 9.917 0 0 1 4.282 1.635 1 1 0 0 0 2.737.365 11.9 11.9 0 0 0 0 8a11.9 11.9 0 0 0 2.737 7.635 1.013 1.013 0 0 
0 1.408.137 1 1 0 0 0 .137-1.407A9.917 9.917 0 0 1 2 8zM23.181 3.633A12.417 12.417 0 0 0 21.267.37a1 1 0 1 0-1.553 1.26 10.387 10.387
 0 0 1 1.6 2.731 10.033 10.033 0 0 1 0 7.272 10.386 10.386 0 0 1-1.605 2.737 1 1 0 0 0 .146 1.407 1.015 1.015 0 0 0 1.407-.147 12.416 
 12.416 0 0 0 1.916-3.269 12.05 12.05 0 0 0 0-8.728z" fill="#1da750" class="color000 svgShape cambiarColor">
 </path>
<path d="M6.838 3.184a1 1 0 0 0-1.4.238 7.983 7.983 0 0 0 0 9.156 1.015 1.015 0 0 0 1.4.238 1 1 0 0 0 .238-1.394 5.979 5.979 
0 0 1 0-6.844A1 1 0 0 0 6.838 3.184zM18.557 3.422a1 1 0 0 0-1.633 1.156 5.979 5.979 0 0 1 0 6.844 1 1 0 0 0 .238 1.394 1.012 
1.012 0 0 0 1.395-.238 7.983 7.983 0 0 0 0-9.156zM12 4a3.992 3.992 0 0 0-1 7.858V23a1 1 0 0 0 2 0V11.858A3.992 3.992 0 0 0 12 4z" fill="#1da750" class="color000 svgShape cambiarColor">
</path>
</svg>