<svg version="1.0" xmlns="http://www.w3.org/2000/svg"
 width="256.000000pt" height="256.000000pt" viewBox="0 0 256.000000 256.000000"
 preserveAspectRatio="xMidYMid meet">

<g transform="translate(0.000000,256.000000) scale(0.100000,-0.100000)"
fill="#000000" stroke="none">
<path d="M105 2455 c-16 -16 -25 -35 -25 -56 0 -29 23 -56 202 -236 111 -111
200 -204 197 -206 -2 -2 -32 -20 -66 -41 -154 -92 -333 -253 -333 -299 0 -41
36 -77 76 -77 29 0 49 12 112 68 91 80 184 147 272 197 l64 36 87 -87 88 -88
-82 -44 c-168 -89 -337 -233 -337 -285 0 -41 36 -77 77 -77 28 0 46 10 87 46
82 75 184 143 285 191 l93 45 94 -93 c52 -51 90 -96 86 -99 -4 -4 -34 -14 -67
-24 -164 -50 -375 -201 -375 -270 0 -41 36 -76 80 -76 22 0 43 6 51 16 52 63
201 150 314 182 148 43 136 47 260 -78 102 -102 107 -109 65 -88 -66 33 -195
32 -265 -2 -64 -31 -124 -91 -155 -155 -35 -72 -35 -198 0 -270 31 -64 91
-124 155 -155 72 -35 198 -35 270 0 64 31 124 91 155 155 34 70 35 199 2 265
-18 35 64 -41 386 -362 370 -371 411 -408 440 -408 44 0 82 38 82 82 0 30 -89
122 -1143 1175 -1053 1054 -1145 1143 -1175 1143 -22 0 -41 -8 -57 -25z m1238
-1589 c103 -43 128 -177 48 -257 -65 -65 -157 -65 -222 0 -124 123 13 325 174
257z" fill="#ff0000"/>
<path d="M1106 2149 c-85 -9 -205 -32 -273 -52 l-43 -13 64 -63 63 -63 84 18
c132 29 440 27 577 -4 285 -64 500 -173 717 -364 86 -77 118 -86 160 -43 50
49 23 98 -120 215 -345 282 -790 415 -1229 369z"/>
<path d="M1143 1753 c-9 -6 7 -28 55 -75 l67 -67 112 -11 c248 -24 462 -118
656 -289 67 -59 103 -66 142 -26 42 41 33 71 -37 140 -134 130 -345 245 -545
297 -100 25 -142 31 -278 35 -88 2 -166 0 -172 -4z"/>
<path d="M1720 1155 c164 -165 165 -165 183 -144 38 47 13 92 -97 177 -57 44
-217 132 -240 132 -6 0 63 -74 154 -165z"/>
</g>
</svg>