<svg version="1.0" xmlns="http://www.w3.org/2000/svg"
 width="64.000000pt" height="64.000000pt" viewBox="0 0 64.000000 64.000000"
 preserveAspectRatio="xMidYMid meet">

<g transform="translate(0.000000,64.000000) scale(0.100000,-0.100000)"
fill="#000000" stroke="none">
<path d="M246 621 c-4 -5 4 -17 16 -25 l22 -16 -26 0 c-15 0 -30 -5 -34 -11
-5 -9 1 -10 20 -5 15 4 26 2 26 -4 0 -5 -6 -10 -14 -10 -8 0 -18 -4 -21 -10
-4 -6 1 -7 12 -3 16 6 16 5 4 -10 -10 -13 -30 -17 -91 -17 l-77 0 2 -27 c2
-16 6 -65 9 -110 3 -45 9 -89 13 -99 3 -10 2 -15 -3 -12 -8 5 -12 -142 -4
-164 1 -5 3 -14 4 -20 0 -7 6 -13 11 -14 6 0 28 -3 50 -7 44 -7 125 -8 252 -4
60 3 88 8 101 20 10 10 21 15 23 13 2 -2 3 12 3 32 -1 25 -6 36 -15 34 -9 -3
-9 2 3 15 12 13 15 32 13 68 -2 28 -4 68 -5 89 l0 40 -20 -22 c-12 -12 -20
-28 -19 -35 1 -6 -3 -25 -9 -40 -11 -25 -9 -30 16 -52 15 -13 25 -25 22 -28
-6 -6 -75 -16 -113 -17 -16 0 -26 -4 -22 -10 3 -5 12 -7 20 -3 19 7 20 -21 1
-36 -10 -8 -16 -9 -21 -1 -10 16 -35 12 -29 -5 9 -24 -4 -49 -19 -37 -15 13
-66 10 -64 -3 1 -6 -23 -10 -57 -11 l-58 0 33 28 c19 15 42 26 52 24 9 -2 15
-1 12 4 -3 4 9 13 25 20 17 7 30 16 30 20 0 4 18 26 40 48 22 22 40 41 40 43
0 2 -20 5 -45 7 -45 2 -59 -9 -30 -26 13 -7 12 -11 -7 -29 -13 -11 -38 -23
-55 -26 -31 -6 -32 -5 -20 14 10 17 9 22 -5 33 -10 7 -18 16 -18 19 0 3 8 8
18 10 9 2 4 3 -11 1 -20 -3 -26 0 -21 9 4 6 -4 1 -19 -12 l-26 -23 6 23 c4 19
2 21 -6 9 -16 -24 -21 -6 -6 23 8 15 10 25 5 22 -14 -9 -38 17 -32 34 3 8 0
11 -6 7 -14 -9 -28 76 -23 142 1 9 28 12 99 12 66 0 92 3 82 10 -13 9 -13 10
0 11 29 2 65 -3 76 -12 5 -4 53 -10 105 -11 83 -3 94 -5 91 -21 -2 -14 1 -14
21 5 25 25 27 39 2 18 -10 -8 -15 -9 -15 -1 0 7 -25 11 -71 11 -47 0 -75 5
-85 14 -10 11 -11 15 -1 19 18 6 4 17 -26 19 -33 3 -34 11 -4 27 l22 12 -22
-5 c-24 -4 -32 9 -10 17 6 2 -5 4 -25 4 -21 -1 -38 -5 -38 -9 0 -5 -11 -1 -24
7 -15 10 -27 12 -30 6z m-126 -381 c0 -5 -5 -10 -11 -10 -5 0 -7 5 -4 10 3 6
8 10 11 10 2 0 4 -4 4 -10z m10 -30 c0 -5 -4 -10 -10 -10 -5 0 -10 5 -10 10 0
6 5 10 10 10 6 0 10 -4 10 -10z m20 -32 c0 -7 -11 -26 -24 -43 l-24 -30 5 27
c3 16 10 25 16 21 6 -4 8 0 4 10 -5 13 0 20 21 26 1 1 2 -5 2 -11z m30 8 c0
-3 -4 -8 -10 -11 -5 -3 -10 -1 -10 4 0 6 5 11 10 11 6 0 10 -2 10 -4z"/>
<path d="M306 488 c3 -5 -2 -11 -10 -14 -23 -9 -20 -23 7 -33 28 -11 41 -3 26
15 -8 10 -8 18 -1 27 8 10 6 13 -8 13 -10 0 -16 -4 -14 -8z"/>
<path d="M330 472 c0 -5 7 -16 16 -23 14 -12 16 -11 13 5 -4 20 -29 35 -29 18z"/>
<path d="M553 405 c0 -27 2 -38 4 -22 2 15 2 37 0 50 -2 12 -4 0 -4 -28z"/>
<path d="M133 369 c9 -5 17 -20 17 -31 0 -17 3 -19 12 -10 9 9 7 16 -7 32 -10
11 -23 20 -29 20 -6 0 -3 -5 7 -11z"/>
</g>
</svg>