<?xml version="1.0" encoding="UTF-8"?>
<svg id="Capa_1" data-name="Capa 1" xmlns="http://www.w3.org/2000/svg" viewBox="0 0 500 500">
  <defs>
    <style>
      .cls-1 {
        fill: #194451;
      }

      .cls-1, .cls-2, .cls-3, .cls-4, .cls-5, .cls-6, .cls-7, .cls-8, .cls-9, .cls-10, .cls-11, .cls-12 {
        stroke-width: 0px;
      }

      .cls-3 {
        fill: #efd5bd;
      }

      .cls-4 {
        fill: #96a4aa;
      }

      .cls-5 {
        fill: #cdd6df;
      }

      .cls-6 {
        fill: #fed066;
      }

      .cls-7 {
        fill: #344a5d;
      }

      .cls-8 {
        fill: #f5b556;
      }

      .cls-9 {
        fill: #fd715c;
      }

      .cls-10 {
        fill: #ffe7cf;
      }

      .cls-11 {
        fill: #d83e3a;
      }

      .cls-12 {
        fill: #3c5666;
      }
    </style>
  </defs>
  <g id="surface1">
    <path class="cls-10" d="m205.64,458.18l-38.2-7.96-22.1,23.27-75.34-60.45,50.25-34.85,53.42-59.43c8.96-9.96,24.78-8.52,31.86,2.9l63.3,73.79c9.57,11.16,6.86,28.39-5.65,35.96l-37.29,22.57c-6.51,4-12.71,4.34-20.25,4.2Z"/>
    <path class="cls-3" d="m268.83,395.44l-15.45-18.01-64.41,39.02c-6.51,4-12.71,4.34-20.25,4.2l-33.45-3.66-28.9,25.23,38.97,31.27,22.1-23.27,38.2,7.96c7.54.14,13.74-.2,20.25-4.2l37.29-22.57c12.5-7.57,15.21-24.81,5.65-35.96Z"/>
    <path class="cls-7" d="m266.97,397.02c-7.46-11.76-16.54-5.8-24-17.56-7.46-11.76,1.63-17.71-5.83-29.46-7.46-11.76-16.54-5.81-24-17.57-7.46-11.76,1.63-17.71-5.84-29.47-4.56-7.19-12.82-22.02-17.85-24.07l-40.25,20.22,70.05,112.3c6.84,10.78,20.97,13.88,31.58,6.93l13.4-8.78c4.1-2.68,5.42-8.25,2.8-12.42-.02-.03-.04-.07-.06-.1Z"/>
    <path class="cls-7" d="m151.18,316.48l-31.62,19.83c-6,3.77-13.87,1.87-17.57-4.23l-17.88-29.45c-3.7-6.1-1.84-14.09,4.16-17.86l31.62-19.83c3.71-2.33,8.58-1.16,10.87,2.62l22.98,37.87c2.29,3.77,1.14,8.72-2.57,11.05Z"/>
    <path class="cls-6" d="m170.59,211.27l-64.19,40.26c-8.45,5.3-11.07,16.55-5.86,25.14l31.65,52.14c5.21,8.58,16.28,11.25,24.73,5.96l64.19-40.26,203.02-44.92-122.99-202.6-130.56,164.29Z"/>
    <path class="cls-8" d="m395.15,201.85l-201.97,46.65s-69.54,43.61-79.48,49.85l18.49,30.46c5.21,8.58,16.28,11.25,24.73,5.96l64.19-40.26,203.02-44.92-28.98-47.74Z"/>
    <path class="cls-9" d="m221.11,294.5l-64.19,40.26c-8.45,5.3-19.52,2.63-24.73-5.96l-31.65-52.14c-5.21-8.58-2.59-19.84,5.86-25.14l64.19-40.26,50.53,83.23Z"/>
    <path class="cls-11" d="m193.18,248.49s-69.54,43.61-79.48,49.85l18.49,30.46c5.21,8.58,16.28,11.25,24.73,5.96l64.19-40.26-27.93-46.01Z"/>
    <path class="cls-9" d="m436.31,263.98l-8.76,5.49c-4.54,2.85-10.5,1.42-13.3-3.2L282.04,48.47c-2.8-4.62-1.39-10.67,3.15-13.52l8.76-5.49c4.54-2.85,10.49-1.42,13.3,3.2l132.21,217.81c2.8,4.61,1.39,10.67-3.15,13.52Z"/>
    <path class="cls-11" d="m439.46,250.46l-21.75-35.84-25.21,15.81,21.75,35.83c2.8,4.62,8.75,6.05,13.3,3.2l8.76-5.49c4.54-2.85,5.95-8.9,3.15-13.52Z"/>
    <path class="cls-10" d="m247.05,426.67c4.78,7.95,14.99,10.46,22.81,5.6l24.19-15.03c7.82-4.85,10.28-15.23,5.5-23.18-4.78-7.95-14.99-10.46-22.81-5.6l-24.19,15.03c-7.82,4.85-10.28,15.23-5.5,23.18Z"/>
    <path class="cls-3" d="m299.56,394.06c-1.96-3.26-4.84-5.59-8.08-6.89.85,6.42-1.99,13.06-7.78,16.65l-24.19,15.03c-4.61,2.87-10.06,3.15-14.73,1.28.3,2.25,1.04,4.47,2.28,6.53,4.78,7.95,14.99,10.46,22.81,5.6l24.19-15.03c7.82-4.86,10.28-15.23,5.51-23.18Z"/>
    <path class="cls-10" d="m236.69,393.48c4.85,8.07,15.22,10.62,23.16,5.68l23.76-14.76c7.93-4.93,10.44-15.46,5.59-23.53-4.85-8.07-15.22-10.62-23.16-5.68l-23.77,14.77c-7.93,4.93-10.44,15.46-5.59,23.53Z"/>
    <path class="cls-3" d="m289.2,360.87c-1.93-3.21-4.75-5.53-7.92-6.87.8,6.48-2.08,13.14-7.92,16.77l-23.76,14.77c-4.78,2.97-10.43,3.21-15.24,1.19.29,2.33,1.05,4.63,2.33,6.77,4.85,8.07,15.22,10.62,23.16,5.68l23.76-14.76c7.93-4.93,10.44-15.46,5.59-23.53Z"/>
    <path class="cls-10" d="m218.98,364.46c4.85,8.07,15.22,10.62,23.16,5.68l23.76-14.77c7.93-4.93,10.44-15.46,5.59-23.53-4.85-8.07-15.22-10.62-23.16-5.68l-23.76,14.76c-7.93,4.93-10.44,15.46-5.59,23.53Z"/>
    <path class="cls-3" d="m271.49,331.84c-1.89-3.15-4.63-5.44-7.73-6.79.7,6.4-2.18,12.94-7.94,16.51l-23.76,14.76c-4.84,3.01-10.58,3.22-15.43,1.11.27,2.42,1.02,4.81,2.35,7.02,4.85,8.07,15.22,10.62,23.16,5.68l23.76-14.76c7.93-4.93,10.44-15.46,5.59-23.53Z"/>
    <path class="cls-10" d="m202.28,334.68c4.85,8.07,15.22,10.62,23.16,5.68l23.76-14.77c7.93-4.93,10.44-15.46,5.59-23.53-4.85-8.07-15.22-10.62-23.16-5.68l-23.76,14.76c-7.93,4.93-10.44,15.46-5.59,23.53Z"/>
    <path class="cls-3" d="m254.79,302.07c-2.23-3.71-5.64-6.24-9.43-7.43,1.45,6.91-1.41,14.28-7.68,18.18l-23.76,14.77c-4.29,2.66-9.28,3.13-13.73,1.74.39,1.84,1.06,3.66,2.09,5.35,4.85,8.07,15.22,10.62,23.16,5.68l23.77-14.76c7.93-4.93,10.43-15.47,5.59-23.53Z"/>
    <path class="cls-10" d="m237.93,355.4l-4.41,2.74c-6.94,4.3-15.9,2.24-20.02-4.61l-7.31-12.13c-3.57-5.94-11.35-7.7-17.33-3.93-6,44.78-68.62,40.74-68.62,40.74l38.8-59.41c2.56-4.5,6.2-8.31,10.57-11.06l21.9-13.8c10.65-6.71,24.49-3.58,30.86,6.99l20.64,34.24c4.14,6.86,1.86,15.93-5.08,20.25Z"/>
    <path class="cls-3" d="m243.02,335.15l-.17-.28c-1.19,1.95-2.84,3.66-4.91,4.96l-4.41,2.74c-6.93,4.31-15.89,2.24-20.02-4.61l-7.3-12.13c-3.57-5.94-11.35-7.7-17.33-3.93-2.52,18.78-13.82,36.78-26.42,49.11,12.76-5.7,24.04-15.77,26.42-33.54,5.98-3.77,13.76-2.01,17.33,3.93l7.3,12.13c4.12,6.86,13.09,8.92,20.02,4.61l4.41-2.74c6.94-4.32,9.22-13.39,5.08-20.25Z"/>
    <path class="cls-5" d="m146.56,474.96l-61.72-74.55,20.32-17.38c.64-.55,1.6-.47,2.14.19l59.76,72.19c.54.65.46,1.62-.18,2.17l-20.32,17.39Z"/>
    <path class="cls-4" d="m167.06,455.4l-31.8-38.41-21.48,18.38,32.77,39.59,20.32-17.38c.64-.55.72-1.52.18-2.17Z"/>
    <path class="cls-12" d="m150.96,474.26l-66.71-79.54c-.53-.64-1.45-.76-2.12-.29l-71.04,57c-2.38,1.91-3.76,4.81-3.76,7.89v23.19c0,5.55,4.43,10.05,9.88,10.05h116.22c2.99,0,5.83-1.38,7.71-3.75l9.77-12.35c.57-.61.6-1.55.06-2.19Z"/>
    <path class="cls-1" d="m150.96,474.26l-31.63-37.72-46.57,56.01h60.66c2.99,0,5.83-1.38,7.71-3.75l9.77-12.35c.57-.6.6-1.55.06-2.19Z"/>
    <path class="cls-2" d="m394.93,121.77c1.38,2.29,3.79,3.54,6.25,3.54,1.31,0,2.63-.36,3.83-1.11l39.7-24.82c3.44-2.15,4.52-6.74,2.4-10.24-2.12-3.5-6.63-4.59-10.08-2.44l-39.7,24.82c-3.44,2.15-4.52,6.74-2.4,10.24Z"/>
    <path class="cls-2" d="m493.39,171.24l-58.2-5.75c-4.02-.4-7.61,2.6-8,6.69-.39,4.09,2.56,7.74,6.58,8.13l58.2,5.75c.24.02.48.03.72.03,3.73,0,6.92-2.88,7.28-6.72.39-4.09-2.56-7.73-6.58-8.13Z"/>
    <path class="cls-2" d="m365.21,69.78c.87.35,1.77.51,2.65.51,2.93,0,5.7-1.8,6.83-4.75l21.2-55.4c1.47-3.83-.4-8.15-4.17-9.64s-8.01.41-9.48,4.24l-21.2,55.4c-1.46,3.83.4,8.15,4.17,9.64Z"/>
    <path class="cls-2" d="m313.48,28.75c-4.92-8.1-15.4-10.63-23.38-5.63l-8.76,5.49c-3.86,2.42-6.57,6.23-7.61,10.71-1.05,4.49-.31,9.12,2.07,13.05l5.04,8.3-115.17,144.92-24.32,15.25c-3.44,2.16-4.51,6.75-2.38,10.24,1.38,2.28,3.78,3.54,6.24,3.54,1.31,0,2.64-.36,3.84-1.11l19.15-12.01,37.33,61.49c-5.39-.36-10.77.78-15.66,3.33-.09.04-.17.09-.26.14-.66.35-1.31.72-1.95,1.12l-21.9,13.8c-2.4,1.52-4.62,3.31-6.63,5.31-2.44,2.42-4.57,5.16-6.29,8.14l-5.41,8.28-3.97,6.08s-.07-.02-.1-.03c-.06-.03-.12-.06-.18-.09-.31-.14-.61-.29-.91-.46-.06-.03-.13-.07-.19-.1-.32-.2-.64-.41-.94-.64-.06-.05-.13-.1-.19-.15-.27-.22-.55-.45-.8-.7-.03-.03-.06-.06-.1-.09-.27-.27-.53-.57-.78-.87-.05-.07-.1-.14-.16-.2-.24-.32-.48-.64-.69-.99l-31.65-52.14c-1.5-2.46-1.96-5.37-1.3-8.18.66-2.82,2.35-5.2,4.77-6.72l9.48-5.94c3.44-2.16,4.51-6.75,2.39-10.24-2.12-3.5-6.64-4.59-10.08-2.43l-9.48,5.94c-5.75,3.61-9.77,9.27-11.33,15.96-1,4.32-.9,8.72.26,12.87l-7.05,4.42c-9.43,5.91-12.36,18.52-6.55,28.1l17.88,29.45c2.82,4.64,7.24,7.89,12.47,9.15,1.55.37,3.11.56,4.67.56,3.68,0,7.3-1.04,10.51-3.05l7.06-4.42c1.47,1.36,3.09,2.54,4.82,3.51l-20.34,31.14-4.8,3.33c-1-.52-2.1-.84-3.25-.94-2.36-.2-4.65.54-6.45,2.08l-12.62,10.79c-2.94-1.91-6.8-1.94-9.82.16-.14.1-.28.2-.42.31L6.55,445.59c-4.16,3.34-6.55,8.34-6.55,13.73v23.19c0,9.64,7.72,17.49,17.21,17.49h116.22c5.24,0,10.13-2.38,13.42-6.54l9.64-12.19c1.69-1.96,2.4-4.47,2.15-6.91l12.97-11.09c1.27-1.08,2.18-2.47,2.69-4.02l29.89,6.23c.44.09.89.14,1.34.15.87.02,1.74.03,2.61.03,7.08,0,14.12-.73,21.52-5.27l30.11-18.23c.5.03,1.01.05,1.51.05,4.34,0,8.63-1.21,12.43-3.58l24.19-15.03c11.25-6.99,14.81-21.98,7.94-33.41-2.35-3.91-5.66-6.97-9.59-8.99,3.8-7.39,3.81-16.58-.77-24.2-3.33-5.53-8.56-9.43-14.74-11.01,1.28-5.96.4-12.41-2.97-18.02-3.18-5.3-8.12-9.08-13.95-10.78,1.59-6.23.81-13.08-2.74-18.99-.92-1.54-2-2.93-3.2-4.2l145.13-32.11,5.04,8.3c3.21,5.28,8.78,8.2,14.48,8.2,3.04,0,6.12-.83,8.89-2.57l8.76-5.49c3.86-2.42,6.57-6.23,7.61-10.72,1.05-4.49.31-9.12-2.08-13.05L313.48,28.75ZM115.71,329.97c-1.24.78-2.7,1.02-4.11.67-1.42-.34-2.61-1.22-3.38-2.48l-17.88-29.45c-1.58-2.59-.78-6.01,1.77-7.62l6.21-3.9,23.59,38.86-6.21,3.9Zm19.71,154.16c-.49.62-1.21.97-2,.97H17.21c-1.41,0-2.56-1.17-2.56-2.6v-23.19c0-.8.35-1.55.97-2.04l66.64-53.47,60.06,71.61-6.89,8.72Zm14.89-22.13l-52.68-62.82,7.8-6.67,52.29,63.16-7.41,6.33Zm71.79-14.4c-4.47,2.75-8.67,3.23-15.66,3.14l-37.53-7.82c-.89-.19-1.79-.2-2.65-.06l-46.06-55.63,4.17-2.9s0,0,.02,0c.07-.05.14-.11.21-.16.16-.12.31-.24.46-.37.07-.07.14-.14.21-.2.15-.14.29-.28.42-.43.05-.06.11-.12.16-.18.16-.2.32-.41.46-.62.02-.02.03-.03.04-.05l.03-.05.03-.06,38.73-59.3c.08-.13.16-.26.24-.39,1.95-3.43,4.75-6.36,8.09-8.46l21.9-13.8c.4-.26.82-.48,1.23-.7.19-.1.38-.18.56-.27.22-.1.44-.2.66-.29.26-.1.51-.2.77-.29.13-.05.27-.09.41-.14.32-.1.64-.2.97-.28h0c1.18-.29,2.38-.43,3.57-.44h.08c.35,0,.7.02,1.05.04.11.01.22.02.34.03.31.03.61.06.92.11.18.03.36.07.55.1.47.09.93.2,1.38.34.18.05.35.1.53.15.23.08.46.17.69.26.18.07.36.14.54.22.23.1.45.21.67.32.17.09.33.17.49.26.22.12.44.25.66.38.15.09.29.19.44.29.22.15.43.29.64.46.13.1.25.2.37.3.22.17.43.35.64.54,1,.92,1.88,1.97,2.59,3.16l.54.9,7.81,12.95,9.8,16.25,2.49,4.14c.24.39.43.8.58,1.22.46,1.27.53,2.66.21,4.03-.47,1.97-1.69,3.66-3.44,4.75l-4.41,2.74h0c-.31.19-.61.35-.93.49-.07.03-.14.06-.21.09-.32.13-.64.24-.96.33-.04.01-.08.02-.12.03-.31.07-.61.13-.92.16-.06,0-.12.02-.18.02-.33.03-.66.03-.98.02h-.18c-.33-.03-.66-.07-.98-.14,0,0,0,0-.01,0-.35-.07-.68-.17-1.01-.3-.03-.01-.06-.02-.09-.03-.68-.26-1.32-.64-1.9-1.11,0,0,0,0,0,0-.29-.24-.55-.5-.79-.77-.02-.02-.04-.05-.06-.07-.23-.27-.44-.55-.62-.86l-7.3-12.13c-2.72-4.52-7.03-7.69-12.15-8.93-5.24-1.27-10.67-.36-15.29,2.55-1.86,1.17-3.1,3.12-3.4,5.32-.08.64-.19,1.26-.3,1.88-.08.45-.18.9-.28,1.34-.03.15-.06.3-.1.45-.13.56-.27,1.11-.43,1.65,0,.02-.01.04-.02.07-.82,2.86-1.97,5.51-3.45,7.91,0,0,0,0,0,.01-2.73,4.44-6.58,8.2-11.63,11.32-3.46,2.14-4.55,6.72-2.45,10.23,2.1,3.51,6.61,4.63,10.06,2.49,3.57-2.21,6.73-4.68,9.49-7.41l30.59,49.03c5.63,8.88,15.37,14.04,25.45,14.04.53,0,1.07-.03,1.6-.06.21.39.42.77.65,1.16.86,1.43,1.85,2.75,2.96,3.95l-21.65,13.11Zm6.21-54.73s0,0,0,.01c.12.35.26.69.4,1.04.02.04.03.08.05.12.13.31.26.62.4.92.03.07.06.14.1.21.13.29.28.57.43.85.05.09.08.17.13.25.19.36.4.73.61,1.08.37.61.77,1.2,1.18,1.77.15.2.3.4.45.6.27.35.55.69.84,1.02.2.23.4.47.61.7.16.17.33.33.49.49.59.6,1.21,1.17,1.86,1.7.07.05.13.11.2.16,1.26,1.02,2.61,1.9,4.05,2.64-1.32,2.53-2.2,5.28-2.59,8.1-4.83-.31-9.4-2.89-12.09-7.14l-33.67-53.98c1.56-3.28,2.76-6.77,3.58-10.5.52-.03,1.05.02,1.57.14,1.29.31,2.37,1.1,3.04,2.21l7.3,12.13s.02.03.03.05c.36.59.74,1.17,1.16,1.72.31.41.63.79.96,1.17.11.13.22.28.34.41.02.07.03.13.05.2.11.52.24,1.03.39,1.54.05.15.09.29.13.44.18.57.37,1.14.59,1.7.02.06.05.11.07.17.2.51.43,1.01.67,1.51.07.14.14.29.21.43.27.54.56,1.08.87,1.61,3.32,5.53,8.54,9.42,14.72,11-.95,4.44-.69,9.13.88,13.53Zm4.67-88.6l2.46-1.53c2.17-1.35,4.73-1.76,7.2-1.15,2.47.61,4.56,2.16,5.89,4.36,2.74,4.55,1.32,10.52-3.16,13.3l-2.45,1.52-7.24-12.01-2.7-4.49Zm54.58,89.43c2.41.59,4.44,2.1,5.73,4.25,2.66,4.43,1.28,10.24-3.08,12.95l-24.19,15.03c-1.94,1.21-4.2,1.63-6.42,1.23-.13-.03-.26-.06-.39-.08-.06-.02-.13-.02-.2-.04-2.41-.59-4.44-2.1-5.74-4.25-.58-.97-.95-1.99-1.16-3.04,0-.03,0-.06-.01-.09-.58-3.06.39-6.18,2.46-8.36.06-.06.11-.12.17-.17.11-.1.22-.21.33-.31s.23-.2.35-.29c.09-.07.17-.14.26-.21.22-.16.43-.32.67-.47,0,0,.02,0,.02-.01l4.81-2.99c.85-.4,1.68-.84,2.49-1.34l18.51-11.5c1.72-.65,3.58-.77,5.41-.33Zm-16.85-32.63c1.97-.96,4.18-1.2,6.33-.67,2.47.6,4.56,2.16,5.89,4.36,2.74,4.55,1.32,10.52-3.16,13.3l-4.36,2.71c-.85.4-1.69.85-2.51,1.35l-18.41,11.43c-3.44,1.37-7.31.57-9.93-1.9h0c-.21-.2-.4-.4-.59-.61-.05-.06-.1-.12-.14-.18-.14-.16-.27-.33-.4-.5-.18-.24-.35-.5-.51-.76-.16-.27-.31-.54-.44-.82-.04-.09-.08-.18-.12-.27-.08-.19-.17-.38-.24-.58-.04-.1-.07-.21-.1-.31-.06-.19-.12-.38-.17-.57-.03-.1-.05-.21-.08-.32-.04-.19-.08-.38-.11-.58l-.05-.3c-.03-.2-.05-.4-.06-.6,0-.1-.02-.19-.02-.29,0-.21,0-.42,0-.62,0-.09,0-.18,0-.27,0-.21.03-.42.06-.63.01-.09.02-.18.03-.27.03-.19.06-.37.1-.56.42-1.99,1.44-3.86,3.05-5.29.06-.06.12-.13.19-.19.09-.08.18-.16.27-.24.23-.13.46-.25.69-.39l23.77-14.77c.34-.21.68-.43,1.01-.66Zm-11.38-29.7c2.47.6,4.56,2.16,5.89,4.36,2.55,4.24,1.49,9.71-2.29,12.69-.24.14-.48.28-.72.42l-18.35,11.4c.06-.05.12-.1.18-.15.35-.28.7-.57,1.03-.87.21-.19.4-.38.6-.58.3-.29.6-.59.88-.91.19-.21.38-.43.56-.65.26-.32.52-.64.77-.97.17-.23.34-.46.51-.7.23-.34.45-.68.67-1.04.15-.24.3-.48.43-.73.21-.37.4-.76.59-1.14.12-.24.24-.48.35-.73.19-.43.36-.87.53-1.32.08-.21.17-.42.24-.64.23-.67.43-1.35.59-2.04.16-.66.28-1.33.37-2,.03-.21.05-.43.07-.64.05-.46.1-.91.12-1.37.01-.25.02-.5.02-.74.01-.43,0-.85,0-1.27,0-.25-.02-.5-.04-.76-.03-.43-.08-.85-.13-1.28-.03-.24-.06-.47-.1-.71-.08-.48-.18-.95-.29-1.43-.04-.17-.07-.35-.11-.52-.17-.64-.36-1.27-.58-1.9-.05-.12-.1-.24-.15-.36-.16-.42-.32-.84-.5-1.25l1.68-1.05c2.17-1.35,4.73-1.76,7.2-1.15Zm174.16-75.2c-.08.36-.33,1.02-1.05,1.47l-8.76,5.5c-1.09.69-2.54.34-3.22-.78l-92.25-151.97c-2.12-3.5-6.63-4.58-10.08-2.43-3.44,2.16-4.51,6.75-2.38,10.24l79.06,130.24-170.2,37.66-45.08-74.27,109.46-137.73,8.84,14.57c2.12,3.5,6.64,4.58,10.08,2.43,3.44-2.16,4.51-6.75,2.39-10.25l-22.04-36.3c-.44-.73-.37-1.44-.29-1.8.08-.36.33-1.03,1.05-1.48l8.76-5.49c1.1-.69,2.54-.34,3.22.78l132.21,217.8c.44.73.37,1.44.29,1.8Z"/>
  </g>
</svg>