<?xml version="1.0" encoding="UTF-8"?>
<svg id="Capa_1" data-name="Capa 1" xmlns="http://www.w3.org/2000/svg" viewBox="0 0 500 500">
  <defs>
    <style>
      .cls-1 {
        fill: #808080;
      }

      .cls-1, .cls-2, .cls-3, .cls-4, .cls-5, .cls-6, .cls-7, .cls-8, .cls-9, .cls-10 {
        stroke-width: 0px;
      }

      .cls-3 {
        fill: #808080;
      }

      .cls-4 {
        fill: #808080;
      }

      .cls-5 {
        fill: #808080;
      }

      .cls-6 {
        fill: #808080;
      }

      .cls-7 {
        fill: #808080;
      }

      .cls-8 {
        fill: #808080;
      }

      .cls-9 {
        fill: #808080;
      }

      .cls-10 {
        fill: #808080;
      }
    </style>
  </defs>
  <g>
    <path class="cls-3" d="m330.64,86.69c0,17.02-5.51,33.57-15.73,47.18l-52.02,69.35c-1.52,2.04-3.48,3.65-5.69,4.75-2.22,1.11-4.68,1.7-7.22,1.7-5.08,0-9.86-2.39-12.9-6.45l-52.02-69.35c-10.21-13.61-15.73-30.16-15.73-47.18,0-43.43,35.2-78.63,78.63-78.63h4.03c21.71,0,41.37,8.8,55.6,23.02,14.22,14.23,23.02,33.89,23.02,55.6h0Z"/>
    <circle class="cls-8" cx="250" cy="88.71" r="48.39"/>
    <path class="cls-10" d="m459.67,201.61v49.3l-32.26-23.04v-26.26h32.26Z"/>
    <path class="cls-10" d="m72.58,201.61v26.26l-32.26,23.04v-49.3h32.26Z"/>
    <path class="cls-4" d="m491.53,278.69c1.17,5.2-.23,10.52-3.87,14.52-2.42,2.64-5.71,4.42-9.23,4.97-4.3.69-8.54-.32-12-2.79l-6.75-4.82-99.59-71.14c-1.53-1.1-3.38-1.68-5.25-1.68s-3.73.58-5.26,1.68l-72.06,51.47c-.73-.74-1.52-1.41-2.36-2.02l-25.16-17.96,80.83-57.74c7.01-5,15.4-7.69,24.01-7.69,4.29,0,8.55.68,12.6,1.98,4.05,1.29,7.9,3.22,11.4,5.72l48.58,34.7,32.26,23.04,25.15,17.96c3.33,2.38,5.81,5.83,6.7,9.81Z"/>
    <path class="cls-4" d="m281.86,278.69c1.16,5.2-.24,10.52-3.88,14.52-2.42,2.64-5.7,4.42-9.23,4.97-.89.14-1.76.21-2.63.21-3.38,0-6.61-1.04-9.36-3l-106.34-75.96c-1.53-1.1-3.37-1.68-5.25-1.68s-3.72.58-5.25,1.68l-99.59,71.13-6.75,4.83c-3.61,2.58-8.06,3.57-12.57,2.69-2.91-.55-5.66-1.96-7.8-4-4.04-3.84-5.8-9.17-4.91-14.47.71-4.25,3.02-7.97,6.53-10.47l25.5-18.22,32.26-23.04,48.58-34.7c7.01-5,15.39-7.69,24-7.69,4.3,0,8.55.68,12.6,1.98,4.05,1.29,7.9,3.22,11.4,5.72l80.84,57.74,25.16,17.96c.84.6,1.63,1.28,2.36,2.02,2.13,2.16,3.68,4.83,4.34,7.79h0Z"/>
    <path class="cls-8" d="m268.75,298.18c3.54-.55,6.81-2.33,9.23-4.97,3.64-3.99,5.04-9.31,3.88-14.52-.67-2.96-2.22-5.64-4.34-7.79l72.06-51.47c1.53-1.1,3.38-1.68,5.26-1.68s3.72.58,5.25,1.68l99.59,71.14v120.73h-56.45v-80.65h-96.77v80.65h-32.26v-112.9h-8.07c.87,0,1.74-.07,2.63-.21h0Z"/>
    <path class="cls-8" d="m266.11,298.39h-40.31v112.9h-32.26v-80.65h-96.77v80.65h-56.45v-120.74l99.59-71.13c1.53-1.1,3.37-1.68,5.25-1.68s3.72.58,5.25,1.68l106.34,75.96c2.75,1.97,5.99,3,9.36,3h0Z"/>
    <path class="cls-7" d="m306.45,330.65h96.77v80.65h-96.77v-80.65Z"/>
    <path class="cls-7" d="m96.77,330.65h96.77v80.65h-96.77v-80.65Z"/>
    <path class="cls-9" d="m274.19,346.77v88.71c0-6.67-2.71-12.72-7.09-17.11-4.39-4.37-10.43-7.09-17.11-7.09s-12.72,2.71-17.11,7.09c-4.37,4.39-7.09,10.43-7.09,17.11v-137.1h48.39v48.39Z"/>
    <path class="cls-9" d="m491.93,443.55v48.39h-169.35v-8.06c0-13.36-10.84-24.19-24.19-24.19,0-6.19-2.33-11.84-6.17-16.13h199.72Z"/>
    <path class="cls-9" d="m8.06,443.55h199.72c-3.84,4.28-6.17,9.94-6.17,16.13-6.67,0-12.72,2.71-17.11,7.09-4.37,4.39-7.09,10.43-7.09,17.11v8.06H8.06v-48.39Z"/>
    <path class="cls-1" d="m491.93,411.29v32.26h-199.72c-.29-.33-.6-.66-.92-.98-4.39-4.37-10.43-7.09-17.11-7.09v-24.19h217.74Z"/>
    <path class="cls-1" d="m225.8,411.29v24.19c-6.67,0-12.72,2.71-17.11,7.09-.31.32-.62.65-.92.98H8.06v-32.26h217.74Z"/>
    <path class="cls-6" d="m322.58,483.87v8.06h-145.16v-8.06c0-6.67,2.71-12.72,7.09-17.11,4.39-4.37,10.43-7.09,17.11-7.09,0-6.19,2.33-11.84,6.17-16.13.29-.33.6-.66.92-.98,4.39-4.37,10.43-7.09,17.11-7.09,0-6.67,2.71-12.72,7.09-17.11,4.39-4.37,10.43-7.09,17.11-7.09s12.72,2.71,17.11,7.09c4.37,4.39,7.09,10.43,7.09,17.11,6.67,0,12.72,2.71,17.11,7.09.31.32.62.65.92.98,3.84,4.28,6.17,9.94,6.17,16.13,13.36,0,24.19,10.84,24.19,24.19Z"/>
    <circle class="cls-5" cx="354.83" cy="266.13" r="16.13"/>
    <circle class="cls-5" cx="145.16" cy="266.13" r="16.13"/>
  </g>
  <g>
    <path class="cls-2" d="m230.64,208.06c4.54,6.06,11.78,9.68,19.35,9.68s14.81-3.62,19.35-9.68l52.02-69.35c11.18-14.91,17.34-33.38,17.34-52.02C338.71,38.89,299.82,0,252.01,0h-4.03c-47.8,0-86.69,38.89-86.69,86.69,0,18.64,6.16,37.11,17.34,52.02l52.02,69.35Zm17.34-191.93h4.03c38.91,0,70.56,31.66,70.56,70.56,0,15.17-5.01,30.2-14.11,42.34l-52.02,69.35c-1.52,2.02-3.93,3.23-6.45,3.23s-4.94-1.21-6.45-3.23l-52.02-69.35c-9.1-12.13-14.11-27.17-14.11-42.34,0-38.91,31.66-70.56,70.56-70.56Z"/>
    <path class="cls-2" d="m467.74,305.06c2.58.91,5.29,1.4,8.06,1.4,1.29,0,2.59-.1,3.89-.31,5.33-.84,10.28-3.51,13.93-7.51,5.44-5.96,7.55-13.87,5.79-21.72-1.3-5.79-4.81-10.98-9.88-14.6l-21.77-15.55v-53.22h-48.39v18.66l-35.83-25.59c-8.42-6.02-18.34-9.19-28.69-9.19s-20.27,3.18-28.69,9.19l-76.14,54.39-76.15-54.39c-8.42-6.02-18.34-9.19-28.69-9.19s-20.27,3.18-28.69,9.19l-35.82,25.59v-18.66h-48.39v53.22l-22.13,15.8c-5.26,3.76-8.74,9.34-9.8,15.71-1.32,7.94,1.41,16.03,7.3,21.64,3.28,3.12,7.37,5.22,11.84,6.08,1.59.31,3.18.46,4.75.46,2.76,0,5.46-.48,8.03-1.4v98.17H0v96.77h500v-96.77h-32.26v-98.17Zm-32.26,130.43v-16.13h16.13v16.13h-16.13Zm-139.99,0c-3.74-3.3-8.26-5.74-13.24-7.02v-9.1h40.32v16.13h-27.08Zm-91,0h-27.08v-16.13h40.32v9.1c-4.98,1.29-9.49,3.72-13.24,7.02Zm-139.99-16.13v16.13h-16.13v-16.13h16.13Zm16.13,0h16.13v16.13h-16.13v-16.13Zm104.84-16.13h-80.65v-64.52h80.65v64.52Zm-72.58,16.13h16.13v16.13h-16.13v-16.13Zm32.26,0h16.13v16.13h-16.13v-16.13Zm88.71-32.26h16.13v-16.13h-16.13v-64.52h32.26v32.26h-16.13v16.13h16.13v52.72c-4.75-2.75-10.26-4.34-16.13-4.34s-11.38,1.58-16.13,4.34v-20.47Zm161.29,16.13h-80.65v-64.52h80.65v64.52Zm-56.45,16.13h16.13v16.13h-16.13v-16.13Zm32.26,0h16.13v16.13h-16.13v-16.13Zm32.26,0h16.13v16.13h-16.13v-16.13Zm8.06-16.13v-80.65h-112.9v80.65h-16.13v-102.94c.58-.52,1.15-1.07,1.68-1.65,5.44-5.96,7.55-13.87,5.79-21.72-.3-1.35-.74-2.66-1.27-3.93l65.81-47.01c.33-.24.8-.24,1.13,0l96.21,68.72v108.51h-40.32Zm24.19-193.55h16.13v25.57l-16.13-11.52v-14.05Zm-99.97-9.94c5.67-4.05,12.35-6.19,19.32-6.19s13.65,2.14,19.32,6.19l105.99,75.71c1.84,1.32,3.09,3.09,3.52,5.01.6,2.67-.1,5.26-1.96,7.3-1.19,1.31-2.81,2.18-4.54,2.45-2.2.35-4.28-.14-6.04-1.39l-106.34-75.96c-2.92-2.08-6.36-3.19-9.94-3.19s-7.02,1.1-9.94,3.19l-67.15,47.96-13.87-9.91,71.64-51.18Zm-287.13,9.94h16.13v14.05l-16.13,11.52v-25.57Zm-25.86,80.48c-1.41-.27-2.76-.96-3.78-1.93-2.04-1.94-2.96-4.6-2.51-7.29.35-2.12,1.51-3.98,3.27-5.24l106.34-75.96c5.67-4.05,12.35-6.19,19.32-6.19s13.65,2.14,19.32,6.19l105.99,75.71c1.84,1.32,3.09,3.09,3.52,5.01.6,2.67-.1,5.26-1.96,7.31-1.19,1.31-2.81,2.18-4.54,2.45-2.19.34-4.28-.14-6.05-1.39l-106.34-75.96c-2.92-2.08-6.35-3.19-9.94-3.19s-7.02,1.1-9.94,3.19l-106.34,75.96c-1.85,1.32-4.04,1.79-6.35,1.34h0Zm25.86,4.55l96.21-68.72c.33-.24.8-.24,1.13,0l90.07,64.34h-18.05v112.9h-16.13v-80.65h-112.9v80.65h-40.32v-108.52Zm-16.13,124.65v16.13h-16.13v-16.13h16.13Zm-16.13,32.26h178.46c-.07.27-.16.54-.22.82-14.31,3.3-25.01,16.14-25.01,31.44H16.12v-32.26Zm185.48,16.13h8.06v-8.06c0-8.89,7.24-16.13,16.13-16.13h8.06v-8.06c0-8.89,7.24-16.13,16.13-16.13s16.13,7.24,16.13,16.13v8.06h8.06c8.89,0,16.13,7.24,16.13,16.13v8.06h8.06c8.89,0,16.13,7.24,16.13,16.13h-129.03c0-8.89,7.24-16.13,16.13-16.13Zm129.03,16.13c0-15.3-10.7-28.14-25.01-31.44-.06-.28-.15-.55-.22-.82h178.46v32.26h-153.23Zm153.23-48.39h-16.13v-16.13h16.13v16.13Z"/>
    <path class="cls-2" d="m354.83,241.94c-13.34,0-24.19,10.85-24.19,24.19s10.85,24.19,24.19,24.19,24.19-10.85,24.19-24.19-10.85-24.19-24.19-24.19Zm0,32.26c-4.45,0-8.06-3.62-8.06-8.06s3.62-8.06,8.06-8.06,8.06,3.62,8.06,8.06-3.62,8.06-8.06,8.06Z"/>
    <path class="cls-2" d="m145.16,290.32c13.34,0,24.19-10.85,24.19-24.19s-10.85-24.19-24.19-24.19-24.19,10.85-24.19,24.19,10.85,24.19,24.19,24.19Zm0-32.26c4.45,0,8.06,3.62,8.06,8.06s-3.62,8.06-8.06,8.06-8.06-3.62-8.06-8.06,3.62-8.06,8.06-8.06Z"/>
    <path class="cls-2" d="m250,145.16c31.13,0,56.45-25.32,56.45-56.45s-25.32-56.45-56.45-56.45-56.45,25.32-56.45,56.45,25.32,56.45,56.45,56.45Zm0-96.77c22.23,0,40.32,18.09,40.32,40.32s-18.09,40.32-40.32,40.32-40.32-18.09-40.32-40.32,18.09-40.32,40.32-40.32Z"/>
  </g>
</svg>