<?xml version="1.0" encoding="UTF-8"?>
<svg id="Capa_1" data-name="Capa 1" xmlns="http://www.w3.org/2000/svg" viewBox="0 0 500 500">
  <defs>
    <style>
      .cls-1 {
        fill: #ce8b78;
      }

      .cls-1, .cls-2, .cls-3, .cls-4, .cls-5, .cls-6, .cls-7, .cls-8, .cls-9 {
        stroke-width: 0px;
      }

      .cls-2 {
        fill: #cd2028;
      }

      .cls-4 {
        fill: #ffb905;
      }

      .cls-5 {
        fill: #686868;
      }

      .cls-6 {
        fill: #f07701;
      }

      .cls-7 {
        fill: #4c4c4c;
      }

      .cls-8 {
        fill: #a01b1c;
      }

      .cls-9 {
        fill: #f0b79f;
      }
    </style>
  </defs>
  <g id="Layer_32" data-name="Layer 32">
    <path class="cls-8" d="m346.77,298.28l88.71,32.28,19.31,38.64c19.25,38.51,31.81,80.01,37.15,122.74H8.04c5.34-42.72,17.9-84.23,37.15-122.74l19.31-38.64,88.71-32.28h193.56Z"/>
    <path class="cls-2" d="m435.48,330.55l-88.71-32.28h-161.3l-48.13,17.51c-26.06,9.48-47.49,28.6-59.89,53.41-19.25,38.51-31.81,80.01-37.15,122.74h451.64c-5.34-42.72-17.9-84.23-37.15-122.74l-19.31-38.64Z"/>
    <path class="cls-6" d="m177.4,427.38h145.17v64.55h-145.17v-64.55Z"/>
    <path class="cls-6" d="m491.94,491.93c-1.35-10.84-3.17-21.6-5.46-32.28H13.5c-2.27,10.66-4.09,21.42-5.46,32.28h483.9Z"/>
    <path class="cls-4" d="m489.52,475.73v-.19c-.9-5.32-1.92-10.61-3.04-15.88H45.76c-2.27,10.66-4.09,21.42-5.46,32.28h451.64c-.68-5.42-1.48-10.82-2.42-16.2h0Z"/>
    <path class="cls-7" d="m316.04,283.67l-18.57-18.57h-94.97l-18.57,18.57,17.66,38.81h96.78l17.66-38.81Z"/>
    <path class="cls-5" d="m316.04,283.67l-15.32-15.33c-4.39,6.58-9.41,12.73-14.98,18.35-7.4,7.41-17.45,11.58-27.92,11.59h-15.66c-10.48,0-20.53-4.16-27.94-11.57-2.3-2.31-4.43-4.75-6.53-7.21-7.51,10.93-8.75,24.99-3.27,37.06l2.7,5.93h91.26l17.66-38.81Z"/>
    <path class="cls-8" d="m346.77,136.9v28.47c0,23.73,5.52,47.13,16.13,68.36-15.49,15.5-36.5,24.21-58.41,24.21h-108.99c-21.91,0-42.92-8.71-58.41-24.21,10.61-21.23,16.13-44.63,16.13-68.36v-28.47h193.56Z"/>
    <path class="cls-1" d="m317.73,153.03l2.42,11.98c1.62,8.12,2.43,16.38,2.42,24.66,0,33.36-13.24,65.35-36.82,88.94-7.4,7.42-17.46,11.59-27.94,11.6h-15.66c-10.48,0-20.53-4.16-27.94-11.57-23.58-23.59-36.82-55.58-36.82-88.94,0-8.28.8-16.54,2.42-24.66l2.42-12,3.23-24.21h129.04l3.23,24.21Z"/>
    <path class="cls-9" d="m195.95,165.03c-8.25,41.23,4.65,83.86,34.37,113.6,15.17,15.31,39.88,15.41,55.18.23.08-.08.15-.15.23-.23,29.74-29.72,42.66-72.35,34.42-113.6l-2.42-12-3.23-24.21h-112.91l-3.23,24.21-2.42,12Z"/>
    <path class="cls-8" d="m346.77,127.53v-6.61c0-39.35-23.16-75.02-59.11-90.99-8.91-3.96-17.01-9.53-23.9-16.43-3.65-3.65-8.6-5.7-13.77-5.7-5.16,0-10.12,2.05-13.77,5.7-6.89,6.9-15,12.47-23.9,16.43-35.95,15.98-59.11,51.64-59.11,90.99v6.61h193.56Z"/>
    <path class="cls-2" d="m287.66,29.93c-8.91-3.96-17.01-9.53-23.9-16.43-1.65-1.63-3.58-2.95-5.7-3.9-2.12.95-4.05,2.27-5.7,3.9-6.89,6.9-15,12.47-23.9,16.43-35.95,15.98-59.11,51.64-59.11,90.99v6.61h177.43v-6.61c0-39.35-23.16-75.02-59.11-90.99Z"/>
    <path class="cls-6" d="m249.99,112.69c26.75,0,53.38,3.73,79.1,11.09,11.73,3.35,23.87,5.05,36.07,5.05h5.81c8.91,0,16.13,7.23,16.13,16.14s-7.22,16.14-16.13,16.14h-5.81c-12.2,0-24.34-1.7-36.07-5.05-25.72-7.35-52.35-11.08-79.1-11.09-26.75,0-53.38,3.74-79.1,11.09-11.73,3.35-23.87,5.04-36.07,5.04h-5.81c-8.91,0-16.13-7.23-16.13-16.14s7.22-16.14,16.13-16.14h5.81c12.2,0,24.34-1.7,36.07-5.05,25.72-7.36,52.35-11.09,79.1-11.09Z"/>
    <path class="cls-4" d="m249.99,97.86c-14.45-4.82-24.2-18.35-24.19-33.58v-8.07h4.72c7.3,0,14.31-2.9,19.48-8.07,5.16,5.17,12.17,8.07,19.47,8.07h4.73v8.07c0,15.24-9.75,28.77-24.19,33.58Z"/>
    <path class="cls-8" d="m241.92,322.48h16.13v169.45h-16.13v-169.45Z"/>
    <path class="cls-4" d="m370.96,128.83h-5.81c-12.2,0-24.34-1.7-36.07-5.05-51.7-14.78-106.5-14.78-158.2,0-11.73,3.35-23.87,5.05-36.07,5.05h-5.81c-2.76.02-5.46.75-7.85,2.12,1.04,8.01,7.84,14,15.91,14.02h5.81c12.2,0,24.34-1.7,36.07-5.05,51.7-14.79,106.5-14.79,158.2,0,11.73,3.35,23.87,5.05,36.07,5.05h5.81c2.76-.02,5.46-.75,7.85-2.12-1.04-8.01-7.84-14-15.91-14.02Z"/>
    <path class="cls-8" d="m108.25,367.67l-35.61-40.08-8.15,2.96-3.89,7.78,35.59,40.05c15.95,17.94,24.76,41.12,24.75,65.13v48.41h16.13v-48.41c0-27.96-10.25-54.95-28.82-75.85Z"/>
    <path class="cls-8" d="m403.78,378.38l35.59-40.05-3.89-7.78-8.15-2.97-35.61,40.09c-18.57,20.9-28.83,47.89-28.82,75.85v48.41h16.13v-48.41c0-24.01,8.8-47.19,24.75-65.13Z"/>
    <path class="cls-7" d="m129.01,491.93v-184.85l24.19-8.8,24.19-8.07v201.72h-48.39Z"/>
    <path class="cls-5" d="m153.21,298.28v153.31c0,13.37,10.83,24.21,24.19,24.21v-185.59l-24.19,8.07Z"/>
    <path class="cls-7" d="m370.96,491.93v-184.85l-24.19-8.8-24.19-8.07v201.72h48.39Z"/>
    <path class="cls-5" d="m346.77,298.28v153.31c0,13.37,10.83,24.21,24.19,24.21v-168.71l-24.19-8.8Z"/>
    <path class="cls-8" d="m177.4,274.07c15.35,25.6,41.15,43.17,70.58,48.08l2,.33-40.32,48.41-14.17-9.46c-21.91-14.61-37.12-37.33-42.28-63.16l24.19-24.21Z"/>
    <path class="cls-8" d="m322.57,274.07c-15.35,25.6-41.15,43.17-70.58,48.08l-2,.33,40.32,48.41,14.17-9.46c21.91-14.61,37.12-37.33,42.28-63.16l-24.19-24.21Z"/>
    <path class="cls-3" d="m8.04,500h483.9c4.45,0,8.06-3.61,8.06-8.07,0-.33-.02-.67-.06-1-5.42-43.63-18.24-86.02-37.91-125.34l-19.29-38.64c-.92-1.85-2.52-3.27-4.46-3.98l-87.08-31.66-22.93-22.94c-3.15-3.15-8.26-3.15-11.41,0-.46.46-.87.98-1.21,1.55-.25.41-.55.81-.81,1.17l-5.32-5.33c22.27-1.14,43.32-10.52,59.06-26.32,2.46-2.45,3.07-6.2,1.52-9.31-9.49-19.08-14.67-40.02-15.19-61.32,3.4.25,6.81.4,10.23.4h5.81c13.36,0,24.19-10.84,24.19-24.21s-10.83-24.21-24.19-24.21h-5.81c-3.46,0-6.9-.19-10.35-.48-.27-42.29-25.26-80.52-63.87-97.72-8.01-3.56-15.29-8.57-21.48-14.77-10.9-10.39-28.04-10.39-38.94,0-6.19,6.2-13.47,11.2-21.48,14.76-38.63,17.2-63.62,55.42-63.9,97.72-3.44.29-6.89.48-10.35.48h-5.78c-13.36,0-24.19,10.84-24.19,24.21s10.83,24.21,24.19,24.21h5.81c3.41,0,6.82-.15,10.23-.4-.51,21.31-5.7,42.24-15.19,61.32-1.55,3.11-.94,6.86,1.52,9.31,15.74,15.8,36.79,25.18,59.06,26.32l-5.32,5.33c-.25-.4-.55-.76-.81-1.17-2.3-3.82-7.25-5.05-11.07-2.76-.56.34-1.08.74-1.55,1.21l-22.92,22.96-87.04,31.66c-1.94.71-3.54,2.13-4.46,3.98l-19.31,38.64C18.31,404.91,5.49,447.3.06,490.93c-.55,4.42,2.58,8.45,7,9.01.32.04.65.06.97.06h0Zm12.1-32.28h100.81v16.14H17.28c.81-5.41,1.77-10.79,2.85-16.14Zm100.81-82.68c-3.68-6.18-7.93-11.99-12.69-17.37l-29.84-33.59,42.53-15.48v66.44Zm16.13-72.31l10.48-3.82c4.28,14.76,11.71,28.42,21.78,40.03v134.92h-32.26v-171.13Zm225.82,0v171.13h-32.26v-134.92c10.07-11.61,17.49-25.27,21.78-40.03l10.48,3.82Zm16.13,5.87l42.53,15.47-29.84,33.59c-4.77,5.38-9.02,11.2-12.69,17.38v-66.44Zm-64.52,132.98h-56.45v-16.14h56.45v16.14Zm-72.58,0h-56.45v-16.14h56.45v16.14Zm-56.45,16.14h56.45v16.14h-56.45v-16.14Zm72.58,0h56.45v16.14h-56.45v-16.14Zm56.45-48.41h-56.45v-74.54l26.07,31.29c2.64,3.17,7.24,3.84,10.67,1.55l14.17-9.45c1.93-1.29,3.72-2.71,5.55-4.11v55.26Zm-72.58,0h-56.45v-55.26c1.83,1.4,3.62,2.82,5.55,4.11l14.17,9.45c3.43,2.29,8.03,1.62,10.67-1.55l26.07-31.29v74.54Zm137.1,64.55v-16.14h100.85c1.04,5.35,2,10.73,2.81,16.14h-103.67Zm68.55-111.06c12.53,25.09,22.18,51.52,28.75,78.79h-97.3v-8.07c0-24.01,8.8-47.19,24.75-65.13l29.84-33.56,13.96,27.98Zm-109.68-71.96c-5.42,22.1-18.95,41.34-37.91,53.92l-8.15,5.42-27.14-32.58c23.73-6.59,44.54-20.97,59.1-40.84l14.09,14.08Zm-152.43-111.15c0-7.75.77-15.48,2.28-23.08l1.35-6.78c40.11-8.89,81.67-8.89,121.78,0l1.35,6.77c7.71,38.59-4.36,78.48-32.17,106.32-5.88,5.92-13.89,9.24-22.24,9.21h-15.69c-8.34.02-16.34-3.29-22.22-9.21-22.13-22.03-34.54-52-34.45-83.24h0Zm167.61,42.16c-10.31,8.89-22.87,14.75-36.29,16.94,13.01-26.22,16.99-56,11.34-84.72,3.5.97,7.04,1.77,10.6,2.42.18,22.55,5.07,44.81,14.36,65.36h0ZM215.59,37.3c9.82-4.36,18.74-10.5,26.33-18.1,4.54-4.24,11.59-4.24,16.13,0,7.59,7.6,16.52,13.74,26.33,18.09,31.98,14.26,53.02,45.53,54.2,80.54-2.42-.54-4.84-1.13-7.26-1.82-25.1-7.12-51.04-10.88-77.13-11.19,16.87-6.36,28.04-22.51,28.04-40.55v-8.07c0-4.46-3.61-8.07-8.06-8.07h-4.73c-5.16-.02-10.11-2.07-13.77-5.7-3.15-3.15-8.25-3.15-11.4,0-3.65,3.67-8.61,5.72-13.77,5.7h-4.72c-4.45,0-8.06,3.61-8.06,8.07v8.07c0,18.04,11.19,34.19,28.07,40.55-26.09.31-52.02,4.08-77.13,11.19-2.42.69-4.84,1.27-7.26,1.82,1.18-35,22.21-66.26,54.18-80.53h0Zm18.27,26.97v-.15c5.76-.53,11.3-2.47,16.13-5.65,4.83,3.18,10.37,5.12,16.13,5.65v.15c.01,10.77-6.31,20.53-16.13,24.93-9.82-4.4-16.14-14.17-16.13-24.93Zm-104.84,88.76c-4.45,0-8.06-3.61-8.06-8.07s3.61-8.07,8.06-8.07h5.81c12.95,0,25.83-1.81,38.28-5.37,50.26-14.3,103.51-14.3,153.77,0,12.45,3.56,25.34,5.36,38.28,5.37h5.81c4.45,0,8.06,3.61,8.06,8.07s-3.61,8.07-8.06,8.07h-5.81c-11.46,0-22.86-1.59-33.87-4.74-53.15-15.2-109.49-15.2-162.64,0-11.02,3.15-22.42,4.75-33.87,4.74h-5.76Zm32.26,13.54c3.56-.69,7.1-1.48,10.6-2.42-5.66,28.72-1.67,58.5,11.34,84.72-13.43-2.2-25.99-8.06-36.29-16.94,9.28-20.55,14.17-42.81,14.36-65.36Zm40.7,110.5c2.13,2.47,4.26,4.94,6.58,7.26,8.89,8.95,20.98,13.97,33.58,13.94h15.7c12.62.04,24.73-4.98,33.62-13.94,2.32-2.32,4.45-4.79,6.58-7.26l7.04,7.04c-14.18,15.94-33.38,26.55-54.41,30.07l-.68.1-.68-.11c-21.03-3.53-40.23-14.14-54.41-30.07l7.07-7.04Zm-25.81,9.68c14.56,19.86,35.38,34.25,59.1,40.84l-27.14,32.58-8.14-5.41c-18.95-12.57-32.48-31.8-37.91-53.89l14.08-14.11Zm-123.76,86.05l13.98-27.98,29.84,33.56c15.94,17.94,24.74,41.12,24.73,65.13v8.07H23.65c6.57-27.27,16.22-53.7,28.75-78.79Z"/>
  </g>
</svg>