<?xml version="1.0" encoding="UTF-8"?>
<svg id="Capa_1" data-name="Capa 1" xmlns="http://www.w3.org/2000/svg" viewBox="0 0 500 500">
  <defs>
    <style>
      .cls-1 {
        fill: #fff;
      }

      .cls-1, .cls-2, .cls-3, .cls-4, .cls-5 {
        stroke: #000;
        stroke-linejoin: round;
        stroke-width: 10.03px;
      }

      .cls-2 {
        fill: #006736;
      }

      .cls-3 {
        fill: #026298;
      }

      .cls-4 {
        fill: #ccc;
      }

      .cls-5 {
        fill: #e6e6e6;
      }
    </style>
  </defs>
  <path class="cls-3" d="m273.77,384.34c-1.71-27.74-28.14-66.07-48.9-99.95-25.6-41.77-35.96-76.77-46.32-76.77s-21.05,32.29-45.66,72.23c-21.19,34.41-47.84,72.78-51.27,102.79-7.41,64.84,40.95,110.87,96.92,110.87s99.03-47.22,95.22-109.16Z"/>
  <path class="cls-1" d="m194.99,421.68c-.35-5.65-6.4-13.27-10.63-20.17-5.22-8.51-6.7-15.83-6.7-15.83,0,0-2.07,7.94-7.08,16.08-4.32,7.01-9.95,13.46-10.65,19.58-1.51,13.21,6.33,22.58,17.73,22.58s18.1-9.62,17.32-22.24Z"/>
  <polygon class="cls-1" points="91.46 441.05 143.5 441.05 177.44 350.56 210.7 441.05 263.77 441.05 201.26 292.62 152.58 292.62 91.46 441.05"/>
  <path class="cls-1" d="m419.12,31.7s-13.62,30.79-65.93,30.79-129.41-14.44-156.11,51.49c0,0,20.98-22.89,85.55-20.98,64.57,1.91,103.53,3.54,136.5-61.3Z"/>
  <path class="cls-2" d="m134.96,212.06s25.07-44.41,71.65-56.4c46.59-11.99,99.72,2.18,136.22-13.89,36.51-16.07,48.5-36.24,62.12-76.83,0,0-29.15,32.97-73.83,33.51s-105.98-4.9-150.12,28.61c-44.14,33.51-46.04,85-46.04,85Z"/>
  <path class="cls-2" d="m222.14,165.47v56.31c0,6.52-5.29,11.81-11.81,11.81h-63.57c-6.52,0-11.81-5.29-11.81-11.81v-2.22s23.79-54.44,87.18-54.08Z"/>
  <path class="cls-4" d="m219.01,30.2h0c0,5.94,5.02,10.64,10.94,10.25l45.05-2.96v-14.58s-45.05-2.96-45.05-2.96c-5.92-.39-10.94,4.31-10.94,10.25Z"/>
  <path class="cls-4" d="m391.95,30.2h0c0,5.94-5.02,10.64-10.94,10.25l-45.05-2.96v-14.58s45.05-2.96,45.05-2.96c5.92-.39,10.94,4.31,10.94,10.25Z"/>
  <rect class="cls-4" x="290.25" y="6.5" width="30.65" height="50.54" rx="4.63" ry="4.63"/>
  <rect class="cls-5" x="294.61" y="3.64" width="21.93" height="54.35" rx="4.06" ry="4.06" transform="translate(274.76 336.4) rotate(-90)"/>
</svg>