<?xml version="1.0" encoding="UTF-8"?>
<svg id="Capa_1" data-name="Capa 1" xmlns="http://www.w3.org/2000/svg" viewBox="0 0 500 500">
  <defs>
    <style>
      .cls-1, .cls-2, .cls-3, .cls-4, .cls-5, .cls-6, .cls-7, .cls-8, .cls-9, .cls-10, .cls-11 {
        stroke-width: 0px;
      }

      .cls-2 {
        fill: #fee55a;
      }

      .cls-3 {
        fill: #43cb8e;
      }

      .cls-4 {
        fill: #00ba66;
      }

      .cls-5 {
        fill: #0193fa;
      }

      .cls-6 {
        fill: #23a8fe;
      }

      .cls-7 {
        fill: #ff9839;
      }

      .cls-8 {
        fill: #ffd301;
      }

      .cls-9 {
        fill: #ffa85d;
      }

      .cls-10 {
        fill: #ff4756;
      }

      .cls-11 {
        fill: #ff656f;
      }
    </style>
  </defs>
  <circle class="cls-11" cx="60.14" cy="268.03" r="22.65"/>
  <circle class="cls-9" cx="155.15" cy="220.44" r="22.65"/>
  <circle class="cls-2" cx="250.15" cy="125.27" r="22.65" transform="translate(79.84 347.22) rotate(-79.1)"/>
  <circle class="cls-3" cx="345.16" cy="172.86" r="22.65"/>
  <circle class="cls-6" cx="440.17" cy="30.1" r="22.65"/>
  <path class="cls-10" d="m62.23,268.03c0-7.94,4.09-14.92,10.28-18.97-3.56-2.32-7.8-3.68-12.37-3.68-12.51,0-22.65,10.14-22.65,22.65s10.14,22.65,22.65,22.65c4.57,0,8.81-1.36,12.37-3.68-6.19-4.04-10.28-11.03-10.28-18.97Z"/>
  <path class="cls-7" d="m157.24,220.44c0-7.94,4.09-14.92,10.28-18.97-3.56-2.32-7.8-3.68-12.37-3.68-12.51,0-22.65,10.14-22.65,22.65s10.14,22.65,22.65,22.65c4.57,0,8.81-1.36,12.37-3.68-6.19-4.04-10.28-11.03-10.28-18.97h0Z"/>
  <path class="cls-8" d="m252.25,125.27c0-7.94,4.09-14.92,10.28-18.97-3.56-2.32-7.8-3.68-12.37-3.68-12.51,0-22.65,10.14-22.65,22.65s10.14,22.65,22.65,22.65c4.57,0,8.81-1.36,12.37-3.68-6.19-4.04-10.28-11.03-10.28-18.97h0Z"/>
  <path class="cls-4" d="m347.25,172.86c0-7.94,4.09-14.92,10.28-18.97-3.56-2.32-7.8-3.68-12.37-3.68-12.51,0-22.65,10.14-22.65,22.65s10.14,22.65,22.65,22.65c4.57,0,8.81-1.36,12.37-3.68-6.19-4.04-10.28-11.03-10.28-18.97h0Z"/>
  <path class="cls-5" d="m442.26,30.1c0-7.94,4.09-14.92,10.28-18.97-3.56-2.32-7.8-3.68-12.37-3.68-12.51,0-22.65,10.14-22.65,22.65s10.14,22.65,22.65,22.65c4.57,0,8.81-1.36,12.37-3.68-6.19-4.04-10.28-11.03-10.28-18.97Z"/>
  <path class="cls-11" d="m84.63,351.86h-48.99c-3.38,0-6.12,2.74-6.12,6.13v134.82h61.24v-134.82c0-3.38-2.74-6.13-6.12-6.13Z"/>
  <path class="cls-9" d="m179.64,304.27h-48.99c-3.38,0-6.13,2.74-6.13,6.13v182.41h61.24v-182.41c0-3.38-2.74-6.13-6.13-6.13h0Z"/>
  <path class="cls-2" d="m274.65,208.69h-48.99c-3.38,0-6.13,2.74-6.13,6.13v277.99h61.24V214.81c0-3.38-2.74-6.13-6.13-6.13h0Z"/>
  <path class="cls-3" d="m369.66,256.69h-48.99c-3.38,0-6.13,2.74-6.13,6.13v229.99h61.24v-229.99c0-3.38-2.74-6.13-6.13-6.13Z"/>
  <path class="cls-6" d="m464.66,113.26h-48.99c-3.38,0-6.13,2.74-6.13,6.13v373.42h61.24V119.39c0-3.38-2.74-6.13-6.13-6.12Z"/>
  <path class="cls-10" d="m73.28,351.86h-37.64c-3.38,0-6.12,2.74-6.12,6.13v134.82h37.64v-134.82c0-3.38,2.74-6.13,6.12-6.13Z"/>
  <path class="cls-7" d="m168.29,304.27h-37.64c-3.38,0-6.13,2.74-6.13,6.13v182.41h37.64v-182.41c0-3.38,2.74-6.13,6.13-6.13h0Z"/>
  <path class="cls-8" d="m263.29,208.69h-37.64c-3.38,0-6.13,2.74-6.13,6.13v277.99h37.64V214.81c0-3.38,2.74-6.13,6.13-6.13h0Z"/>
  <path class="cls-4" d="m358.3,256.69h-37.64c-3.38,0-6.13,2.74-6.13,6.13v229.99h37.64v-229.99c0-3.38,2.74-6.13,6.13-6.13Z"/>
  <path class="cls-5" d="m453.31,113.26h-37.64c-3.38,0-6.13,2.74-6.13,6.13v373.42h37.64V119.39c0-3.38,2.74-6.13,6.13-6.12Z"/>
  <path class="cls-1" d="m30.01,267.9c0,16.53,13.45,29.97,29.97,29.97s29.97-13.45,29.97-29.97c0-2.22-.25-4.38-.71-6.46l43.06-21.57c5.5,6.37,13.63,10.42,22.69,10.42,23.25,0,37.66-25.47,25.71-45.36l53.96-54.05c12.37,7.4,28.41,4.96,38.03-6.18l43.06,21.57c-4.15,18.81,10.25,36.44,29.26,36.44,25.92,0,39.63-30.89,22.19-50.1l62.81-94.38c19.53,6.94,39.98-7.67,39.98-28.25,0-16.53-13.45-29.97-29.97-29.97s-29.97,13.45-29.97,29.97c0,7.74,2.95,14.8,7.78,20.13l-62.81,94.38c-11.51-4.09-24.49-.8-32.69,8.7l-43.06-21.57c.46-2.08.71-4.24.71-6.46,0-16.53-13.45-29.97-29.97-29.97-23.24,0-37.66,25.46-25.71,45.36l-53.96,54.05c-22.34-13.37-50.29,6.47-44.6,32.2l-43.06,21.57c-18.06-20.92-52.66-8.19-52.66,19.55h0ZM440.02,14.65c8.45,0,15.32,6.87,15.32,15.32s-6.87,15.32-15.32,15.32-15.32-6.87-15.32-15.32,6.87-15.32,15.32-15.32Zm-95.01,142.75c8.45,0,15.32,6.87,15.32,15.32s-6.87,15.32-15.32,15.32-15.32-6.87-15.32-15.32,6.87-15.32,15.32-15.32Zm-95.01-47.58c8.45,0,15.32,6.87,15.32,15.32s-6.87,15.32-15.32,15.32-15.32-6.87-15.32-15.32,6.87-15.32,15.32-15.32Zm-95.01,95.17c8.45,0,15.32,6.87,15.32,15.32s-6.87,15.32-15.32,15.32-15.32-6.87-15.32-15.32,6.87-15.32,15.32-15.32Zm-95.01,78.23c-8.45,0-15.32-6.87-15.32-15.32s6.87-15.32,15.32-15.32,15.32,6.87,15.32,15.32-6.87,15.32-15.32,15.32Z"/>
  <path class="cls-1" d="m487.02,485.35h-9.06v-160.94c0-4.05-3.28-7.32-7.32-7.32s-7.32,3.28-7.32,7.32v160.94h-46.59V120.46h46.59v169.77c0,4.05,3.28,7.32,7.32,7.32s7.32-3.28,7.32-7.32V119.26c0-7.42-6.03-13.45-13.45-13.45h-48.99c-7.42,0-13.45,6.03-13.45,13.45v366.09h-19.12v-222.67c0-7.42-6.03-13.45-13.45-13.45h-7.4c-4.05,0-7.32,3.28-7.32,7.32s3.28,7.32,7.32,7.32h6.21v221.47h-46.59v-221.47h6.21c4.05,0,7.32-3.28,7.32-7.32s-3.28-7.32-7.32-7.32h-7.41c-7.42,0-13.45,6.03-13.45,13.45v222.67h-19.12V214.68c0-7.42-6.03-13.45-13.45-13.45h-48.99c-7.42,0-13.45,6.03-13.45,13.45v270.67h-19.12v-175.08c0-7.42-6.03-13.45-13.45-13.45h-48.99c-7.42,0-13.45,6.03-13.45,13.45v175.08h-19.12v-127.5c0-7.42-6.03-13.45-13.45-13.45h-48.99c-7.42,0-13.45,6.03-13.45,13.45v127.5h-9.06c-4.05,0-7.32,3.28-7.32,7.32s3.28,7.32,7.32,7.32h474.05c4.05,0,7.32-3.28,7.32-7.32s-3.28-7.32-7.33-7.32h0Zm-450.33,0v-126.3h46.59v126.3h-46.59Zm95.01,0v-173.89h46.59v173.89h-46.59Zm95.01,0V215.88h46.59v269.47h-46.59Z"/>
</svg>