<?xml version="1.0" encoding="UTF-8"?>
<svg id="Capa_1" data-name="Capa 1" xmlns="http://www.w3.org/2000/svg" viewBox="0 0 500 500">
  <defs>
    <style>
      .cls-1 {
        fill: #fed402;
      }

      .cls-1, .cls-2, .cls-3, .cls-4, .cls-5 {
        stroke-width: 0px;
      }

      .cls-2 {
        fill: #fedf30;
      }

      .cls-4 {
        fill: #6b6b6b;
      }

      .cls-5 {
        fill: #838383;
      }
    </style>
  </defs>
  <path class="cls-2" d="m401.78,492.68c12.85-39.59,26.07-78.31,37.02-119.35,11.75-44.04,26.12-94.03,17.23-141.42-7.59-40.43-31.85-70.93-64.39-90.78-47.64-29.07-101.65-38.15-151.94-59.22-5.4-2.26-10.69-4.83-15.72-7.93-6.39-3.93-16.05-9.97-18.26-19.62-4.69-20.53,28.07-37.61,37.53-47.03h37.76s-35.71,27.13-41.63,33.87c-7.26,8.27,3.97,13.39,10.91,16.01,13.64,5.14,27.5,9.08,41.27,13.77,14.94,5.09,29.82,10.37,44.61,15.88,9.23,3.44,18.43,6.92,27.54,10.66,17.94,7.35,35.57,15.65,51.85,26.21,11.63,7.54,22.64,16.29,32.44,26.48,21.67,22.54,34.89,52.08,40.85,83.85,8.89,47.39.82,96.6-10.93,140.64-10.95,41.04-21.52,78.42-34.37,118h-41.77Z"/>
  <path class="cls-1" d="m477.92,374.68c-10.96,41.04-21.52,78.42-34.37,118h-19.55c12.85-39.59,23.42-76.96,34.37-118,11.75-44.04,23.6-96.29,14.71-143.68-5.95-31.76-22.95-58.26-44.63-80.81-13.7-14.25-33.27-25.75-51.19-33.74-11.49-5.13-23.31-9.5-35.13-13.83-9.03-3.32-18.1-6.51-27.18-9.67-9.1-3.16-18.22-6.28-27.32-9.41-17.8-6.13-35.57-12.34-53.12-19.12-10.31-3.98-21.19-11.98-13.43-23.98,5.42-8.38,15.19-13.52,22.77-19.48,5.83-4.59,11.69-9.14,17.6-13.63h19.55s-35.71,27.13-41.64,33.87c-7.26,8.27,3.98,13.39,10.91,16.01,13.64,5.13,27.5,9.08,41.27,13.76,14.94,5.09,29.82,10.37,44.61,15.88,9.23,3.44,18.44,6.92,27.55,10.66,17.93,7.34,35.57,15.65,51.85,26.21,11.63,7.54,22.64,16.29,32.44,26.48,21.68,22.55,34.89,52.08,40.84,83.85,8.89,47.39.82,96.6-10.93,140.64h0Z"/>
  <path class="cls-2" d="m7.33,492.68c4.85-7.59,101.09-114.73,138.72-157.32,25.5-28.86,60.53-62.44,71.37-101.83,4.32-15.69,1.41-30.72-9.31-42.5-11.66-12.81-26.96-20.87-41.02-30.02-25.34-16.51-58.6-30.21-72.29-60.97-16.7-37.54,5.37-75.19,35.63-92.72h40.13c-38.44,22.26-68.77,51.82-47.35,85.86,28.77,45.74,114.27,44.52,126.87,115.9,8.02,45.39-39.81,103.91-59.57,126.27-37.63,42.59-126.02,149.73-130.87,157.33H7.33Z"/>
  <path class="cls-1" d="m190.52,335.35c-37.63,42.59-126.01,149.73-130.87,157.33h-20.33c4.86-7.59,93.24-114.73,130.87-157.33,19.22-21.76,36.49-45.16,50.99-70.17,5.71-9.85,11-20.55,12.24-32.02,1.24-11.45.32-23.34-3.05-34.36-16.66-54.53-93.1-55.17-121.54-100.39-21.41-34.04,2.97-68.83,41.41-91.08h20.33c-38.44,22.25-68.77,51.82-47.35,85.86,28.77,45.74,114.27,44.52,126.87,115.9,8.01,45.4-39.81,103.91-59.57,126.27Z"/>
  <path class="cls-5" d="m170.57,7.32c-38.44,22.26-68.77,51.82-47.35,85.86,28.77,45.74,114.27,44.52,126.87,115.9,8.02,45.39-39.81,103.91-59.57,126.27-37.63,42.59-126.02,149.73-130.87,157.32h342.12c12.85-39.59,26.07-78.31,37.02-119.35,11.75-44.04,26.12-94.03,17.23-141.42-7.59-40.43-31.85-70.93-64.39-90.78-47.64-29.07-101.65-38.15-151.94-59.22-5.4-2.26-10.69-4.83-15.72-7.93-6.39-3.93-16.05-9.97-18.26-19.62-4.69-20.53,28.07-37.61,37.53-47.03h-72.68Z"/>
  <path class="cls-4" d="m438.8,373.32c-10.95,41.04-24.17,79.77-37.02,119.36h-22.87c12.85-39.59,26.08-78.32,37.02-119.36,11.76-44.04,26.12-94.03,17.23-141.42-11.4-60.71-83.96-93.48-135.89-110.99-23.14-7.81-46.73-14.34-69.57-23.04-14.45-5.5-28.5-13.22-37.76-25.96-9.05-12.45-6.86-32.13,3.97-42.98,4.64-4.66,9.93-8.61,15.15-12.57,1.87-1.43,9.22-9.04,11.32-9.04h22.88c-9.47,9.41-42.22,26.49-37.54,47.03,2.21,9.65,11.87,15.68,18.26,19.62,5.04,3.1,10.33,5.67,15.73,7.94,50.29,21.06,104.3,30.15,151.94,59.22,32.54,19.85,56.8,50.35,64.39,90.78,8.89,47.39-5.47,97.38-17.23,141.42h0Z"/>
  <g>
    <path class="cls-3" d="m496.06,232.69c-6.57-35.02-21.36-65.3-42.76-87.57-9.62-10.01-20.97-19.28-33.73-27.55-14.6-9.47-31.46-18-53.06-26.84-9.46-3.88-18.94-7.45-27.76-10.74-14.31-5.33-29.38-10.7-44.81-15.95-5.3-1.81-10.67-3.52-15.87-5.18-8.31-2.65-16.91-5.39-25.19-8.51-5.11-1.92-7.26-3.38-8.13-4.16.04-.05.09-.11.15-.17,3.96-4.5,26.98-22.55,40.56-32.87,2.5-1.9,3.51-5.19,2.51-8.16S284.15,0,281.01,0h-150.57c-1.29,0-2.56.34-3.68.98-16.89,9.78-30.91,25.17-38.46,42.23-8.74,19.76-8.81,40.43-.2,59.8,11.8,26.52,36.72,41.23,58.7,54.2,5.74,3.39,11.16,6.58,16.28,9.92,3.02,1.97,6.13,3.91,9.14,5.78,11.28,7.04,21.94,13.68,30.46,23.04,8.78,9.64,11.43,21.96,7.66,35.63-8.75,31.76-34.74,60.3-57.67,85.48-4.24,4.66-8.25,9.06-12.13,13.45-10.86,12.29-26.77,30.15-43.62,49.06C41.35,441.95,4.65,483.26,1.15,488.74c-1.44,2.25-1.54,5.11-.25,7.46,1.29,2.34,3.75,3.8,6.43,3.8h436.21s0,0,0,0c3.18,0,5.99-2.04,6.97-5.06,11.4-35.1,21.71-70.5,34.48-118.38,15.24-57.11,18.75-102.83,11.05-143.87h0Zm-25.22,140.1c-12.09,45.31-21.96,79.36-32.63,112.57h-26.33c1.26-3.86,2.51-7.72,3.77-11.56,11.32-34.56,22.36-69.23,31.77-104.33,1.5-5.6,3.05-11.39,4.56-17.22,1.02-3.91-1.34-7.91-5.26-8.92-3.92-1.01-7.92,1.34-8.94,5.25-1.5,5.77-3.04,11.54-4.54,17.11-9.23,34.43-20.33,69.32-31.54,103.56-1.76,5.36-3.51,10.73-5.27,16.11h-154.4c-.42-1.81-1.53-3.47-3.23-4.54-3.42-2.15-7.95-1.12-10.11,2.3-.48.77-.95,1.51-1.42,2.24H74.59c23.92-29.82,89.82-109.39,121.43-145.16,16.85-19.07,30.66-37.8,41.04-55.67,17.2-29.59,24.01-55.41,20.25-76.72-8.09-45.79-44.11-64.19-75.89-80.42-3.36-1.72-6.84-3.49-10.17-5.25l-.6-.31c-3.58-1.89-8.01-.52-9.9,3.06s-.52,8,3.06,9.89l.6.32c3.42,1.8,6.93,3.59,10.33,5.33,31.53,16.11,61.31,31.32,68.13,69.93,3.15,17.82-3.07,40.3-18.49,66.83-9.76,16.8-23.37,35.24-39.36,53.33-34.49,39.03-113.47,134.54-129.07,154.85H22.87c17.48-20.26,55.46-62.88,85.01-96.05,16.86-18.92,32.79-36.8,43.66-49.11,3.8-4.3,7.78-8.67,11.98-13.28,24.04-26.39,51.29-56.31,60.96-91.45,5.09-18.49,1.2-36.02-10.95-49.36-16.05-17.63-38.96-29.51-59.26-41.5-21.08-12.44-42.87-25.3-52.77-47.54-14.68-33,4.27-66.1,30.95-82.42h13.33c-20.09,14.71-31.83,29.58-35.67,45.09-3.11,12.57-.79,25.14,6.89,37.35,4.23,6.72,9.68,12.8,16.67,18.59,3.12,2.58,7.74,2.15,10.32-.96,2.58-3.11,2.15-7.73-.97-10.31-5.78-4.78-10.23-9.72-13.61-15.1-5.56-8.84-7.22-17.36-5.07-26.05,3.89-15.72,20.1-32.06,48.2-48.6h49.57c-13,10.23-27.47,24.18-23.55,41.34,3.89,17.02,23.63,26.53,38.29,32.67,19.12,8.01,38.93,14.37,58.1,20.52,31.36,10.06,63.79,20.47,92.85,38.2,33.17,20.23,54.26,49.93,61.01,85.88,4.38,23.32,3.35,49.42-3.24,82.14l-.1.52c-.8,3.96,1.78,7.82,5.75,8.62.49.1.97.14,1.45.14,3.42,0,6.48-2.4,7.18-5.88l.1-.52c6.97-34.61,8.01-62.48,3.27-87.71-7.53-40.14-30.97-73.22-67.77-95.68-30.55-18.64-63.83-29.32-96.01-39.64-18.87-6.05-38.38-12.32-56.91-20.08-5.66-2.37-10.47-4.79-14.72-7.41-5.34-3.29-13.41-8.25-14.96-15.02-2.52-11.04,14.01-23.42,24.94-31.62,3.14-2.36,5.97-4.48,8.28-6.46,0,0,13.48,0,13.47,0-9.67,7.6-33.38,19.26-29.49,34.8,1.95,7.79,10.45,11.9,17.63,14.6,13.66,5.15,27.68,9.14,41.5,13.85,15.29,5.21,30.23,10.52,44.41,15.81,8.71,3.25,18.05,6.77,27.32,10.57,20.73,8.49,36.83,16.62,50.64,25.58,11.82,7.66,22.3,16.21,31.14,25.41,19.43,20.21,32.89,47.91,38.93,80.12,7.28,38.82,3.85,82.48-10.81,137.41h0Z"/>
    <path class="cls-3" d="m336.23,194.63c1.43,2.02,3.69,3.1,6,3.1,1.46,0,2.93-.43,4.22-1.34,3.31-2.33,4.1-6.9,1.77-10.2-4.02-5.69-8.61-11.02-13.66-15.84-2.93-2.8-7.57-2.69-10.36.23-2.8,2.92-2.7,7.55.23,10.35,4.36,4.17,8.34,8.78,11.81,13.7h0Z"/>
    <path class="cls-3" d="m248.97,119.58l-.46-.24c-5.65-2.92-11.28-5.84-16.94-8.73-3.6-1.84-8.02-.42-9.86,3.18-1.84,3.6-.42,8.01,3.19,9.85,5.63,2.88,11.25,5.78,16.87,8.69l.46.24c1.08.56,2.23.82,3.37.82,2.65,0,5.21-1.44,6.51-3.95,1.86-3.59.46-8.01-3.14-9.87Z"/>
    <path class="cls-3" d="m175.28,56.2c1.7-5.38,4.61-9.95,7.98-12.55,3.2-2.47,3.79-7.07,1.32-10.27-2.48-3.2-7.08-3.79-10.28-1.32-5.76,4.44-10.37,11.44-12.99,19.72-1.22,3.85.92,7.97,4.78,9.19.74.23,1.48.34,2.21.34,3.11,0,6-1.99,6.99-5.11h0Z"/>
    <path class="cls-3" d="m196.24,93.61c-6.6-3.23-11.17-6.12-14.81-9.35-3.03-2.68-7.66-2.41-10.35.62-2.69,3.02-2.41,7.65.62,10.33,4.67,4.14,10.25,7.7,18.08,11.54,1.04.51,2.14.75,3.23.75,2.71,0,5.31-1.51,6.59-4.1,1.78-3.63.28-8.02-3.35-9.8h0Z"/>
    <path class="cls-3" d="m269.27,430.7c-3.47-2.08-7.97-.95-10.05,2.52-3.41,5.7-6.79,11.3-10.07,16.71-2.1,3.46-.99,7.96,2.48,10.05,1.19.72,2.5,1.06,3.79,1.06,2.48,0,4.9-1.26,6.28-3.53,3.29-5.43,6.68-11.06,10.11-16.77,2.08-3.47.95-7.96-2.52-10.04Z"/>
    <path class="cls-3" d="m356.27,218.78c-3.97.77-6.57,4.61-5.81,8.58.89,4.6,1.34,9.24,1.34,13.79,0,.35,0,.7,0,1.06-.01.95-.04,1.9-.09,2.85-.18,4.04,2.95,7.46,6.99,7.64.11,0,.22,0,.34,0,3.9,0,7.14-3.06,7.32-6.99.05-1.09.08-2.19.1-3.27,0-.43.01-.87.01-1.3,0-5.48-.54-11.06-1.61-16.57-.77-3.97-4.62-6.56-8.59-5.8Z"/>
    <path class="cls-3" d="m298.98,380.15c-3.5-2.02-7.99-.83-10.02,2.67-3.16,5.45-6.46,11.1-9.83,16.85-2.05,3.49-.88,7.97,2.62,10.02,1.17.68,2.44,1.01,3.7,1.01,2.52,0,4.97-1.29,6.33-3.62,3.39-5.77,6.7-11.45,9.87-16.92,2.03-3.5.83-7.98-2.67-10h0Z"/>
    <path class="cls-3" d="m353.4,276.53c-3.8-1.41-8.02.52-9.43,4.31-2.04,5.48-4.49,11.13-7.47,17.26-1.77,3.64-.25,8.02,3.39,9.78,1.03.5,2.12.74,3.2.74,2.72,0,5.33-1.52,6.6-4.12,3.19-6.56,5.82-12.63,8.03-18.56,1.41-3.79-.52-8-4.31-9.41h0Z"/>
    <path class="cls-3" d="m327.98,329.19c-3.5-2.03-7.99-.83-10.02,2.67-3.04,5.24-6.48,11.19-9.75,17.1-1.95,3.54-.67,7.99,2.88,9.95,1.12.62,2.34.91,3.53.91,2.58,0,5.09-1.37,6.43-3.79,3.19-5.78,6.6-11.65,9.6-16.83,2.03-3.5.83-7.98-2.67-10Z"/>
    <path class="cls-3" d="m300.69,147.77c-3.15-1.79-6.33-3.67-9.4-5.49-2.47-1.46-4.94-2.92-7.43-4.35-3.5-2.03-7.99-.83-10.02,2.67-2.03,3.5-.83,7.98,2.67,10,2.44,1.41,4.88,2.85,7.31,4.29,3.12,1.84,6.35,3.75,9.59,5.6,1.15.65,2.4.97,3.63.97,2.55,0,5.02-1.33,6.37-3.69,2.01-3.51.79-7.98-2.73-9.99Z"/>
  </g>
</svg>