<?xml version="1.0" encoding="UTF-8"?>
<svg id="Capa_1" data-name="Capa 1" xmlns="http://www.w3.org/2000/svg" viewBox="0 0 500 500">
  <defs>
    <style>
      .cls-1 {
        fill: #fed402;
      }

      .cls-1, .cls-2, .cls-3, .cls-4, .cls-5, .cls-6, .cls-7, .cls-8 {
        stroke-width: 0px;
      }

      .cls-2 {
        fill: #fac600;
      }

      .cls-3 {
        fill: #8ac9fe;
      }

      .cls-4 {
        fill: #b5adb6;
      }

      .cls-6 {
        fill: #60b7ff;
      }

      .cls-7 {
        fill: #efedef;
      }

      .cls-8 {
        fill: #d7d0d6;
      }
    </style>
  </defs>
  <g>
    <path class="cls-3" d="m378.02,447.46H126.8c-10.79,0-19.53-8.74-19.53-19.53V67.24h-32.37c-11.82,0-21.4,9.58-21.4,21.4v382.63c0,11.82,9.58,21.4,21.4,21.4h281.72c11.82,0,21.4-9.58,21.4-21.4v-23.81h0Z"/>
    <path class="cls-6" d="m107.27,67.24v360.69c0,10.79,8.74,19.53,19.53,19.53h251.21v23.81c0,4.17-1.2,8.06-3.26,11.34H109.14c-11.82,0-21.4-9.58-21.4-21.4v-15.62l9.77-367.01,9.76-11.34Z"/>
    <path class="cls-1" d="m412.26,413.22h-251.21c-10.79,0-19.53-8.74-19.53-19.53V41.56h-32.37c-11.82,0-21.4,9.58-21.4,21.4v382.63c0,11.82,9.58,21.4,21.4,21.4h281.72c11.82,0,21.4-9.58,21.4-21.4v-32.37h0Z"/>
    <path class="cls-2" d="m141.51,41.56v352.13c0,10.79,8.74,19.53,19.53,19.53h251.21v32.37c0,1.74-.21,3.43-.61,5.05H143.38c-11.82,0-21.4-9.58-21.4-21.4v-17.89l9.77-27.02V46.62l9.77-5.05Z"/>
    <path class="cls-7" d="m423.14,432.76H143.38c-11.82,0-21.4-9.58-21.4-21.4V28.72c0-11.82,9.58-21.4,21.4-21.4h216.42l84.74,86.69v317.34c0,11.82-9.58,21.4-21.4,21.4h0Z"/>
    <path class="cls-8" d="m417.2,64.72v346.63c0,11.82-9.58,21.4-21.4,21.4h29.3c11.82,0,21.4-9.58,21.4-21.4V94.02l-29.3-29.3Z"/>
    <path class="cls-4" d="m446.5,94.02h-65.3c-11.82,0-21.4-9.58-21.4-21.4V7.32l86.69,86.69Z"/>
  </g>
  <g id="_22_documents" data-name="22 documents">
    <path class="cls-5" d="m186.51,173.08h195.46c4.04,0,7.32-3.28,7.32-7.32s-3.28-7.32-7.32-7.32h-195.46c-4.04,0-7.32,3.28-7.32,7.32s3.28,7.32,7.32,7.32h0Z"/>
    <path class="cls-5" d="m186.51,227.36h195.46c4.04,0,7.32-3.28,7.32-7.32s-3.28-7.32-7.32-7.32h-195.46c-4.04,0-7.32,3.28-7.32,7.32s3.28,7.32,7.32,7.32h0Z"/>
    <path class="cls-5" d="m186.51,281.65h195.46c4.04,0,7.32-3.28,7.32-7.32s-3.28-7.32-7.32-7.32h-195.46c-4.04,0-7.32,3.28-7.32,7.32s3.28,7.32,7.32,7.32h0Z"/>
    <path class="cls-5" d="m453.81,93.77c-.06-1.84-.83-3.63-2.13-4.93L364.98,2.15c-1.36-1.36-3.26-2.15-5.18-2.15h-216.42c-15.84,0-28.72,12.89-28.72,28.72v5.52h-5.52c-14.81,0-27.04,11.27-28.56,25.68h-5.68c-15.84,0-28.72,12.89-28.72,28.72v246.2c0,4.04,3.28,7.32,7.32,7.32s7.32-3.28,7.32-7.32V88.64c0-7.76,6.31-14.08,14.08-14.08h5.52v371.03c0,15.84,12.89,28.72,28.72,28.72h186.32c4.04,0,7.32-3.28,7.32-7.32s-3.28-7.32-7.32-7.32H109.14c-7.76,0-14.08-6.31-14.08-14.08V62.96c0-7.76,6.31-14.08,14.08-14.08h5.52v39.9c0,4.04,3.28,7.32,7.32,7.32s7.32-3.28,7.32-7.32V28.72c0-7.76,6.31-14.08,14.08-14.08h209.1v57.97c0,15.84,12.88,28.72,28.72,28.72h57.97v310.01c0,7.76-6.31,14.08-14.08,14.08H143.38c-7.76,0-14.08-6.31-14.08-14.08V120.7c0-4.04-3.28-7.32-7.32-7.32s-7.32,3.28-7.32,7.32v290.65c0,15.84,12.89,28.72,28.72,28.72h261.55v5.52c0,7.76-6.31,14.08-14.08,14.08h-63.47c-4.04,0-7.32,3.28-7.32,7.32s3.28,7.32,7.32,7.32h42.97c-1.4,6.3-7.02,11.03-13.74,11.03H74.9c-7.76,0-14.08-6.31-14.08-14.08v-104.51c0-4.04-3.28-7.32-7.32-7.32s-7.32,3.28-7.32,7.32v104.51c0,15.84,12.89,28.72,28.72,28.72h281.72c14.81,0,27.04-11.27,28.56-25.68h5.68c15.84,0,28.72-12.89,28.72-28.72v-5.52h5.52c15.84,0,28.72-12.89,28.72-28.72V94.02c0-.08-.01-.16-.01-.25h0Zm-72.61-7.08c-7.76,0-14.07-6.31-14.07-14.07V25.01l61.69,61.69h-47.62Z"/>
  </g>
</svg>