<?xml version="1.0" encoding="UTF-8"?>
<svg id="Capa_1" data-name="Capa 1" xmlns="http://www.w3.org/2000/svg" viewBox="0 0 500 500">
  <defs>
    <style>
      .cls-1 {
        fill: #a29aa5;
      }

      .cls-1, .cls-2, .cls-3, .cls-4, .cls-5, .cls-6 {
        stroke-width: 0px;
      }

      .cls-3 {
        fill: #77d192;
      }

      .cls-4 {
        fill: #e3e0e4;
      }

      .cls-5 {
        fill: #80e29e;
      }

      .cls-6 {
        fill: #f9f8f9;
      }
    </style>
  </defs>
  <g>
    <g>
      <path class="cls-6" d="m384.26,148v257.77c0,21.57-17.49,39.06-39.06,39.06H76.64c-21.57,0-39.06-17.49-39.06-39.06V46.39c0-21.57,17.49-39.06,39.06-39.06h167.18c7.78,0,15.24,3.1,20.74,8.6l111.14,111.37c5.48,5.49,8.56,12.94,8.56,20.69h0Z"/>
      <path class="cls-6" d="m384.26,148v7.41h-101.88c-25.33,0-45.94-20.63-45.94-46V7.32h7.38c7.77,0,15.23,3.1,20.73,8.6l111.14,111.38c5.48,5.49,8.55,12.93,8.55,20.69Z"/>
      <path class="cls-4" d="m105.94,444.82h-29.3c-21.57,0-39.06-17.49-39.06-39.06V46.39c0-21.57,17.49-39.06,39.06-39.06h29.3c-21.57,0-39.06,17.49-39.06,39.06v359.38c0,21.57,17.49,39.06,39.06,39.06Z"/>
      <g>
        <path class="cls-1" d="m214.44,153.81h-120.8c-4.04,0-7.32-3.28-7.32-7.32s3.28-7.32,7.32-7.32h120.8c4.04,0,7.32,3.28,7.32,7.32s-3.28,7.32-7.32,7.32Z"/>
        <path class="cls-1" d="m214.44,329.59h-120.8c-4.04,0-7.32-3.28-7.32-7.32s3.28-7.32,7.32-7.32h120.8c4.04,0,7.32,3.28,7.32,7.32s-3.28,7.32-7.32,7.32Z"/>
        <path class="cls-1" d="m310.44,212.4H91.69c-4.04,0-7.32-3.28-7.32-7.32s3.28-7.32,7.32-7.32h218.75c4.04,0,7.32,3.28,7.32,7.32s-3.28,7.32-7.32,7.32Z"/>
        <path class="cls-1" d="m310.44,271H91.69c-4.04,0-7.32-3.28-7.32-7.32s3.28-7.32,7.32-7.32h218.75c4.04,0,7.32,3.28,7.32,7.32s-3.28,7.32-7.32,7.32Z"/>
      </g>
      <circle class="cls-5" cx="363.17" cy="393.55" r="99.12"/>
      <path class="cls-3" d="m442.34,453.19c-18.09,23.98-46.82,39.48-79.17,39.48-54.75,0-99.12-44.38-99.12-99.12,0-32.35,15.5-61.08,39.48-79.18-12.53,16.59-19.95,37.26-19.95,59.65,0,54.75,44.38,99.12,99.12,99.12,22.39,0,43.05-7.42,59.64-19.95Z"/>
      <path class="cls-4" d="m384.26,148v17.18h-101.88c-30.71,0-55.7-25.02-55.7-55.76V7.32h17.15c7.77,0,15.23,3.1,20.73,8.6l111.14,111.38c5.48,5.49,8.55,12.93,8.55,20.69Z"/>
      <path class="cls-1" d="m381.63,135.88h-99.25c-14.58,0-26.41-11.86-26.41-26.46V9.98c3.16,1.43,6.08,3.44,8.58,5.95l111.14,111.38c2.49,2.5,4.5,5.41,5.93,8.57Z"/>
    </g>
    <path class="cls-6" d="m363.26,447.75c-8.09,0-14.65-6.56-14.65-14.65v-24.9h-24.9c-8.09,0-14.65-6.56-14.65-14.65s6.56-14.65,14.65-14.65h24.9v-24.9c0-8.09,6.56-14.65,14.65-14.65s14.65,6.56,14.65,14.65v24.9h24.9c8.09,0,14.65,6.56,14.65,14.65s-6.56,14.65-14.65,14.65h-24.9v24.9c0,8.09-6.56,14.65-14.65,14.65Z"/>
  </g>
  <g>
    <path class="cls-2" d="m214.82,14.65h29.05c1.65,0,3.26.2,4.83.55v94.21c0,18.63,15.13,33.79,33.73,33.79h94.01c.35,1.56.54,3.16.54,4.79v49.27c0,4.04,3.28,7.32,7.32,7.32s7.32-3.28,7.32-7.32v-49.27c0-9.77-3.8-18.95-10.7-25.87L269.79,10.75C262.87,3.82,253.66,0,243.87,0h-29.05C210.78,0,207.5,3.28,207.5,7.32s3.28,7.32,7.33,7.32h0Zm151.82,113.91h-84.22c-10.52,0-19.08-8.59-19.08-19.14V25.03l103.3,103.52Z"/>
    <path class="cls-2" d="m37.62,109.86c4.04,0,7.32-3.28,7.32-7.32v-56.15c0-17.5,14.24-31.74,31.74-31.74h103.96c4.04,0,7.32-3.28,7.32-7.32s-3.28-7.32-7.32-7.32h-103.96C51.11,0,30.3,20.81,30.3,46.39v56.15c0,4.04,3.28,7.32,7.32,7.32h0Z"/>
    <path class="cls-2" d="m93.68,153.81h120.8c4.04,0,7.32-3.28,7.32-7.32s-3.28-7.32-7.32-7.32h-120.8c-4.04,0-7.32,3.28-7.32,7.32s3.28,7.32,7.32,7.32Z"/>
    <path class="cls-2" d="m93.68,314.94c-4.04,0-7.32,3.28-7.32,7.32s3.28,7.32,7.32,7.32h120.8c4.04,0,7.32-3.28,7.32-7.32s-3.28-7.32-7.32-7.32h-120.8Z"/>
    <path class="cls-2" d="m310.48,197.75H91.73c-4.04,0-7.32,3.28-7.32,7.32s3.28,7.32,7.32,7.32h218.75c4.04,0,7.32-3.28,7.32-7.32s-3.28-7.32-7.32-7.32Z"/>
    <path class="cls-2" d="m317.8,263.67c0-4.05-3.28-7.32-7.32-7.32H91.73c-4.04,0-7.32,3.28-7.32,7.32s3.28,7.32,7.32,7.32h218.75c4.05,0,7.32-3.28,7.32-7.32Z"/>
    <path class="cls-2" d="m391.62,290.95v-59.51c0-4.04-3.28-7.32-7.32-7.32s-7.32,3.28-7.32,7.32v56.55c-4.49-.58-9.07-.88-13.72-.88-13.98,0-27.56,2.67-40.39,7.93-3.74,1.54-5.53,5.81-4,9.56,1.54,3.74,5.81,5.53,9.56,4,11.05-4.54,22.77-6.83,34.83-6.83,6.71,0,13.24.73,19.54,2.1.01,0,.02,0,.03,0,41.24,9,72.22,45.79,72.22,89.69,0,50.62-41.18,91.8-91.8,91.8s-91.8-41.18-91.8-91.8c0-25.88,11.01-50.68,30.2-68.07,3-2.71,3.23-7.35.51-10.35-2.71-3-7.35-3.23-10.35-.51-22.25,20.15-35.02,48.92-35.02,78.92,0,15.66,3.4,30.54,9.5,43.95H76.68c-17.5,0-31.74-14.24-31.74-31.74V136.72c0-4.04-3.28-7.32-7.32-7.32s-7.32,3.28-7.32,7.32v269.04c0,25.58,20.81,46.39,46.39,46.39h197.75c19.07,28.81,51.76,47.85,88.82,47.85,58.69,0,106.45-47.75,106.45-106.45,0-48.87-33.11-90.15-78.08-102.6h0Z"/>
    <path class="cls-2" d="m363.26,332.03c-12.12,0-21.97,9.86-21.97,21.97v17.58h-17.58c-12.12,0-21.97,9.86-21.97,21.97s9.86,21.97,21.97,21.97h17.58v17.58c0,12.12,9.86,21.97,21.97,21.97s21.97-9.86,21.97-21.97v-17.58h17.58c12.12,0,21.97-9.86,21.97-21.97s-9.86-21.97-21.97-21.97h-17.58v-17.58c0-12.12-9.86-21.97-21.97-21.97Zm39.55,54.2c4.04,0,7.32,3.29,7.32,7.32s-3.29,7.32-7.32,7.32h-24.9c-4.04,0-7.32,3.28-7.32,7.32v24.9c0,4.04-3.29,7.32-7.32,7.32s-7.32-3.29-7.32-7.32v-24.9c0-4.05-3.28-7.32-7.32-7.32h-24.9c-4.04,0-7.32-3.29-7.32-7.32s3.29-7.32,7.32-7.32h24.9c4.04,0,7.32-3.28,7.32-7.32v-24.9c0-4.04,3.29-7.32,7.32-7.32s7.32,3.29,7.32,7.32v24.9c0,4.05,3.28,7.32,7.32,7.32h24.9Z"/>
  </g>
</svg>