<?xml version="1.0" encoding="UTF-8"?>
<svg id="Capa_1" data-name="Capa 1" xmlns="http://www.w3.org/2000/svg" viewBox="0 0 500 500">
  <defs>
    <style>
      .cls-1 {
        fill: #e5faff;
      }

      .cls-1, .cls-2, .cls-3, .cls-4, .cls-5, .cls-6, .cls-7, .cls-8, .cls-9 {
        stroke-width: 0px;
      }

      .cls-3 {
        fill: #7587b3;
      }

      .cls-4 {
        fill: #636da4;
      }

      .cls-5 {
        fill: #87a1c1;
      }

      .cls-6 {
        fill: #fff;
      }

      .cls-7 {
        fill: #9abbd0;
      }

      .cls-8 {
        fill: #ffb464;
      }

      .cls-9 {
        fill: #ff985f;
      }
    </style>
  </defs>
  <path class="cls-7" d="m331.54,21.97v87.89L7.32,65.92V21.97h324.22Z"/>
  <path class="cls-4" d="m463.38,7.32h-43.95v117.19l73.24-29.3v-58.59c0-16.18-13.12-29.3-29.3-29.3Z"/>
  <path class="cls-3" d="m434.08,7.32h-154.79c-16.18,0-29.3,13.12-29.3,29.3v29.3H7.32v29.3l29.3,29.3h426.76V36.62c0-16.18-13.12-29.3-29.3-29.3Z"/>
  <path class="cls-5" d="m463.38,95.21l-102.54,184.08,102.54,184.08h29.3V95.21h-29.3Z"/>
  <path class="cls-7" d="m463.38,95.21H7.32v368.16h456.05v-29.3l-102.54-154.79,102.54-154.79v-29.3Z"/>
  <path class="cls-1" d="m463.38,434.08h-29.3l-73.24-154.79,73.24-154.79h29.3v309.57Z"/>
  <path class="cls-6" d="m36.62,124.51h397.46v309.57H36.62V124.51Z"/>
  <path class="cls-9" d="m359.86,315.92c0-12.13-9.84-21.97-21.97-21.97s-21.97,9.84-21.97,21.97l-21.97,36.62,65.92-36.62Z"/>
  <path class="cls-8" d="m315.92,330.57v-36.62c0-12.13-9.84-21.97-21.97-21.97s-21.97,9.84-21.97,21.97l-21.97,36.62h65.92Z"/>
  <path class="cls-9" d="m271.97,330.57v-51.27c0-12.13-9.84-21.97-21.97-21.97s-21.97,9.84-21.97,21.97l-21.97,51.27h65.92Z"/>
  <path class="cls-8" d="m206.05,153.81c-12.13,0-21.97,9.84-21.97,21.97v140.14l-14.65,51.27h58.59v-191.41c0-12.13-9.84-21.97-21.97-21.97Z"/>
  <path class="cls-9" d="m140.14,367.19v15.63c0,60.68,49.19,109.86,109.86,109.86s109.86-49.19,109.86-109.86v-15.63h-219.73Z"/>
  <path class="cls-8" d="m184.08,315.92l-43.95,51.27c0,53.12,49.19,96.19,109.86,96.19s109.86-43.07,109.86-96.19v-51.27h-175.78Z"/>
  <path class="cls-9" d="m175.55,278.1c-6.55-13.72-24.66-16.88-35.41-6.13-6.66,6.66-8.17,16.75-4.16,25.27,2.67,5.67,4.16,12,4.16,18.68v51.27h29.3c8.09,0,14.65-6.56,14.65-14.65v-36.62c0-13.54-3.06-26.36-8.53-37.82h0Z"/>
  <path class="cls-2" d="m463.38,0h-184.08C267.34,0,256.71,5.76,250.02,14.65H7.32c-4.04,0-7.32,3.28-7.32,7.32v441.41c0,4.05,3.28,7.32,7.32,7.32h165.25c20.66,18.22,47.77,29.3,77.42,29.3s56.76-11.07,77.42-29.3h165.25c4.04,0,7.32-3.28,7.32-7.32V36.62C500,16.43,483.57,0,463.38,0h0Zm-219.97,29.3c-.48,2.37-.74,4.82-.74,7.32v21.97H65.92c-4.04,0-7.32,3.28-7.32,7.32s3.28,7.32,7.32,7.32h184.08c4.04,0,7.32-3.28,7.32-7.32v-29.3c0-12.12,9.86-21.97,21.97-21.97h184.08c12.12,0,21.97,9.86,21.97,21.97v51.27H14.65v-14.65h21.97c4.04,0,7.32-3.28,7.32-7.32s-3.28-7.32-7.32-7.32H14.65v-29.3h228.76Zm-95.95,353.52v-66.89c0-7.62-1.63-14.95-4.85-21.8-2.77-5.89-1.71-12.55,2.71-16.97,3.4-3.4,8.08-4.89,12.82-4.08,4.77.82,8.71,3.8,10.8,8.19,5.19,10.86,7.81,22.52,7.81,34.66v36.62c0,4.04-3.29,7.32-7.32,7.32s-7.32,3.28-7.32,7.32,3.28,7.32,7.32,7.32c12.12,0,21.97-9.86,21.97-21.97v-176.76c0-8.08,6.57-14.65,14.65-14.65s14.65,6.57,14.65,14.65v140.14c0,4.05,3.28,7.32,7.32,7.32s7.32-3.28,7.32-7.32v-36.62c0-8.08,6.57-14.65,14.65-14.65s14.65,6.57,14.65,14.65v36.62c0,4.05,3.28,7.32,7.32,7.32s7.32-3.28,7.32-7.32v-21.97c0-8.08,6.57-14.65,14.65-14.65s14.65,6.57,14.65,14.65v21.97c0,4.05,3.28,7.32,7.32,7.32s7.32-3.28,7.32-7.32c0-8.08,6.57-14.65,14.65-14.65s14.65,6.57,14.65,14.65v66.89c0,56.54-46,102.54-102.54,102.54s-102.54-46-102.54-102.54Zm193.95,73.24c3.7-4.61,7.07-9.5,10.05-14.65h111.92c4.04,0,7.32-3.28,7.32-7.32V124.51c0-4.05-3.28-7.32-7.32-7.32H36.62c-4.04,0-7.32,3.28-7.32,7.32v309.57c0,4.05,3.28,7.32,7.32,7.32h29.3c4.04,0,7.32-3.28,7.32-7.32s-3.28-7.32-7.32-7.32h-21.97V131.84h412.11v294.92h-97.43c5.51-13.58,8.56-28.41,8.56-43.95v-66.89c0-16.15-13.14-29.3-29.3-29.3-5.41,0-10.48,1.48-14.84,4.05-1.63-14.62-14.06-26.02-29.11-26.02-6.03,0-11.64,1.83-16.3,4.97-4.01-11.41-14.88-19.61-27.65-19.61-5.33,0-10.34,1.44-14.65,3.94v-78.16c0-16.15-13.14-29.3-29.3-29.3s-29.3,13.14-29.3,29.3v91.41c-4.29-4.44-9.92-7.49-16.14-8.55-9.49-1.63-18.84,1.34-25.65,8.15-8.71,8.71-10.96,22.2-5.61,33.57,2.3,4.88,3.46,10.12,3.46,15.56v66.89c0,15.53,3.04,30.37,8.56,43.95h-46.16c-4.04,0-7.32,3.28-7.32,7.32s3.28,7.32,7.32,7.32h53.33c2.98,5.14,6.35,10.04,10.05,14.65H14.65V102.54h470.7v353.52h-143.94Z"/>
  <path class="cls-2" d="m433.19,66.81c1.43,1.43,3.3,2.14,5.18,2.14s3.75-.71,5.18-2.14l5.18-5.18,5.18,5.18c1.43,1.43,3.3,2.14,5.18,2.14s3.75-.71,5.18-2.14c2.86-2.86,2.86-7.5,0-10.36l-5.18-5.18,5.18-5.18c2.86-2.86,2.86-7.5,0-10.36-2.86-2.86-7.5-2.86-10.36,0l-5.18,5.18-5.18-5.18c-2.86-2.86-7.5-2.86-10.36,0-2.86,2.86-2.86,7.5,0,10.36l5.18,5.18-5.18,5.18c-2.86,2.86-2.86,7.5,0,10.36h0Z"/>
</svg>