<?xml version="1.0" encoding="UTF-8"?>
<svg id="Capa_1" data-name="Capa 1" xmlns="http://www.w3.org/2000/svg" viewBox="0 0 500 500">
  <defs>
    <style>
      .cls-1 {
        fill: #e9edf1;
      }

      .cls-1, .cls-2, .cls-3, .cls-4, .cls-5, .cls-6, .cls-7, .cls-8, .cls-9 {
        stroke-width: 0px;
      }

      .cls-3 {
        fill: #dce6eb;
      }

      .cls-4 {
        fill: #ff8086;
      }

      .cls-5 {
        fill: #9ad8a7;
      }

      .cls-6 {
        fill: #5595a2;
      }

      .cls-7 {
        fill: #b3e59f;
      }

      .cls-8 {
        fill: #488089;
      }

      .cls-9 {
        fill: #e5646e;
      }
    </style>
  </defs>
  <g>
    <path class="cls-1" d="m444.07,58.29c-7.97-1.41-12.33,6.87-13.74,14.84l-35.33,198.3,19.05-1.83,9.52-10.65,32.39-183.69c1.4-7.97-3.92-15.56-11.88-16.97h0Z"/>
    <path class="cls-3" d="m445.22,58.54c-.38-.1-.76-.19-1.15-.25-7.97-1.41-15.57,3.92-16.97,11.88l-32.39,183.69h0l-2.54,14.42,11.07,12.29,17.78-7.2,2.55-14.42-9.86-1.74c-2.12-.38-3.54-2.4-3.17-4.53l33.64-190.73c.21-1.2.57-2.35,1.04-3.42h0Z"/>
    <path class="cls-6" d="m421.02,273.38l-21.39-3.77-4.63,1.83c-2.66-.47-5.19,1.3-5.66,3.96l-7.92,25.71,31.53,6.78,9.48-14.42,2.54-14.43c.47-2.66-1.31-5.19-3.96-5.66h0Z"/>
    <path class="cls-8" d="m400.14,289.53c-2.66-.47-4.43-3-3.96-5.66l2.05-11.62c.19-1.04.69-1.95,1.4-2.65l-7.45-1.32c-2.66-.47-5.19,1.3-5.66,3.96l-5.09,28.85,18.65,12.39,19.81-5.6,2.54-14.42-22.29-3.93Z"/>
    <path class="cls-1" d="m56.47,57.09c-7.97,1.41-10.52,11.06-9.11,19.03l39.16,194.83,21.86-3.86-34.93-198.12c-1.4-7.97-9-13.29-16.97-11.88Z"/>
    <path class="cls-3" d="m95.98,254.4c-2.13.38-4.15-1.04-4.53-3.17L57.2,56.99c-.24.03-.49.06-.73.11-7.97,1.41-13.28,9-11.88,16.96l32.4,183.69h0l2.55,14.43,14.04,6.73,14.81-11.82-2.55-14.43-9.84,1.74Z"/>
    <path class="cls-6" d="m108.37,267.09l-21.86,3.85-2.62,5.14c-2.66.47-4.43,3-3.96,5.66l.71,24.94,32.7-6.78,3.22-14.43-2.54-14.42c-.47-2.66-3-4.43-5.66-3.96Z"/>
    <path class="cls-8" d="m119.11,299.91l-2.55-14.43-22.92,4.04c-2.13.38-4.15-1.04-4.53-3.17l-2.54-14.4c-.06-.34-.08-.67-.07-1l-6.99,1.23c-2.66.46-4.43,3-3.96,5.65l2.54,14.42h0s2.55,14.42,2.55,14.42l23.47,9,14.99-15.78Z"/>
    <path class="cls-6" d="m422.3,308.31l-28.91-5.1-10.95,8.65c-2.66-.47-5.19,1.3-5.66,3.96l-16.14,60.95,38.24,6.74,19.97-27.56,7.4-41.99c.47-2.66-1.3-5.19-3.96-5.66h0Z"/>
    <path class="cls-6" d="m121.52,299.48l-29.12,5.14-6.5,8.24c-2.66.47-4.43,3-3.96,5.66l5.07,66.38,47.79-3.92,1.65-25.02-9.26-52.51c-.47-2.66-3-4.43-5.66-3.96h0Z"/>
    <g>
      <path class="cls-8" d="m136.44,355.95h-30.91c-2.37,0-4.4-1.7-4.81-4.04l-8.33-47.3-14.15,2.5c-2.66.47-4.43,3-3.96,5.65l12.71,72.13,18.95-3.34,33.96-5.99-3.46-19.62Z"/>
      <path class="cls-8" d="m389.66,355.95c-3.04,0-5.34-2.74-4.81-5.73l8.04-45.59c.09-.52.25-1,.5-1.43l-14.37-2.53c-2.66-.47-5.2,1.3-5.66,3.96l-12.71,72.13,52.9,9.33,5.31-30.14h-29.19Z"/>
    </g>
    <path class="cls-6" d="m453.74,488.69l-406.94-1.1c-2.7,0-4.88-2.19-4.88-4.88l-5.29-19.32,204.38-9.1,222.38,9.1v16.6l-4.76,3.83c0,2.7-2.19,4.88-4.88,4.88h0Z"/>
    <path class="cls-8" d="m463.38,479.98v7.81c0,2.71-2.19,4.88-4.88,4.88H41.5c-2.7,0-4.88-2.18-4.88-4.88v-24.41l6.95-9.09,5.74,9.09v11.72c0,2.71,2.19,4.88,4.88,4.88h409.18Z"/>
    <path class="cls-6" d="m463.38,460.26l-430.82-2.99c-8.09,0-14.65-6.56-14.65-14.65l-3.8-46.19c0-8.09-.23-20.95,7.86-20.95h456.05c8.09,0,14.65,6.56,14.65,14.65v58.59c0,8.09-21.21,11.54-29.3,11.54Z"/>
    <path class="cls-8" d="m492.68,445.8v2.93c0,8.09-6.56,14.65-14.65,14.65H21.97c-8.09,0-14.65-6.56-14.65-14.65v-58.59c0-8.09,6.56-14.65,14.65-14.65h2.93v63.48c0,3.78,3.06,6.84,6.84,6.84h460.94Z"/>
    <path class="cls-4" d="m65.92,419.43c0-8.09-6.56-14.65-14.65-14.65-1.48,0-2.9.22-4.25.63-6.02,1.82-2.33,7.72-2.33,14.33,0,8.09-1.83,11.43,6.26,11.43,6.61,0,12.51-1.47,14.34-7.49.41-1.35.63-2.78.63-4.26Z"/>
    <path class="cls-9" d="m65.28,423.69c-1.82,6.02-7.41,10.39-14.01,10.39-8.09,0-14.65-6.56-14.65-14.65,0-6.61,4.38-12.2,10.4-14.02-.41,1.35-.63,2.77-.63,4.26,0,8.09,6.56,14.65,14.65,14.65,1.47,0,2.9-.21,4.25-.63Z"/>
    <path class="cls-7" d="m124.51,419.43c0-8.09-6.56-14.65-14.65-14.65-1.48,0-2.9.22-4.25.63-6.02,1.82-2.33,7.72-2.33,14.33,0,8.09-1.83,11.43,6.26,11.43,6.61,0,12.51-1.47,14.34-7.49.41-1.35.63-2.78.63-4.26Z"/>
    <path class="cls-5" d="m123.88,423.69c-1.82,6.02-7.41,10.39-14.01,10.39-8.09,0-14.65-6.56-14.65-14.65,0-6.61,4.38-12.2,10.4-14.02-.41,1.35-.63,2.77-.63,4.26,0,8.09,6.56,14.65,14.65,14.65,1.47,0,2.9-.21,4.25-.63Z"/>
    <path class="cls-7" d="m346.19,419.43c0-8.09-6.56-14.65-14.65-14.65-1.48,0-2.9.22-4.25.63-6.02,1.82-2.33,7.72-2.33,14.33,0,8.09-1.83,11.43,6.26,11.43,6.61,0,12.51-1.47,14.34-7.49.41-1.35.63-2.78.63-4.26Z"/>
    <path class="cls-5" d="m345.56,423.69c-1.82,6.02-7.41,10.39-14.01,10.39-8.09,0-14.65-6.56-14.65-14.65,0-6.61,4.38-12.2,10.4-14.02-.41,1.35-.63,2.77-.63,4.26,0,8.09,6.56,14.65,14.65,14.65,1.47,0,2.9-.21,4.25-.63Z"/>
    <path class="cls-7" d="m404.79,419.43c0-8.09-6.56-14.65-14.65-14.65-1.48,0-2.9.22-4.25.63-6.02,1.82-2.33,7.72-2.33,14.33,0,8.09-1.83,11.43,6.26,11.43,6.61,0,12.51-1.47,14.34-7.49.41-1.35.63-2.78.63-4.26Z"/>
    <path class="cls-5" d="m404.15,423.69c-1.82,6.02-7.41,10.39-14.01,10.39-8.09,0-14.65-6.56-14.65-14.65,0-6.61,4.38-12.2,10.4-14.02-.41,1.35-.63,2.77-.63,4.26,0,8.09,6.56,14.65,14.65,14.65,1.47,0,2.9-.21,4.25-.63Z"/>
    <path class="cls-7" d="m463.38,419.43c0-8.09-6.56-14.65-14.65-14.65-1.48,0-2.9.22-4.25.63-6.02,1.82-2.33,7.72-2.33,14.33,0,8.09-1.83,11.43,6.26,11.43,6.61,0,12.51-1.47,14.34-7.49.41-1.35.63-2.78.63-4.26Z"/>
    <path class="cls-5" d="m462.74,423.69c-1.82,6.02-7.41,10.39-14.01,10.39-8.09,0-14.65-6.56-14.65-14.65,0-6.61,4.38-12.2,10.4-14.02-.41,1.35-.63,2.77-.63,4.26,0,8.09,6.56,14.65,14.65,14.65,1.47,0,2.9-.21,4.25-.63Z"/>
    <path class="cls-7" d="m269.53,226.26c0-10.79-8.74-19.53-19.53-19.53-2.63,0-5.14.52-7.43,1.46-7.1,2.92-8.88,9.71-8.88,17.86,0,10.79,5.52,16.46,16.31,16.46,8.02,0,14.91-1.56,17.92-8.47,1.04-2.38,1.61-5.02,1.61-7.78Z"/>
    <path class="cls-5" d="m267.92,234.04c-3.01,6.91-9.9,11.75-17.92,11.75-10.79,0-19.53-8.74-19.53-19.53,0-8.61,5.58-15.93,13.33-18.53-1.04,2.38-1.61,5.02-1.61,7.78,0,10.79,8.74,19.53,19.53,19.53,2.17,0,4.26-.35,6.2-1.01Z"/>
    <path class="cls-7" d="m298.07,187.22c-2.61,0-5.25-.7-7.64-2.16-25.04-15.35-54.43-16.09-79.48-.75-6.69,4.1-16.93,6.64-21.3.23-.14-.2-.27-.41-.4-.62-4.23-6.9-2.06-15.92,4.84-20.14,34.49-21.13,77.33-21.13,111.81,0,6.9,4.23,9.06,13.25,4.84,20.14-.05.08-.09.15-.14.23-2.78,4.37-7.68,3.07-12.53,3.07h0Z"/>
    <path class="cls-5" d="m310.6,184.15c-2.77,4.37-7.51,6.78-12.35,6.78-2.62,0-5.25-.7-7.65-2.17-25.04-15.34-56.15-15.34-81.19,0-6.7,4.1-15.37,2.2-19.75-4.22,6.13-3.7,12.05-7.29,12.1-7.29.18,0,.33-.05.5-.15,14.44-8.85,30.95-13.53,47.74-13.53s33.3,4.68,47.74,13.53c.17.1.31.15.5.15.06,0,5.37,2.99,12.35,6.89h0Z"/>
    <path class="cls-7" d="m331.17,140.04c-2.61,0-5.25-.7-7.64-2.16-46.67-28.6-97.69-29.35-144.37-.75-6.32,3.88-19.27,10.07-23.83,4.47-.41-.51-.8-1.05-1.15-1.62-4.23-6.9-2.06-15.92,4.84-20.14,27.39-16.78,58.85-25.66,90.97-25.66s63.58,8.87,90.97,25.66c6.9,4.23,9.06,13.25,4.84,20.14-2.76,4.51-9.71.05-14.64.05h0Z"/>
    <path class="cls-5" d="m345.74,140.08c-2.76,4.45-7.55,6.9-12.43,6.9-2.62,0-5.25-.7-7.65-2.17-46.67-28.59-104.66-28.59-151.33,0-6.32,3.88-14.43,2.38-18.99-3.21,2.73-1.98,6.45-4.7,11.35-8.29.19,0,.34-.05.5-.15,25.06-15.35,53.69-23.47,82.81-23.47s57.75,8.12,82.81,23.47c.17.1.31.15.49.15.06,0,5.46,2.95,12.44,6.77h0Z"/>
    <path class="cls-7" d="m365.92,95.26c-2.61,0-5.25-.7-7.64-2.16-68.3-41.85-145.72-44.87-214.02-3.01-6.9,4.23-20.91,12.85-25.14,5.95s-2.06-15.92,4.84-20.14c37.95-23.25,81.53-35.55,126.04-35.55s88.09,12.29,126.04,35.55c6.9,4.23,9.06,13.25,4.84,20.14-.12.19-.24.38-.36.56-2.81,4.15-9.88-1.34-14.6-1.33h0Z"/>
    <path class="cls-5" d="m380.51,96.59c-2.79,4.16-7.41,6.45-12.14,6.45-2.61,0-5.24-.7-7.64-2.17-68.3-41.85-153.16-41.85-221.46,0-6.56,4.02-15.04,2.27-19.49-3.86,5.1-3.27,11.79-7.65,11.86-7.65.18,0,.33-.05.49-.15,35.66-21.86,76.43-33.41,117.88-33.41s82.22,11.55,117.88,33.41c.16.1.31.15.49.15.06,0,6.47,3.86,12.14,7.23Z"/>
  </g>
  <g>
    <path class="cls-2" d="m478.03,368.16h-53.89l9.33-52.93c.57-3.21-.15-6.45-2.02-9.12-.89-1.27-1.99-2.33-3.25-3.17l3.99-22.65c.69-3.92-.59-7.73-3.12-10.44l34.09-193.33c2.1-11.93-5.89-23.35-17.82-25.45-10.61-2.06-23.44,5.47-25.45,17.82l-13.54,76.8c-.7,3.98,1.96,7.78,5.94,8.48,3.98.7,7.78-1.96,8.48-5.94l13.54-76.8c.7-3.98,4.51-6.64,8.48-5.94,3.98.7,6.64,4.51,5.94,8.48l-33.66,190.9-14.43-2.54,14.17-80.35c.7-3.98-1.96-7.78-5.94-8.48-3.98-.7-7.78,1.96-8.48,5.94l-14.6,82.78c-3.3,1.68-5.81,4.82-6.5,8.75l-3.99,22.65c-4.57,1.11-8.29,4.82-9.15,9.74l-11.43,64.8h-76.99c-4.04,0-7.32,3.28-7.32,7.32s3.28,7.32,7.32,7.32h200.29c4.04,0,7.32,3.29,7.32,7.32v58.59c0,4.04-3.29,7.32-7.32,7.32H21.97c-4.04,0-7.32-3.29-7.32-7.32v-58.59c0-4.04,3.29-7.32,7.32-7.32h221.03c4.04,0,7.32-3.28,7.32-7.32s-3.28-7.32-7.32-7.32h-96.98l-11.64-65.99c-.87-4.92-4.58-8.63-9.15-9.74l-3.99-22.65c-.51-2.48-2.51-6.79-6.5-8.75l-34.09-193.32c-1.69-10.67-13.16-20.15-25.45-17.82-10.67,1.69-20.15,13.16-17.82,25.45l34.09,193.33c-2.53,2.71-3.81,6.52-3.12,10.44l3.99,22.65c-3.91,2.61-6.14,7.36-5.27,12.28l9.54,54.12H21.97c-12.12,0-21.97,9.86-21.97,21.97v58.59c0,12.12,9.86,21.97,21.97,21.97h7.32v17.09c0,6.73,5.48,12.21,12.21,12.21h47.4c4.04,0,7.32-3.28,7.32-7.32s-3.28-7.32-7.32-7.32h-44.96v-14.65h412.11v14.65H123.19c-4.04,0-7.32,3.28-7.32,7.32s3.28,7.32,7.32,7.32h335.3c6.73,0,12.21-5.48,12.21-12.21v-17.09h7.32c12.12,0,21.97-9.86,21.97-21.97v-58.59c0-12.12-9.86-21.97-21.97-21.97h0Zm-88.12-73l3.39-19.23,24.04,4.24-3.39,19.23-24.04-4.24Zm-9.76,13.15l38.47,6.78-9.36,53.06h-39.67l10.55-59.85Zm-293.57-10.11l-3.39-19.23,24.04-4.24,3.39,19.23-24.04,4.24ZM53.01,67.32c1.12-1.6,2.8-2.67,4.73-3.01,2.98-.46,7.37,1.11,8.48,5.94l33.66,190.9-14.43,2.54L51.8,72.79c-.34-1.93.09-3.87,1.21-5.47h0Zm28.9,246.58l38.47-6.78,10.76,61.04h-39.66l-9.57-54.26Z"/>
    <path class="cls-2" d="m470.7,419.43c0-12.12-9.86-21.97-21.97-21.97s-21.97,9.86-21.97,21.97,9.86,21.97,21.97,21.97,21.97-9.86,21.97-21.97Zm-29.3,0c0-4.04,3.29-7.32,7.32-7.32s7.32,3.29,7.32,7.32-3.29,7.32-7.32,7.32-7.32-3.29-7.32-7.32Z"/>
    <path class="cls-2" d="m412.11,419.43c0-12.12-9.86-21.97-21.97-21.97s-21.97,9.86-21.97,21.97,9.86,21.97,21.97,21.97,21.97-9.86,21.97-21.97Zm-29.3,0c0-4.04,3.29-7.32,7.32-7.32s7.32,3.29,7.32,7.32-3.29,7.32-7.32,7.32-7.32-3.29-7.32-7.32Z"/>
    <path class="cls-2" d="m353.52,419.43c0-12.12-9.86-21.97-21.97-21.97s-21.97,9.86-21.97,21.97,9.86,21.97,21.97,21.97,21.97-9.86,21.97-21.97Zm-29.3,0c0-4.04,3.29-7.32,7.32-7.32s7.32,3.29,7.32,7.32-3.29,7.32-7.32,7.32-7.32-3.29-7.32-7.32Z"/>
    <path class="cls-2" d="m29.3,419.43c0,12.12,9.86,21.97,21.97,21.97s21.97-9.86,21.97-21.97-9.86-21.97-21.97-21.97-21.97,9.86-21.97,21.97Zm29.3,0c0,4.04-3.29,7.32-7.32,7.32s-7.32-3.29-7.32-7.32,3.29-7.32,7.32-7.32,7.32,3.29,7.32,7.32Z"/>
    <path class="cls-2" d="m87.89,419.43c0,12.12,9.86,21.97,21.97,21.97s21.97-9.86,21.97-21.97-9.86-21.97-21.97-21.97-21.97,9.86-21.97,21.97Zm29.3,0c0,4.04-3.29,7.32-7.32,7.32s-7.32-3.29-7.32-7.32,3.29-7.32,7.32-7.32,7.32,3.29,7.32,7.32Z"/>
    <path class="cls-2" d="m165.53,419.25c0,4.04,3.28,7.32,7.32,7.32h95.7c4.04,0,7.32-3.28,7.32-7.32s-3.28-7.32-7.32-7.32h-95.7c-4.04,0-7.32,3.28-7.32,7.32Z"/>
    <path class="cls-2" d="m250,199.4c-14.81,0-26.86,12.05-26.86,26.86s12.05,26.86,26.86,26.86,26.86-12.05,26.86-26.86-12.05-26.86-26.86-26.86Zm0,39.06c-6.73,0-12.21-5.48-12.21-12.21s5.48-12.21,12.21-12.21,12.21,5.48,12.21,12.21-5.48,12.21-12.21,12.21Z"/>
    <path class="cls-2" d="m316.99,187.75c6.33-10.33,3.08-23.88-7.25-30.22-36.85-22.58-82.62-22.58-119.47,0-10.33,6.33-13.58,19.88-7.25,30.21,5.73,9.48,19.14,13.86,30.22,7.25,22.68-13.9,50.86-13.9,73.55,0,9.04,6.05,24.16,3.13,30.21-7.25Zm-12.49-7.65c-2.2,2.6-5.17,4.88-10.07,2.42-27.4-16.79-61.45-16.79-88.85,0-1.48,1.19-7.34,1.89-10.07-2.42-1.19-1.48-1.89-7.34,2.42-10.07,16.06-9.84,34.07-14.76,52.08-14.76s36.02,4.92,52.08,14.76c2.45,2.42,4.82,3.75,2.42,10.07h0Z"/>
    <path class="cls-2" d="m352.05,143.8c5.69-8.83,3.56-23.92-7.25-30.22-28.54-17.49-61.32-26.74-94.8-26.74s-66.26,9.25-94.8,26.74c-9.57,5.64-13.69,19.44-7.25,30.21,5.73,9.48,19.13,13.86,30.21,7.25,44.31-27.15,99.37-27.15,143.68,0,9.04,6.05,24.16,3.13,30.22-7.25h0Zm-12.49-7.65c-2.2,2.6-5.17,4.88-10.07,2.42-49.03-30.05-109.95-30.05-158.99,0-1.48,1.19-7.34,1.89-10.07-2.42-2.11-3.44-1.03-7.96,2.42-10.07,26.24-16.08,56.37-24.58,87.15-24.58s60.91,8.5,87.15,24.58c3.44,2.11,4.53,6.63,2.42,10.07h0Z"/>
    <path class="cls-2" d="m143.09,107.11c65.94-40.41,147.87-40.41,213.81,0,9.04,6.05,24.16,3.13,30.21-7.25,5.69-8.83,3.56-23.92-7.25-30.22-39.1-23.96-84.01-36.63-129.87-36.63-19.53,0-39.06,2.31-58.04,6.87-3.93.94-6.36,4.9-5.41,8.83.94,3.93,4.9,6.35,8.83,5.41,17.86-4.29,36.24-6.46,54.63-6.46,43.16,0,85.42,11.92,122.21,34.47,2.45,2.42,4.82,3.75,2.42,10.07-2.2,2.6-5.17,4.88-10.07,2.42-70.66-43.3-158.46-43.3-229.12,0-3.44,2.11-7.96,1.03-10.07-2.42-1.19-1.48-1.89-7.34,2.42-10.07,11.42-7,23.52-13.05,35.96-17.99,3.76-1.49,5.6-5.75,4.11-9.51-1.49-3.76-5.75-5.6-9.51-4.11-13.22,5.25-26.07,11.68-38.21,19.11-9.57,5.64-13.69,19.44-7.25,30.21,6.33,10.33,19.88,13.58,30.21,7.25h0Z"/>
  </g>
</svg>