<?xml version="1.0" encoding="UTF-8"?>
<svg id="Capa_1" data-name="Capa 1" xmlns="http://www.w3.org/2000/svg" viewBox="0 0 500 500">
  <defs>
    <style>
      .cls-1 {
        fill: #837683;
      }

      .cls-1, .cls-2, .cls-3, .cls-4, .cls-5, .cls-6, .cls-7, .cls-8, .cls-9, .cls-10, .cls-11 {
        fill-rule: evenodd;
        stroke-width: 0px;
      }

      .cls-2 {
        fill: #b1b1b5;
      }

      .cls-4 {
        fill: #9ec63d;
      }

      .cls-5 {
        fill: #ffc338;
      }

      .cls-6 {
        fill: #685e68;
      }

      .cls-7 {
        fill: #6eaa2e;
      }

      .cls-8 {
        fill: #eceff1;
      }

      .cls-9 {
        fill: #58931f;
      }

      .cls-10 {
        fill: #d1d1d6;
      }

      .cls-11 {
        fill: #fedf30;
      }
    </style>
  </defs>
  <g>
    <g>
      <path class="cls-11" d="m179,122.75h-107.82c-10.28,0-19.05,5.48-22.77,14.23L9.71,228.11c-1.14,2.7-1.65,5.17-1.65,8.06v112.74c0,8.06,6.57,14.63,14.63,14.63h449.73c10.74,0,19.51-8.77,19.51-19.51v-157.96l-106.42-88.63h-196.44c-5.55,0-10.08,4.53-10.08,10.08v15.23h0Z"/>
      <path class="cls-5" d="m179,122.75h-10.08v240.79h293.43c10.74,0,19.51-8.77,19.51-19.51v-166.36l-96.34-80.24h-196.44c-5.55,0-10.08,4.53-10.08,10.08v15.23h0Z"/>
      <path class="cls-8" d="m44.35,223.28l28.39-66.85c.97-2.28,3.09-3.68,5.57-3.68h66.66c2.22,0,4.03,1.81,4.03,4.03v68.08c0,2.22-1.81,4.03-4.03,4.03H48.06c-1.39,0-2.59-.64-3.36-1.81-.77-1.16-.89-2.52-.35-3.8Z"/>
      <path class="cls-10" d="m138.92,152.74h6.05c2.22,0,4.03,1.81,4.03,4.03v68.08c0,2.22-1.81,4.03-4.03,4.03h-6.05v-76.14Z"/>
      <path class="cls-8" d="m32.82,286.99H8.06v41.82h24.76c3.72,0,6.75-3.03,6.75-6.74v-28.33c0-3.72-3.03-6.75-6.75-6.75Z"/>
      <path class="cls-10" d="m8.06,322.39v6.42h24.76c3.72,0,6.75-3.03,6.75-6.74v-28.33c0-3.5-2.68-6.39-6.1-6.71,0,.1,0,.19,0,.29v28.33c0,3.72-3.03,6.74-6.74,6.74H8.06Z"/>
      <path class="cls-4" d="m491.94,344.03v-185.9c0-3.1-1.25-5.76-3.63-7.75l-60.77-50.62c-1.89-1.57-4-2.33-6.45-2.33h-232c-5.55,0-10.08,4.53-10.08,10.08v256.02h293.43c10.74,0,19.51-8.76,19.51-19.51Z"/>
      <path class="cls-7" d="m491.94,344.03v-185.9c0-3.1-1.25-5.76-3.63-7.75l-60.77-50.62c-1.89-1.57-4-2.33-6.45-2.33h-10.08c2.45,0,4.57.76,6.45,2.33l60.77,50.62c2.38,1.98,3.63,4.65,3.63,7.75v185.9c0,10.74-8.77,19.51-19.51,19.51h10.08c10.74,0,19.51-8.76,19.51-19.51Z"/>
      <path class="cls-10" d="m491.94,344.03v-50.98H179v70.49h293.43c10.74,0,19.51-8.77,19.51-19.51Z"/>
      <path class="cls-2" d="m491.94,344.03v-50.98h-10.08v50.98c0,10.74-8.77,19.51-19.51,19.51H179h293.43c10.74,0,19.51-8.76,19.51-19.51Z"/>
      <path class="cls-7" d="m491.94,218.73l-145.63-121.29h74.78c2.45,0,4.57.76,6.45,2.33l60.77,50.62c2.38,1.98,3.63,4.65,3.63,7.75v60.6h0Z"/>
      <path class="cls-9" d="m491.94,218.73l-10.08-8.4v-52.2c0-3.1-1.25-5.76-3.63-7.75l-60.77-50.62c-1.89-1.57-4-2.33-6.45-2.33h10.08c2.45,0,4.57.76,6.45,2.33l60.77,50.62c2.38,1.98,3.63,4.65,3.63,7.75v60.6Z"/>
      <path class="cls-1" d="m414.54,324.52c-21.55,0-39.02,17.47-39.02,39.02s17.47,39.02,39.02,39.02,39.02-17.47,39.02-39.02-17.47-39.02-39.02-39.02Zm-321.01,0c-21.55,0-39.02,17.47-39.02,39.02s17.47,39.02,39.02,39.02,39.02-17.47,39.02-39.02c0-21.55-17.47-39.02-39.02-39.02Zm219.18,0c-21.55,0-39.02,17.47-39.02,39.02s17.47,39.02,39.02,39.02,39.02-17.47,39.02-39.02-17.47-39.02-39.02-39.02Z"/>
      <path class="cls-6" d="m93.53,348.42c8.36,0,15.12,6.76,15.12,15.12s-6.76,15.12-15.12,15.12-15.12-6.76-15.12-15.12,6.76-15.12,15.12-15.12Zm321.01,0c8.36,0,15.12,6.76,15.12,15.12s-6.76,15.12-15.12,15.12-15.12-6.76-15.12-15.12,6.76-15.12,15.12-15.12Zm-101.83,0c8.36,0,15.12,6.76,15.12,15.12s-6.76,15.12-15.12,15.12-15.12-6.76-15.12-15.12,6.76-15.12,15.12-15.12Z"/>
    </g>
    <g>
      <path class="cls-8" d="m351.75,161.18h-100.93l8.8,95.84c.42,4.51,4.25,7.94,8.88,7.94h65.58c4.63,0,8.46-3.43,8.88-7.94l8.8-95.84Z"/>
      <path class="cls-10" d="m351.75,161.18h-4.71l-8.8,95.84c-.42,4.51-4.25,7.94-8.87,7.94h4.71c4.63,0,8.46-3.43,8.88-7.94l8.8-95.84Z"/>
      <path class="cls-10" d="m293.22,141.9v-5.28h16.13v5.28h-16.13Zm32.26,0v-10.03c0-3.09-1.27-5.92-3.32-8l-.05-.05c-2.08-2.06-4.91-3.34-8.01-3.34h-25.62c-3.14,0-5.99,1.28-8.05,3.34s-3.34,4.91-3.34,8.05v10.03h-23.78c-4.76,0-9.64,2.57-9.64,6.45v14.41c0,.67.46,1.25,1.28,1.25h112.66c.82,0,1.28-.58,1.28-1.25v-14.41c0-3.84-4.88-6.45-9.64-6.45h-23.78Z"/>
      <path class="cls-2" d="m293.22,141.9v-5.28h-5.41v5.28h5.41Zm32.26,0v-10.03c0-3.09-1.27-5.92-3.32-8l-.05-.05c-2.08-2.06-4.91-3.34-8.01-3.34h-5.41c3.1,0,5.94,1.28,8.01,3.34l.05.05c2.05,2.07,3.32,4.9,3.32,8v10.03h5.41Zm26.72,22.1h5.41c.82,0,1.28-.58,1.28-1.25v-14.41c0-3.84-4.88-6.45-9.64-6.45h-5.41c4.76,0,9.64,2.61,9.64,6.45v14.41c0,.67-.46,1.25-1.28,1.25Z"/>
    </g>
  </g>
  <path class="cls-3" d="m292.72,232.7c.3,4.45-3.06,8.29-7.5,8.59-.18,0-.36.02-.56.02-4.2,0-7.74-3.26-8.03-7.52l-2.73-40.36c-.3-4.45,3.06-8.29,7.5-8.59,4.44-.3,8.28,3.06,8.59,7.5l2.73,40.36Zm35.95-39.27l-2.73,40.36c-.29,4.26-3.84,7.52-8.04,7.52-.18,0-.36,0-.56-.02-4.44-.3-7.81-4.15-7.5-8.59l2.74-40.36c.3-4.44,4.13-7.81,8.59-7.5,4.44.3,7.8,4.15,7.5,8.59h0Zm-76.94-43.24c.43-.13.98-.23,1.58-.23h95.96c.59,0,1.14.1,1.57.23v5.75h-99.11v-5.74Zm41.48-20.6h16.13v4.24h-16.13v-4.24Zm40.85,127.29c.46,0,.82-.27.85-.62l7.73-84.21h-82.73l7.73,84.21c.03.35.39.61.84.61h65.57Zm-90.36-84.91l7.88,85.77c.8,8.7,8.07,15.27,16.91,15.27h65.57c8.84,0,16.11-6.56,16.91-15.27l7.89-85.77c4.63-.59,8.1-4.43,8.1-9.23v-14.41c0-8.14-7.78-14.51-17.7-14.51h-23.79v-8.98c0-6.28-5.1-11.38-11.38-11.38h-25.62c-6.28,0-11.39,5.1-11.39,11.38v8.98h-23.78c-9.93,0-17.7,6.38-17.7,14.51v14.41c0,4.8,3.48,8.64,8.1,9.23Zm228.72,183.49h-11.51c-3.84-22.14-23.17-39.02-46.38-39.02s-42.54,16.89-46.38,39.02h-9.07c-3.83-22.14-23.17-39.02-46.38-39.02s-42.54,16.89-46.39,39.02h-79.25v-54.36h296.81v42.91c0,6.32-5.13,11.45-11.44,11.45h0Zm-57.89,39.02c17.07,0,30.96-13.89,30.96-30.96s-13.89-30.96-30.96-30.96-30.96,13.89-30.96,30.96c0,17.07,13.89,30.96,30.96,30.96Zm-101.83,0c17.07,0,30.96-13.89,30.96-30.96s-13.88-30.96-30.96-30.96-30.96,13.89-30.96,30.96c0,17.07,13.89,30.96,30.96,30.96Zm-219.18-78.04c-23.2,0-42.54,16.89-46.38,39.02h-24.45c-3.63,0-6.57-2.95-6.57-6.57v-12.02h16.7c8.16,0,14.8-6.65,14.8-14.81v-28.33c0-8.17-6.64-14.81-14.8-14.81h-16.7v-42.76c0-1.79.29-3.22,1.01-4.91l38.7-91.12c2.44-5.75,8.33-9.32,15.34-9.32h99.76v224.66h-31.03c-3.83-22.13-23.16-39.02-46.38-39.02h0Zm0,78.04c17.08,0,30.96-13.89,30.96-30.96s-13.88-30.96-30.96-30.96-30.96,13.89-30.96,30.96,13.89,30.96,30.96,30.96Zm-77.4-99.44v25.69h15.37v-25.69h-15.37ZM187.07,105.5v179.49h296.81v-95.14l-101.27-84.35h-195.54,0Zm296.81,51.69v11.67l-76.06-63.36h14.01l62.05,51.69Zm13.23-9.97l-67.21-55.98c-1.45-1.21-3.27-1.87-5.16-1.87h-245.73c-4.46,0-8.06,3.61-8.06,8.07v17.25h-99.76c-13.6,0-25.17,7.34-30.18,19.15L2.3,224.96c-1.57,3.69-2.3,7.25-2.3,11.21v112.74c0,12.52,10.18,22.7,22.7,22.7h24.45c3.84,22.13,23.18,39.02,46.38,39.02s42.55-16.89,46.38-39.02h126.41c3.84,22.13,23.18,39.02,46.39,39.02s42.55-16.89,46.38-39.02h9.07c3.84,22.13,23.16,39.02,46.38,39.02s42.54-16.89,46.38-39.02h11.51c15.2,0,27.57-12.37,27.57-27.58v-190.62c0-2.39-1.07-4.66-2.9-6.19h0Zm-171.1,216.32c0-7.34-5.95-13.3-13.3-13.3s-13.29,5.95-13.29,13.3,5.95,13.3,13.29,13.3,13.3-5.95,13.3-13.3Zm-219.17,0c0-7.34-5.95-13.3-13.3-13.3s-13.3,5.95-13.3,13.3,5.95,13.3,13.3,13.3,13.3-5.95,13.3-13.3Zm321.01,0c0-7.34-5.95-13.3-13.3-13.3s-13.3,5.95-13.3,13.3,5.95,13.3,13.3,13.3,13.3-5.95,13.3-13.3ZM140.95,220.82v-60.01h-61.3l-25.49,60.01h86.8Zm16.13,8.07v-76.14c0-4.45-3.62-8.06-8.07-8.06h-74.71c-3.24,0-6.15,1.93-7.42,4.91l-32.34,76.14c-1.06,2.49-.8,5.35.69,7.6,1.5,2.26,4.02,3.62,6.74,3.62h107.03c4.45,0,8.07-3.61,8.07-8.07Z"/>
</svg>