<?xml version="1.0" encoding="UTF-8"?>
<svg id="Capa_1" data-name="Capa 1" xmlns="http://www.w3.org/2000/svg" viewBox="0 0 500 500">
  <defs>
    <style>
      .cls-1 {
        fill: #ffb541;
      }

      .cls-1, .cls-2, .cls-3, .cls-4, .cls-5, .cls-6, .cls-7 {
        stroke-width: 0px;
      }

      .cls-3 {
        fill: #f5f5f5;
      }

      .cls-4 {
        fill: #a8d0d5;
      }

      .cls-5 {
        fill: #ff9a00;
      }

      .cls-6 {
        fill: #ffa812;
      }

      .cls-7 {
        fill: #eaeaea;
      }
    </style>
  </defs>
  <g>
    <path class="cls-5" d="m433.62,155.78H66.38c-14.12,0-25.56,11.45-25.56,25.56v167.18h418.37v-167.18c0-14.12-11.44-25.56-25.56-25.56Z"/>
    <g>
      <path class="cls-3" d="m105.47,7.33c-18.01,0-32.61,14.6-32.61,32.61v420.12c0,18.01,14.6,32.61,32.61,32.61h289.06c18.01,0,32.61-14.6,32.61-32.61V107.9c0-6.55-2.6-12.84-7.24-17.47L344.05,14.56c-4.63-4.63-10.92-7.24-17.47-7.24H105.47Z"/>
      <path class="cls-7" d="m419.91,90.43l-50.29-50.29-.18,84.35c-.01,5.29,4.28,9.59,9.57,9.59s9.57,4.29,9.57,9.57v316.4c0,18.01-14.6,32.62-32.61,32.62h38.56c18.01,0,32.61-14.6,32.61-32.61V107.9c0-6.55-2.6-12.84-7.24-17.47h0Z"/>
      <path class="cls-4" d="m419.91,90.43L344.05,14.56c-2.11-2.11-4.57-3.8-7.24-5.01v55.5c0,18.01,14.6,32.62,32.61,32.62h55.5c-1.21-2.67-2.9-5.13-5.01-7.24h0Z"/>
    </g>
    <g>
      <path class="cls-1" d="m187.39,249.53l-6.74-15.26c-4.09-9.26-13.26-15.23-23.38-15.23h-90.89c-14.12,0-25.56,11.45-25.56,25.56v222.51c0,14.12,11.45,25.56,25.56,25.56h367.24c14.12,0,25.56-11.45,25.56-25.56v-176.78c0-14.12-11.45-25.56-25.56-25.56h-222.85c-10.12,0-19.29-5.97-23.38-15.23h0Z"/>
      <g>
        <path class="cls-6" d="m141.75,234.27l6.74,15.26c4.09,9.26,13.26,15.23,23.38,15.23h38.89c-10.12,0-19.29-5.97-23.38-15.23l-6.74-15.26c-4.09-9.26-13.26-15.23-23.38-15.23h-38.89c10.12,0,19.29,5.97,23.38,15.23h0Z"/>
        <path class="cls-6" d="m433.62,264.76h-38.89c14.12,0,25.56,11.45,25.56,25.56v176.78c0,14.12-11.45,25.56-25.56,25.56h38.9c14.12,0,25.56-11.45,25.56-25.56v-176.78c0-14.12-11.44-25.56-25.56-25.56h0Z"/>
      </g>
      <g>
        <path class="cls-2" d="m190.63,61.02h-72.45c-4.05,0-7.33-3.28-7.33-7.33s3.28-7.33,7.33-7.33h72.45c4.05,0,7.33,3.28,7.33,7.33s-3.28,7.33-7.33,7.33Z"/>
        <path class="cls-2" d="m190.63,105.07h-72.45c-4.05,0-7.33-3.28-7.33-7.33s3.28-7.33,7.33-7.33h72.45c4.05,0,7.33,3.28,7.33,7.33s-3.28,7.33-7.33,7.33Z"/>
      </g>
    </g>
  </g>
  <path class="cls-2" d="m434.47,148.47v-40.58c0-8.56-3.33-16.6-9.38-22.65L349.23,9.38c-6.05-6.05-14.09-9.38-22.65-9.38H105.47c-22.02,0-39.94,17.92-39.94,39.94v108.53c-17.74.45-32.04,15.02-32.04,32.87v285.77c0,18.14,14.75,32.89,32.89,32.89h367.24c18.13,0,32.89-14.75,32.89-32.89V181.34c0-17.85-14.3-32.41-32.04-32.87h0Zm-25.01-58.14h-40.04c-13.94,0-25.29-11.34-25.29-25.29V25.01l65.32,65.32ZM65.53,163.15v21.64c0,4.05,3.28,7.33,7.33,7.33s7.33-3.28,7.33-7.33V39.94c0-13.94,11.34-25.29,25.29-25.29h221.11c.99,0,1.96.1,2.91.26v50.14c0,22.02,17.92,39.94,39.94,39.94h50.14c.16.95.26,1.92.26,2.91v122.61c0,4.05,3.28,7.33,7.33,7.33s7.33-3.28,7.33-7.33v-67.37c9.66.45,17.39,8.42,17.39,18.19v81.63c-5.22-3.49-11.5-5.54-18.24-5.54h-222.85c-7.22,0-13.77-4.26-16.68-10.87-3.88-5.68-8.45-34.86-36.83-34.86h-90.89c-6.74,0-13.01,2.04-18.24,5.54v-35.91c0-9.77,7.73-17.75,17.39-18.19h0Zm386.33,303.96c0,10.06-8.18,18.24-18.24,18.24H66.38c-10.06,0-18.24-8.18-18.24-18.24v-222.51c0-10.06,8.18-18.24,18.24-18.24h90.89c17,0,18.84,18.73,23.42,26.13,5.26,11.9,17.07,19.6,30.08,19.6h222.85c10.06,0,18.24,8.18,18.24,18.24v176.78h0Z"/>
</svg>