<?xml version="1.0" encoding="UTF-8"?>
<svg id="Capa_1" data-name="Capa 1" xmlns="http://www.w3.org/2000/svg" viewBox="0 0 500 500">
  <defs>
    <style>
      .cls-1 {
        fill: #eaeffe;
      }

      .cls-1, .cls-2, .cls-3, .cls-4, .cls-5, .cls-6, .cls-7 {
        stroke-width: 0px;
      }

      .cls-2 {
        fill: #f6c9af;
      }

      .cls-3 {
        fill: #d5dcf8;
      }

      .cls-4 {
        fill: #f44a7e;
      }

      .cls-5 {
        fill: #231f20;
      }

      .cls-6 {
        fill: #66aff1;
      }

      .cls-7 {
        fill: #78e7dc;
      }
    </style>
  </defs>
  <path class="cls-5" d="m489.51,342.95c-.1-4.28-1.49-8.06-3.68-11.44V87.59c0-11.54-9.35-21-21-21h-149.48V21.81c0-10.55-8.66-19.31-19.31-19.31H27.45c-10.55,0-19.31,8.66-19.31,19.31v456.39c0,10.65,8.66,19.31,19.31,19.31h268.6c10.65,0,19.31-8.66,19.31-19.31v-80.01h11.94l13.73,18.31,5.67,25.08c.1.4.2.8.4,1.19,6.57,13.14,20.4,21.2,35.03,20.8l69.76-2.19c14.43-.5,27.27-8.96,33.34-22.09,4.08-7.66,7.07-16.12,6.57-24.98-.1.1-2.29-71.35-2.29-71.35h0Zm-24.68-266.01c5.87,0,10.65,4.78,10.65,10.65v20.3H87.46v-20.3c0-5.87,4.78-10.65,10.65-10.65h366.72ZM98.11,398.18h189.88v48.96c.2,2.99-250.19,0-251.28,1-3.38.2.2-417.18-1.09-418.17h69.16c5.17,6.77,10.55,15.62,20.3,15.23h73.34c9.75.6,15.13-8.56,20.3-15.23h69.16v36.62H98.11c-11.54,0-21,9.45-21,21v289.5c0,11.64,9.35,21.1,21,21.1h0Zm206.9,80.01c0,4.98-3.98,8.96-8.96,8.96H27.45c-4.88,0-8.96-3.98-8.96-8.96V21.81c0-4.88,3.98-8.96,8.96-8.96h268.6c4.98,0,8.96,3.98,8.96,8.96v44.78h-6.77V24.79c0-2.89-2.29-5.17-5.17-5.17h-76.83c-1.59,0-3.09.7-4.08,1.99l-8.16,10.45c-1.29,1.69-3.28,2.69-5.57,2.69h-73.34c-2.19,0-4.28-1-5.67-2.79l-8.06-10.35c-1-1.19-2.49-1.99-4.08-1.99H30.44c-2.89,0-5.17,2.29-5.17,5.17v422.35c0,6.27,5.08,11.34,11.44,11.34h250.09c6.27,0,11.44-5.08,11.44-11.34v-48.96h6.77v80.01Zm-206.9-90.36c-5.87,0-10.65-4.78-10.65-10.65V118.24h388.02v204.91c-5.97-2.19-12.84-1.29-18.21,1.99.9-17.12-17.91-29.16-32.34-19.8-1-15.52-18.81-25.68-32.24-17.02,0,0-1-33.74-1-33.84-.8-26.67-42.79-25.78-42,1.29.7,22.69,2.49,83,3.28,106.38-2.39-2.89-22.19-30.55-24.78-31.85-11.94-10.55-32.14-3.18-34.23,12.64-.8,5.57.6,11.34,3.98,15.92l21.69,28.96H98.11Zm379.06,43.99c-3.98,10.95-13.73,19.01-25.68,19.21l-69.76,2.19c-10.55.2-20.3-5.37-25.28-14.63l-5.67-25.48c-.2-1.99-44.58-59.81-44.78-60.41-8.16-12.04,8.66-23.78,17.42-12.34l30.85,41.2c2.89,3.98,9.65,1.59,9.26-3.28l-2.39-77.13-1.39-45.58c0-13.93,20.4-14.63,21.3-.7.9,35.43,2.19,70.96,3.28,106.38,1.19,5.67-2.79,17.61,5.77,18.21,2.89-.1,5.08-2.49,4.98-5.27-.5-16.82-1.09-33.64-1.59-50.55.3-9.85-4.68-27.37,10.15-28.16,5.77-.1,10.45,5.27,10.65,11.05,0-.9.5,17.22.6,17.32l1.49,49.66c.1,2.89,2.59,5.08,5.37,4.98,2.89-.1,5.08-2.49,4.98-5.27l-1.49-49.66c-.3-5.77,4.88-11.05,10.65-11.05s10.55,4.98,10.65,11.05l.6,19.7v.5l.9,28.86c.3,6.77,10.35,6.47,10.35-.3,0,0-.9-28.86-.9-28.96.5-14.43,20.6-14.43,21.4,0l2.19,71.35c.5,5.87-.9,11.64-3.88,17.12h0Z"/>
  <path class="cls-2" d="m481.35,414.7c.5,7.07-2.39,13.93-5.67,20.3-4.38,9.55-13.73,15.72-24.18,16.02l-69.76,2.19c-10.55.2-20.3-5.37-25.28-14.63-.3-.1-5.87-28.76-6.57-27.47l-41.6-55.43-2.29-2.99c-4.68-5.87-1.19-15.43,6.17-16.82,4.08-.8,8.76,1.09,11.25,4.48l30.85,41.2c1.29,1.79,3.68,2.49,5.87,1.79,2.09-.7,3.48-2.79,3.48-5.08l-2.39-77.13-1.39-45.58c-.2-5.08,3.48-9.65,8.46-10.65,6.37-1.29,12.64,3.48,12.84,10.05.3,7.96.5,15.92.7,23.88.6,31.85,2.29,63.79,2.99,95.74.1,2.89,2.49,5.08,5.27,4.98,2.89-.1,5.08-2.49,4.98-5.27-.5-16.82-1.09-33.64-1.59-50.55.5-7.86-2.59-16.72,1.59-23.88,6.17-8.36,19.01-3.38,19.21,6.67.4,11.64,1.69,54.64,2.09,67.07.4,6.77,10.45,6.47,10.35-.3l-1.49-49.66c-.3-5.77,4.88-11.05,10.65-11.05s10.55,4.98,10.65,11.05l.6,19.7v.5l.9,28.86c.3,6.77,10.35,6.47,10.35-.3,0,0-.9-28.86-.9-28.96-.2-6.67,6.47-12.24,13.04-10.65,4.88,1.09,8.26,5.87,8.36,10.65.3-.2,2.49,71.25,2.49,71.25h0Z"/>
  <path class="cls-7" d="m464.83,76.94H98.11c-5.87,0-10.65,4.78-10.65,10.65v20.3h388.02v-20.3c0-5.87-4.78-10.65-10.65-10.65h0Zm-89.27,21.69c-8.06-.1-8.06-12.14,0-12.34,8.06.1,8.06,12.14,0,12.34Zm33.94,0c-8.06-.1-8.06-12.14,0-12.34,8.06.1,8.06,12.14,0,12.34Zm33.94,0c-8.06-.1-8.06-12.14,0-12.34,8.06.1,8.06,12.14,0,12.34Z"/>
  <path class="cls-6" d="m298.24,66.59V24.79c0-2.89-2.29-5.17-5.17-5.17h-76.83c-1.59,0-3.09.7-4.08,1.99l-8.16,10.45c-1.29,1.69-3.28,2.69-5.57,2.69h-73.34c-2.19,0-4.28-1-5.67-2.79l-8.06-10.35c-1-1.19-2.49-1.99-4.08-1.99H30.44c-2.89,0-5.17,2.29-5.17,5.17v422.35c0,6.27,5.08,11.34,11.44,11.34h250.09c6.27,0,11.44-5.08,11.44-11.34v-48.96h6.77v80.01c0,4.98-3.98,8.96-8.96,8.96H27.45c-4.88,0-8.96-3.98-8.96-8.96V21.81c0-4.88,3.98-8.96,8.96-8.96h268.6c4.98,0,8.96,3.98,8.96,8.96v44.78h-6.77Z"/>
  <path class="cls-1" d="m77.11,113.16v264.02c0,11.54,9.35,21,21,21h189.88v48.96c.2,2.99-250.19,0-251.28,1-3.38.2.2-417.18-1.09-418.17h69.16c5.17,6.77,10.55,15.62,20.3,15.23h73.34c9.75.6,15.13-8.56,20.3-15.23h69.16v36.62H98.11c-11.54,0-21,9.45-21,21v25.58q0-.1,0,0Z"/>
  <path class="cls-1" d="m87.46,118.24v258.85c0,5.87,4.78,10.65,10.65,10.65h221.43l-21.69-28.96c-7.07-9.16-4.88-23.29,4.68-29.76,9.16-6.57,22.59-3.88,29.26,5.08l21.1,28.06c-.7-23.69-2.59-83.5-3.28-106.38-.8-27.07,41.2-27.96,42-1.29,0,.1,1,33.84,1,33.84,13.43-8.66,31.15,1.59,32.24,17.02,14.43-9.45,33.24,2.69,32.34,19.8,5.37-3.28,12.24-4.28,18.21-1.99V118.24H87.46Zm144.2,29.95h81.41c6.77.1,6.77,10.25,0,10.35h-81.41c-6.77-.1-6.87-10.25,0-10.35Zm-23.29,189.28c0,11.84-9.75,21.6-21.6,21.6h-59.41c-11.84,0-21.6-9.75-21.6-21.6v-59.41c0-11.94,9.75-21.6,21.6-21.6h59.41c11.84,0,21.6,9.65,21.6,21.6v59.41Zm0-122.41c0,11.94-9.75,21.6-21.6,21.6h-59.41c-11.84,0-21.6-9.65-21.6-21.6v-59.41c0-11.84,9.75-21.6,21.6-21.6h59.41c11.84,0,21.6,9.75,21.6,21.6v59.41Zm63.89,133.55h-40.7c-6.77-.1-6.77-10.25,0-10.35h40.7c6.77,0,6.87,10.35,0,10.35Zm66.58-36.82h-107.18c-6.77-.1-6.77-10.25,0-10.35h107.18c6.67,0,6.77,10.35,0,10.35Zm-112.36-37.02c0-2.89,2.29-5.17,5.17-5.17h81.41c2.89,0,5.17,2.29,5.17,5.17s-2.29,5.17-5.17,5.17h-81.41c-2.89,0-5.17-2.29-5.17-5.17Zm210.78-52.25h-205.6c-6.67-.1-6.87-10.15,0-10.35h205.6c6.67.1,6.87,10.15,0,10.35Zm0-32.04h-205.6c-6.67-.1-6.87-10.15,0-10.35h205.6c6.67.2,6.87,10.25,0,10.35Z"/>
  <path class="cls-5" d="m449.51,92.36c-.1,8.16-12.14,8.16-12.34,0,.2-8.06,12.24-8.06,12.34,0Z"/>
  <path class="cls-5" d="m415.67,92.36c-.1,8.16-12.14,8.16-12.34,0,.1-8.06,12.14-8.06,12.34,0Z"/>
  <path class="cls-5" d="m381.73,92.36c-.1,8.16-12.14,8.16-12.34,0,.2-8.06,12.14-8.06,12.34,0Z"/>
  <path class="cls-5" d="m182.9,161.33c-6.37-6.87-17.12-7.26-23.98-.9l-26.77,24.88c-16.12,15.62,6.27,39.81,23.09,24.88l26.67-24.78c6.97-6.07,7.36-17.42,1-24.08h0Zm-34.63,41.3c-6.67,5.77-15.43-3.68-9.06-9.85l9.65-8.86,9.06,9.85-9.65,8.86Zm26.77-24.78l-9.65,8.86-9.06-9.85,9.65-8.86c6.47-5.87,15.33,3.88,9.06,9.85Z"/>
  <path class="cls-5" d="m186.78,134.06h-59.41c-11.84,0-21.6,9.75-21.6,21.6v59.41c0,11.94,9.75,21.6,21.6,21.6h59.41c11.84,0,21.6-9.65,21.6-21.6v-59.41c0-11.94-9.75-21.6-21.6-21.6Zm11.25,81.01c0,6.17-5.08,11.25-11.25,11.25h-59.41c-6.17,0-11.25-5.08-11.25-11.25v-59.41c0-6.17,5.08-11.25,11.25-11.25h59.41c6.17,0,11.25,5.08,11.25,11.25v59.41Z"/>
  <path class="cls-7" d="m186.78,144.41h-59.41c-6.17,0-11.25,5.08-11.25,11.25v59.41c0,6.17,5.08,11.25,11.25,11.25h59.41c6.17,0,11.25-5.08,11.25-11.25v-59.41c0-6.27-5.08-11.25-11.25-11.25Zm-4.78,41l-26.67,24.78c-3.28,3.09-7.46,4.58-11.54,4.58-15.03.5-22.99-19.51-11.54-29.46l26.77-24.88c16.82-14.83,39.11,9.45,22.99,24.98h0Z"/>
  <path class="cls-3" d="m157.82,193.77l-9.55,8.86c-2.79,2.49-6.97,2.29-9.45-.4-2.59-2.59-2.29-7.07.4-9.45l9.65-8.86,8.96,9.85Z"/>
  <path class="cls-4" d="m177.13,173.17c-.1,1.79-.8,3.48-2.09,4.68l-9.65,8.86-9.06-9.85,9.65-8.86c4.08-3.98,11.54-.5,11.15,5.17h0Z"/>
  <path class="cls-5" d="m182.9,283.84c-6.37-6.87-17.12-7.26-23.98-.9l-26.77,24.78c-16.12,15.62,6.27,39.81,23.09,24.98l26.67-24.78c6.97-6.17,7.36-17.52,1-24.08Zm-34.63,41.2c-6.47,5.97-15.52-3.88-9.06-9.75l9.65-8.86,9.06,9.75-9.65,8.86Zm26.77-24.78l-9.65,8.86-9.06-9.75,9.65-8.86c6.47-5.87,15.33,3.78,9.06,9.75Z"/>
  <path class="cls-5" d="m186.78,256.47h-59.41c-11.84,0-21.6,9.65-21.6,21.6v59.41c0,11.84,9.75,21.6,21.6,21.6h59.41c11.84,0,21.6-9.75,21.6-21.6v-59.41c0-11.94-9.75-21.6-21.6-21.6Zm11.25,81.01c0,6.17-5.08,11.25-11.25,11.25h-59.41c-6.17,0-11.25-5.08-11.25-11.25v-59.41c0-6.17,5.08-11.25,11.25-11.25h59.41c6.17,0,11.25,5.08,11.25,11.25v59.41Z"/>
  <path class="cls-7" d="m186.78,266.82h-59.41c-6.17,0-11.25,5.08-11.25,11.25v59.41c0,6.17,5.08,11.25,11.25,11.25h59.41c6.17,0,11.25-5.08,11.25-11.25v-59.41c0-6.17-5.08-11.25-11.25-11.25Zm-4.78,41l-26.67,24.78c-10.45,10.35-29.56,1.59-28.56-13.14.3-4.58,2.19-8.76,5.47-11.84l26.77-24.78c16.72-14.83,39.11,9.45,22.99,24.98Z"/>
  <path class="cls-3" d="m157.82,316.18l-9.55,8.86c-2.79,2.49-6.97,2.39-9.45-.4-2.59-2.59-2.29-7.07.4-9.35l9.65-8.86,8.96,9.75Z"/>
  <path class="cls-4" d="m177.13,295.58c-.1,1.79-.8,3.48-2.09,4.68l-9.65,8.86-9.06-9.75,9.65-8.86c4.08-4.08,11.54-.6,11.15,5.08h0Z"/>
  <g>
    <path class="cls-5" d="m318.24,153.37c0,2.89-2.29,5.17-5.17,5.17h-81.41c-2.89,0-5.17-2.29-5.17-5.17s2.29-5.17,5.17-5.17h81.41c2.79,0,5.17,2.29,5.17,5.17Z"/>
    <path class="cls-5" d="m318.24,274.78c0,2.89-2.29,5.17-5.17,5.17h-81.41c-2.89,0-5.17-2.29-5.17-5.17s2.29-5.17,5.17-5.17h81.41c2.79,0,5.17,2.29,5.17,5.17Z"/>
    <path class="cls-5" d="m442.44,185.41c0,2.89-2.29,5.17-5.17,5.17h-205.6c-6.67-.1-6.87-10.15,0-10.35h205.6c2.79,0,5.17,2.29,5.17,5.17Z"/>
    <path class="cls-5" d="m442.44,217.36c0,2.89-2.29,5.17-5.17,5.17h-205.6c-6.67-.1-6.87-10.15,0-10.35h205.6c2.79,0,5.17,2.29,5.17,5.17Z"/>
    <path class="cls-5" d="m344.02,306.72c0,2.89-2.29,5.17-5.17,5.17h-107.18c-2.89,0-5.17-2.29-5.17-5.17s2.29-5.17,5.17-5.17h107.18c2.89,0,5.17,2.19,5.17,5.17Z"/>
    <path class="cls-5" d="m277.44,343.55c0,2.89-2.29,5.17-5.17,5.17h-40.7c-2.89,0-5.17-2.29-5.17-5.17s2.29-5.17,5.17-5.17h40.7c2.99,0,5.17,2.19,5.17,5.17Z"/>
  </g>
</svg>