<?xml version="1.0" encoding="UTF-8"?>
<svg id="Capa_1" data-name="Capa 1" xmlns="http://www.w3.org/2000/svg" viewBox="0 0 500 500">
  <defs>
    <style>
      .cls-1, .cls-2, .cls-3, .cls-4, .cls-5 {
        stroke-width: 0px;
      }

      .cls-2 {
        fill: #fbd37b;
      }

      .cls-3 {
        fill: #e3dadd;
      }

      .cls-4 {
        fill: #f9b623;
      }

      .cls-5 {
        fill: #f1edee;
      }
    </style>
  </defs>
  <path class="cls-2" d="m54.31,289.14h391.39v203.52H54.31v-203.52Z"/>
  <path class="cls-4" d="m163.89,289.14h172.21v203.52h-172.21v-203.52Z"/>
  <path class="cls-5" d="m187.38,203.03h125.24v289.63h-125.24V203.03Z"/>
  <path class="cls-3" d="m187.38,203.03h31.31v289.63h-31.31V203.03Z"/>
  <path class="cls-1" d="m500,163.89c0-12.68-10.31-22.99-22.99-22.99s-22.99,10.31-22.99,22.99c0,10.11,6.57,18.71,15.66,21.79v41.32h-55.77V38.16h25.67c3.07,9.09,11.67,15.66,21.79,15.66,12.68,0,22.99-10.31,22.99-22.99s-10.31-22.99-22.99-22.99c-10.11,0-18.71,6.57-21.79,15.66h-33.01c-4.05,0-7.34,3.28-7.34,7.34v78.77h-41.32c-3.07-9.09-11.67-15.66-21.79-15.66-12.68,0-22.99,10.31-22.99,22.99s10.31,22.99,22.99,22.99c10.11,0,18.71-6.57,21.79-15.66h41.32v102.74h-47.45c-4.05,0-7.34,3.29-7.34,7.34v47.45h-24.46v-78.77c0-4.05-3.29-7.34-7.34-7.34h-23.97v-63.11c0-4.06-3.29-7.34-7.34-7.34s-7.34,3.28-7.34,7.34v63.11h-16.63v-102.25c0-4.06-3.29-7.34-7.34-7.34s-7.34,3.28-7.34,7.34v102.25h-16.63v-63.11c0-4.06-3.29-7.34-7.34-7.34s-7.34,3.28-7.34,7.34v63.11h-23.97c-4.05,0-7.34,3.29-7.34,7.34v23.97h-55.77v-110.57h47.45c4.05,0,7.34-3.29,7.34-7.34v-39.63h80.46c3.07,9.09,11.67,15.66,21.79,15.66,12.68,0,22.99-10.31,22.99-22.99s-10.31-22.99-22.99-22.99c-10.11,0-18.71,6.57-21.79,15.66h-80.46v-10.01c9.09-3.07,15.66-11.67,15.66-21.79,0-12.68-10.31-22.99-22.99-22.99s-22.99,10.31-22.99,22.99c0,10.11,6.57,18.71,15.66,21.79v56.98h-40.12v-47.45c0-4.06-3.29-7.34-7.34-7.34H44.78c-3.07-9.09-11.67-15.66-21.79-15.66C10.31,31.31,0,41.63,0,54.31s10.31,22.99,22.99,22.99c10.11,0,18.71-6.57,21.79-15.66h64.81v87.08h-41.32c-3.07-9.09-11.67-15.66-21.79-15.66-12.68,0-22.99,10.31-22.99,22.99s10.31,22.99,22.99,22.99c10.11,0,18.71-6.57,21.79-15.66h41.32v70.94c0,4.05,3.28,7.34,7.34,7.34h63.11v40.12H54.31c-4.06,0-7.34,3.29-7.34,7.34v203.52c0,4.06,3.28,7.34,7.34,7.34s7.34-3.28,7.34-7.34v-196.18h118.39v196.18c0,4.06,3.29,7.34,7.34,7.34s7.34-3.28,7.34-7.34V210.37h110.57v282.29c0,4.06,3.29,7.34,7.34,7.34s7.34-3.28,7.34-7.34v-196.18h118.39v48.26c0,4.05,3.29,7.34,7.34,7.34s7.34-3.29,7.34-7.34v-55.6c0-4.05-3.28-7.34-7.34-7.34h-86.59v-40.12h117.9c4.06,0,7.34-3.29,7.34-7.34v-48.66c9.09-3.07,15.66-11.67,15.66-21.79Zm-38.65-141.39c4.59,0,8.32,3.73,8.32,8.32s-3.73,8.32-8.32,8.32-8.32-3.73-8.32-8.32,3.73-8.32,8.32-8.32Zm-125.24,102.74c-4.59,0-8.32-3.73-8.32-8.32s3.73-8.32,8.32-8.32,8.32,3.73,8.32,8.32-3.73,8.32-8.32,8.32Zm-54.79-71.43c4.59,0,8.32,3.73,8.32,8.32s-3.73,8.32-8.32,8.32-8.32-3.73-8.32-8.32,3.73-8.32,8.32-8.32ZM171.72,14.68c4.59,0,8.32,3.73,8.32,8.32s-3.73,8.32-8.32,8.32-8.32-3.73-8.32-8.32,3.73-8.32,8.32-8.32ZM22.99,62.62c-4.59,0-8.32-3.73-8.32-8.32s3.73-8.32,8.32-8.32,8.32,3.73,8.32,8.32-3.73,8.32-8.32,8.32Zm23.48,101.76c-4.59,0-8.32-3.73-8.32-8.32s3.73-8.32,8.32-8.32,8.32,3.73,8.32,8.32-3.73,8.32-8.32,8.32Zm430.53,7.83c-4.59,0-8.32-3.73-8.32-8.32s3.73-8.32,8.32-8.32,8.32,3.73,8.32,8.32-3.73,8.32-8.32,8.32Z"/>
  <path class="cls-1" d="m445.69,371.1c-4.05,0-7.34,3.28-7.34,7.34v114.22c0,4.06,3.29,7.34,7.34,7.34s7.34-3.28,7.34-7.34v-114.22c0-4.06-3.28-7.34-7.34-7.34Z"/>
  <path class="cls-1" d="m281.31,227.01c-4.05,0-7.34,3.29-7.34,7.34v62.62c0,4.05,3.29,7.34,7.34,7.34s7.34-3.29,7.34-7.34v-62.62c0-4.05-3.29-7.34-7.34-7.34Z"/>
  <path class="cls-1" d="m250,227.01c-4.05,0-7.34,3.29-7.34,7.34v62.62c0,4.05,3.29,7.34,7.34,7.34s7.34-3.29,7.34-7.34v-62.62c0-4.05-3.29-7.34-7.34-7.34Z"/>
  <path class="cls-1" d="m218.69,227.01c-4.05,0-7.34,3.29-7.34,7.34v62.62c0,4.05,3.29,7.34,7.34,7.34s7.34-3.29,7.34-7.34v-62.62c0-4.05-3.29-7.34-7.34-7.34Z"/>
  <path class="cls-1" d="m281.31,328.77c-4.05,0-7.34,3.29-7.34,7.34v62.62c0,4.06,3.29,7.34,7.34,7.34s7.34-3.28,7.34-7.34v-62.62c0-4.05-3.29-7.34-7.34-7.34Z"/>
  <path class="cls-1" d="m250,328.77c-4.05,0-7.34,3.29-7.34,7.34v62.62c0,4.06,3.29,7.34,7.34,7.34s7.34-3.28,7.34-7.34v-62.62c0-4.05-3.29-7.34-7.34-7.34Z"/>
  <path class="cls-1" d="m218.69,328.77c-4.05,0-7.34,3.29-7.34,7.34v62.62c0,4.06,3.29,7.34,7.34,7.34s7.34-3.28,7.34-7.34v-62.62c0-4.05-3.29-7.34-7.34-7.34Z"/>
  <path class="cls-1" d="m281.31,430.53c-4.05,0-7.34,3.29-7.34,7.34v54.79c0,4.06,3.29,7.34,7.34,7.34s7.34-3.28,7.34-7.34v-54.79c0-4.05-3.29-7.34-7.34-7.34Z"/>
  <path class="cls-1" d="m250,430.53c-4.05,0-7.34,3.29-7.34,7.34v54.79c0,4.06,3.29,7.34,7.34,7.34s7.34-3.28,7.34-7.34v-54.79c0-4.05-3.29-7.34-7.34-7.34Z"/>
  <path class="cls-1" d="m218.69,430.53c-4.05,0-7.34,3.29-7.34,7.34v54.79c0,4.06,3.29,7.34,7.34,7.34s7.34-3.28,7.34-7.34v-54.79c0-4.05-3.29-7.34-7.34-7.34Z"/>
  <path class="cls-1" d="m414.38,313.11c-4.05,0-7.34,3.29-7.34,7.34v23.48c0,4.06,3.29,7.34,7.34,7.34s7.34-3.28,7.34-7.34v-23.48c0-4.05-3.28-7.34-7.34-7.34Z"/>
  <path class="cls-1" d="m383.07,313.11c-4.05,0-7.34,3.29-7.34,7.34v23.48c0,4.06,3.29,7.34,7.34,7.34s7.34-3.28,7.34-7.34v-23.48c0-4.05-3.28-7.34-7.34-7.34Z"/>
  <path class="cls-1" d="m351.76,313.11c-4.05,0-7.34,3.29-7.34,7.34v23.48c0,4.06,3.29,7.34,7.34,7.34s7.34-3.28,7.34-7.34v-23.48c0-4.05-3.28-7.34-7.34-7.34Z"/>
  <path class="cls-1" d="m414.38,375.73c-4.05,0-7.34,3.29-7.34,7.34v23.48c0,4.06,3.29,7.34,7.34,7.34s7.34-3.28,7.34-7.34v-23.48c0-4.05-3.28-7.34-7.34-7.34Z"/>
  <path class="cls-1" d="m383.07,375.73c-4.05,0-7.34,3.29-7.34,7.34v23.48c0,4.06,3.29,7.34,7.34,7.34s7.34-3.28,7.34-7.34v-23.48c0-4.05-3.28-7.34-7.34-7.34Z"/>
  <path class="cls-1" d="m351.76,375.73c-4.05,0-7.34,3.29-7.34,7.34v23.48c0,4.06,3.29,7.34,7.34,7.34s7.34-3.28,7.34-7.34v-23.48c0-4.05-3.28-7.34-7.34-7.34Z"/>
  <path class="cls-1" d="m414.38,438.35c-4.05,0-7.34,3.29-7.34,7.34v23.48c0,4.06,3.29,7.34,7.34,7.34s7.34-3.28,7.34-7.34v-23.48c0-4.05-3.28-7.34-7.34-7.34Z"/>
  <path class="cls-1" d="m383.07,438.35c-4.05,0-7.34,3.29-7.34,7.34v23.48c0,4.06,3.29,7.34,7.34,7.34s7.34-3.28,7.34-7.34v-23.48c0-4.05-3.28-7.34-7.34-7.34Z"/>
  <path class="cls-1" d="m351.76,438.35c-4.05,0-7.34,3.29-7.34,7.34v23.48c0,4.06,3.29,7.34,7.34,7.34s7.34-3.28,7.34-7.34v-23.48c0-4.05-3.28-7.34-7.34-7.34Z"/>
  <path class="cls-1" d="m85.62,313.11c-4.06,0-7.34,3.29-7.34,7.34v23.48c0,4.06,3.28,7.34,7.34,7.34s7.34-3.28,7.34-7.34v-23.48c0-4.05-3.29-7.34-7.34-7.34Z"/>
  <path class="cls-1" d="m116.93,313.11c-4.06,0-7.34,3.29-7.34,7.34v23.48c0,4.06,3.28,7.34,7.34,7.34s7.34-3.28,7.34-7.34v-23.48c0-4.05-3.29-7.34-7.34-7.34Z"/>
  <path class="cls-1" d="m148.24,313.11c-4.06,0-7.34,3.29-7.34,7.34v23.48c0,4.06,3.28,7.34,7.34,7.34s7.34-3.28,7.34-7.34v-23.48c0-4.05-3.29-7.34-7.34-7.34Z"/>
  <path class="cls-1" d="m85.62,375.73c-4.06,0-7.34,3.29-7.34,7.34v23.48c0,4.06,3.28,7.34,7.34,7.34s7.34-3.28,7.34-7.34v-23.48c0-4.05-3.29-7.34-7.34-7.34Z"/>
  <path class="cls-1" d="m116.93,375.73c-4.06,0-7.34,3.29-7.34,7.34v23.48c0,4.06,3.28,7.34,7.34,7.34s7.34-3.28,7.34-7.34v-23.48c0-4.05-3.29-7.34-7.34-7.34Z"/>
  <path class="cls-1" d="m148.24,375.73c-4.06,0-7.34,3.29-7.34,7.34v23.48c0,4.06,3.28,7.34,7.34,7.34s7.34-3.28,7.34-7.34v-23.48c0-4.05-3.29-7.34-7.34-7.34Z"/>
  <path class="cls-1" d="m85.62,438.35c-4.06,0-7.34,3.29-7.34,7.34v23.48c0,4.06,3.28,7.34,7.34,7.34s7.34-3.28,7.34-7.34v-23.48c0-4.05-3.29-7.34-7.34-7.34Z"/>
  <path class="cls-1" d="m116.93,438.35c-4.06,0-7.34,3.29-7.34,7.34v23.48c0,4.06,3.28,7.34,7.34,7.34s7.34-3.28,7.34-7.34v-23.48c0-4.05-3.29-7.34-7.34-7.34Z"/>
  <path class="cls-1" d="m148.24,438.35c-4.06,0-7.34,3.29-7.34,7.34v23.48c0,4.06,3.28,7.34,7.34,7.34s7.34-3.28,7.34-7.34v-23.48c0-4.05-3.29-7.34-7.34-7.34Z"/>
</svg>