<?xml version="1.0" encoding="UTF-8"?>
<svg id="Capa_1" data-name="Capa 1" xmlns="http://www.w3.org/2000/svg" viewBox="0 0 500 500">
  <defs>
    <style>
      .cls-1, .cls-2, .cls-3, .cls-4, .cls-5, .cls-6, .cls-7, .cls-8, .cls-9, .cls-10 {
        stroke-width: 0px;
      }

      .cls-2 {
        fill: #704537;
      }

      .cls-3 {
        fill: #fbf2df;
      }

      .cls-4 {
        fill: #7d4d3d;
      }

      .cls-5 {
        fill: #ebad88;
      }

      .cls-6 {
        fill: #26c6da;
      }

      .cls-7 {
        fill: #e8916f;
      }

      .cls-8 {
        fill: #00bcd4;
      }

      .cls-9 {
        fill: #f2e5ce;
      }

      .cls-10 {
        fill: #e7387f;
      }
    </style>
  </defs>
  <g>
    <ellipse class="cls-7" cx="269.1" cy="185.31" rx="24.41" ry="31.25"/>
    <ellipse class="cls-7" cx="34.73" cy="185.31" rx="24.41" ry="31.25"/>
    <path class="cls-7" d="m124.51,289.6h58.59v97.66h-58.59v-97.66Z"/>
  </g>
  <path class="cls-5" d="m48.34,200.26v-78.33c0-54.94,44.53-99.47,99.47-99.47h12c54.93,0,99.47,44.53,99.47,99.47v78.33c0,58.21-47.19,105.4-105.4,105.4h-.14c-58.21,0-105.4-47.19-105.4-105.4Z"/>
  <path class="cls-7" d="m159.81,22.46h-12c-2.92,0-5.8.13-8.65.38,50.88,4.38,90.82,47.07,90.82,99.09v78.33c0,53.26-39.51,97.29-90.82,104.39,4.77.66,9.63,1.01,14.58,1.01h.14c58.21,0,105.4-47.19,105.4-105.4v-78.33c0-54.94-44.53-99.47-99.47-99.47h0Z"/>
  <path class="cls-6" d="m97.17,346.19h113.28c49.62,0,89.84,40.22,89.84,89.84v50.78c0,3.24-2.62,5.86-5.86,5.86H13.18c-3.24,0-5.86-2.62-5.86-5.86v-50.78c0-49.62,40.22-89.84,89.84-89.84Z"/>
  <path class="cls-8" d="m210.45,346.19h-29.3c49.62,0,89.84,40.22,89.84,89.84v56.64h23.44c3.24,0,5.86-2.62,5.86-5.86v-50.78c0-49.62-40.22-89.84-89.84-89.84Z"/>
  <path class="cls-3" d="m123.43,329.08l-18.98,15.81c-.85.71-.94,1.99-.2,2.81l27.13,30.08c.87.97,2.43.83,3.11-.28l19.31-31.3-28.1-17.28c-.71-.44-1.63-.37-2.27.16Z"/>
  <path class="cls-3" d="m184.18,329.08l18.98,15.81c.85.71.94,1.99.2,2.81l-27.13,30.08c-.87.97-2.43.83-3.11-.28l-19.31-31.3,28.1-17.28c.71-.44,1.63-.37,2.27.16h0Z"/>
  <path class="cls-4" d="m212.44,68.55c-3.35-3.05-8.7-1.2-9.56,3.25-2.97,15.31-17.14,40.96-80.14,31.76-38.31-5.59-74.39,34.58-74.39,65.64,0,0-2.48-9.58-13.61-15.14,0,0-12.06-42.36-3.94-78.97C38.26,41.39,82.54,7.32,149.87,7.32c35.07,0,49.61,8.67,55.09,13.69,2.31,2.11,5.23,3.45,8.35,3.69,14.47,1.1,53.64,7.86,62.11,48.44,7.01,33.62-3.45,53.28-6.3,80.92-6.15,4.61-9.83,15.14-9.83,15.14,0,0-18.67-35.65-23.02-62.14-2.75-16.72-15.09-30.57-23.82-38.52h0Z"/>
  <path class="cls-2" d="m275.41,73.14c-8.46-40.58-47.64-47.34-62.11-48.44-3.12-.24-6.04-1.58-8.35-3.69-5.48-5.02-20.02-13.69-55.09-13.69-4.99,0-9.84.21-14.57.57,24.58,2.01,35.72,8.87,40.36,13.12,2.31,2.11,5.23,3.45,8.35,3.69,14.47,1.1,53.64,7.86,62.11,48.44,5.09,24.42.97,41.47-2.77,59.57,6.96,19.34,15.93,36.49,15.93,36.49,0,0,3.68-10.54,9.83-15.14,2.85-27.64,13.32-47.3,6.3-80.92Z"/>
  <path class="cls-3" d="m492.68,22.93v277.38c0,8.62-6.98,15.61-15.6,15.61h-132.65c-8.62,0-15.6-6.99-15.6-15.61v-27.89c0-1.99-1.75-3.53-3.73-3.27l-45.36,6.01c-1.64.22-2.57-1.81-1.34-2.92l48.28-43.36c1.37-1.23,2.15-2.98,2.15-4.82V22.93c0-8.62,6.98-15.61,15.6-15.61h132.64c8.62,0,15.6,6.99,15.6,15.61Z"/>
  <path class="cls-9" d="m477.08,7.32h-29.3c8.62,0,15.6,6.99,15.6,15.61v277.38c0,8.62-6.98,15.61-15.6,15.61h29.3c8.62,0,15.6-6.99,15.6-15.61V22.93c0-8.62-6.98-15.61-15.6-15.61h0Z"/>
  <path class="cls-10" d="m449.97,274.74h-75.72c-8.21,0-14.87-6.66-14.87-14.87v-90.7c0-8.21,6.66-14.87,14.87-14.87h75.72c8.21,0,14.87,6.66,14.87,14.87v90.7c0,8.21-6.66,14.87-14.87,14.87Z"/>
  <circle class="cls-3" cx="153.81" cy="428.56" r="15.62"/>
  <path class="cls-1" d="m210.45,338.87h-3.08l-16.94-14.12v-17.84c37.15-12.77,65.59-44.44,73.78-83.48,1.62.3,3.25.46,4.89.46,17.5,0,31.74-17.3,31.74-38.57,0-17.84-10.02-32.89-23.58-37.28.88-5.78,2.03-11.32,3.16-16.73,3.59-17.23,7.29-35.05,2.16-59.65-4.04-19.39-15.27-34.59-32.47-43.96-13.96-7.61-28.71-9.71-36.25-10.29-1.41-.11-2.82-.74-3.96-1.79C202.12,8.49,185.4,0,149.87,0,77.7,0,31.74,36.98,23.64,73.51c-6.4,28.85-1.04,60.47,2.13,74.79-13.16,4.71-22.79,19.52-22.79,37.01,0,21.27,14.24,38.57,31.74,38.57,2.91,0,5.76-.47,8.49-1.38,7.93,39.46,36.52,71.53,73.97,84.39v17.84l-16.94,14.12h-3.08C43.59,338.87,0,382.46,0,436.04v50.78c0,7.27,5.91,13.18,13.18,13.18h281.25c7.27,0,13.18-5.91,13.18-13.18v-50.78c0-53.58-43.59-97.17-97.17-97.17Zm-27.99-1.69l11.72,9.77-18.59,20.61-11.7-18.96,18.57-11.41Zm103.73-151.86c0,12.97-7.83,23.93-17.09,23.93-.95,0-1.9-.11-2.83-.34.22-2.85.33-5.73.33-8.64v-29.72c1.07-2.66,2.96-6.37,5.09-8.87,8.09,1.8,14.5,11.9,14.5,23.64ZM37.94,76.68C46.87,36.39,102.27,14.65,149.87,14.65c33.66,0,46.28,8.23,50.14,11.76,3.55,3.25,8.07,5.24,12.74,5.59,14.24,1.09,48.15,7.42,55.5,42.63,4.51,21.61,1.27,37.19-2.16,53.67-1.46,7.02-2.96,14.25-3.93,22.13-.87.88-1.69,1.81-2.45,2.78-5.68-12.42-13.65-31.75-16.21-47.35-3.03-18.44-15.88-33.43-26.12-42.75-7.59-6.91-19.74-2.74-21.68,7.28-4.42,22.83-29.96,32.03-71.89,25.9-18.5-2.7-37.79,3.68-54.32,17.97-12.08,10.45-21.02,23.68-25.41,37.01-.93-.72-1.94-1.42-3.02-2.09-2.41-9.87-9.54-43.48-3.1-72.52h0Zm-3.21,132.56c-9.26,0-17.09-10.96-17.09-23.93,0-12.19,6.91-22.6,15.43-23.81,5.17,3.12,7.27,7.26,7.95,8.92v29.84c0,2.39.08,4.76.22,7.12-1.76,1.04-3.96,1.86-6.51,1.86h0Zm21.45,1.08c-.01-.16-.03-.32-.05-.48-.31-3.15-.46-6.34-.46-9.57v-31.06c0-14.35,9.18-31.56,23.39-43.84,13.26-11.46,28.4-16.63,42.62-14.55,29.35,4.28,52.04,1.7,67.45-7.68,12.84-7.82,18.18-18.72,20.36-27.32,7.08,6.81,17.3,18.74,19.55,32.44,4,24.38,19.14,55.26,22.92,62.72v29.29c0,4.13-.26,8.21-.76,12.21,0,.03,0,.06-.01.09-6.07,48.29-47.39,85.77-97.31,85.77h-.14c-50.69,0-92.52-38.65-97.56-88.03h0Zm97.57,102.67h.14c7.49,0,14.82-.74,21.9-2.14v13.24l-21.97,13.51-21.97-13.51v-13.24c7.09,1.4,14.41,2.14,21.9,2.14Zm-28.58,24.19l18.57,11.41-11.7,18.96-18.59-20.61,11.72-9.77Zm167.81,148.17H14.65v-49.32c0-45.5,37.02-82.52,82.52-82.52h2.47l26.31,29.17c4.18,4.64,11.57,3.86,14.79-1.34l13.08-21.2,13.08,21.2c3.24,5.25,10.63,5.95,14.79,1.34l26.31-29.17h2.47c45.5,0,82.52,37.02,82.52,82.52v49.32Z"/>
  <path class="cls-1" d="m477.07,0h-132.64C331.79,0,321.5,10.29,321.5,22.93v200.76l-48.01,43.11c-6.57,5.9-1.56,16.79,7.2,15.62l40.81-5.41v23.29c0,12.64,10.28,22.93,22.92,22.93h132.64c12.64,0,22.93-10.29,22.93-22.93V22.93c0-12.64-10.28-22.93-22.93-22.93h0Zm8.28,300.31c0,4.57-3.71,8.28-8.28,8.28h-132.64c-4.56,0-8.28-3.71-8.28-8.28v-27.89c0-3.06-1.32-5.97-3.62-7.99-2.3-2.02-5.36-2.94-8.39-2.54l-27.28,3.61,34.71-31.17c2.91-2.62,4.58-6.36,4.58-10.27V22.93c0-4.57,3.71-8.28,8.28-8.28h132.64c4.56,0,8.28,3.71,8.28,8.28v277.38h0Z"/>
  <path class="cls-1" d="m395.98,58.49h61.38c4.05,0,7.32-3.28,7.32-7.32s-3.28-7.32-7.32-7.32h-61.38c-4.05,0-7.32,3.28-7.32,7.32s3.28,7.32,7.32,7.32Z"/>
  <path class="cls-1" d="m369.47,92.67h87.89c4.05,0,7.32-3.28,7.32-7.32s-3.28-7.32-7.32-7.32h-87.89c-4.05,0-7.32,3.28-7.32,7.32s3.28,7.32,7.32,7.32Z"/>
  <path class="cls-1" d="m369.47,126.85h87.89c4.05,0,7.32-3.28,7.32-7.32s-3.28-7.32-7.32-7.32h-87.89c-4.05,0-7.32,3.28-7.32,7.32s3.28,7.32,7.32,7.32Z"/>
  <path class="cls-1" d="m449.97,146.97h-75.72c-12.24,0-22.2,9.96-22.2,22.2v90.7c0,12.24,9.96,22.2,22.2,22.2h75.72c12.24,0,22.2-9.96,22.2-22.2v-90.7c0-12.24-9.96-22.2-22.2-22.2h0Zm7.55,112.9c0,4.16-3.39,7.55-7.55,7.55h-75.72c-4.16,0-7.55-3.39-7.55-7.55v-90.7c0-4.16,3.39-7.55,7.55-7.55h75.72c4.16,0,7.55,3.39,7.55,7.55v90.7h0Z"/>
  <path class="cls-1" d="m412.11,171.89c-4.05,0-7.32,3.28-7.32,7.32v40.87c0,4.04,3.28,7.32,7.32,7.32s7.32-3.28,7.32-7.32v-40.87c0-4.04-3.28-7.32-7.32-7.32Z"/>
  <path class="cls-1" d="m412.11,233.59c-4.05,0-7.32,3.28-7.32,7.32v4.21c0,4.04,3.28,7.32,7.32,7.32s7.32-3.28,7.32-7.32v-4.21c0-4.04-3.28-7.32-7.32-7.32Z"/>
  <path class="cls-1" d="m153.81,405.61c-12.65,0-22.95,10.29-22.95,22.95s10.29,22.95,22.95,22.95,22.95-10.29,22.95-22.95-10.29-22.95-22.95-22.95Zm0,31.25c-4.58,0-8.3-3.72-8.3-8.3s3.72-8.3,8.3-8.3,8.3,3.72,8.3,8.3-3.72,8.3-8.3,8.3Z"/>
</svg>