<?xml version="1.0" encoding="UTF-8"?>
<svg id="Capa_1" data-name="Capa 1" xmlns="http://www.w3.org/2000/svg" viewBox="0 0 500 500">
  <defs>
    <style>
      .cls-1, .cls-2, .cls-3, .cls-4, .cls-5 {
        stroke-width: 0px;
      }

      .cls-2 {
        fill: #a4cdff;
      }

      .cls-3 {
        fill: #fff;
      }

      .cls-4 {
        fill: #ff5a5a;
      }

      .cls-5 {
        fill: #f4ba64;
      }
    </style>
  </defs>
  <g>
    <path class="cls-2" d="m193.17,243.27c-187.12,137.08,80.68,224.8,210.11,243.57-11.54-33.68-22.13-59.24-62.93-105.04-13.5-15.16-21.7-35.14-21.7-57.03,0-4.78.39-9.48,1.14-14.05-146.78-19.01,221.78-176.11-209.95-215.81-1.39,2.07-2.92,4.03-4.57,5.88-6.68,7.5-12.09,14.15-16.56,20.25,144.36,14.29,230.42,29.95,104.45,122.23Z"/>
    <path class="cls-5" d="m9.77,64.44c0,13.95,5.23,26.69,13.83,36.35,26.86,30.16,33.18,46.55,40.84,69.11,5.76-16.95,10.76-30.42,24.28-48.86,4.48-6.1,9.88-12.75,16.56-20.25,1.65-1.86,3.18-3.82,4.57-5.88,5.85-8.71,9.27-19.19,9.27-30.47,0-30.2-24.48-54.68-54.68-54.68-30.2,0-54.68,24.48-54.68,54.68h0Zm73.32,0c0,10.3-8.35,18.64-18.64,18.64s-18.64-8.34-18.64-18.64,8.34-18.64,18.64-18.64,18.64,8.34,18.64,18.64Z"/>
    <g>
      <circle class="cls-3" cx="64.44" cy="64.44" r="18.64"/>
      <path class="cls-3" d="m404.44,282.18c-23.52,0-42.58,19.07-42.58,42.58s19.07,42.58,42.58,42.58,42.58-19.06,42.58-42.58-19.06-42.58-42.58-42.58Z"/>
    </g>
    <path class="cls-4" d="m340.36,381.8c40.79,45.8,51.39,71.36,62.93,105.04.39,1.13.77,2.26,1.16,3.4,12.02-35.39,21.93-61.11,64.08-108.44,13.5-15.16,21.71-35.14,21.71-57.03,0-47.38-38.41-85.79-85.79-85.79-42.6,0-77.94,31.05-84.65,71.74-.75,4.57-1.14,9.26-1.14,14.05,0,21.89,8.21,41.88,21.7,57.03h0Zm64.09-14.46c-23.52,0-42.58-19.06-42.58-42.58s19.07-42.58,42.58-42.58,42.58,19.07,42.58,42.58-19.06,42.58-42.58,42.58Z"/>
  </g>
  <path class="cls-1" d="m404.44,272.42c-28.86,0-52.35,23.48-52.35,52.34s23.48,52.35,52.35,52.35,52.34-23.48,52.34-52.35-23.48-52.34-52.34-52.34Zm0,85.16c-18.09,0-32.82-14.72-32.82-32.82s14.72-32.81,32.82-32.81,32.81,14.72,32.81,32.81-14.72,32.82-32.81,32.82Z"/>
  <path class="cls-1" d="m404.44,229.21c-43.98,0-81.1,29.86-92.18,70.37-14.45-2.98-18.06-7.26-18.96-9.17-3.42-7.29,7.42-24.45,16.98-39.59,16.72-26.46,37.52-59.4,22.06-90.78-18.49-37.51-84.53-60.96-207.38-73.48,2.57-7.02,3.92-14.5,3.92-22.12C128.88,28.91,99.98,0,64.44,0S0,28.91,0,64.44c0,15.82,5.79,31.04,16.31,42.84,25.47,28.59,31.37,43.61,38.89,65.76,1.34,3.96,5.06,6.62,9.25,6.62s7.9-2.67,9.25-6.62c5.11-15.03,9.47-26.79,19.71-41.72,56.37,5.61,144.17,15.05,150.62,38.67,2.03,7.44-2.62,25.84-56.62,65.4-53.44,39.15-75.72,78.33-66.22,116.44,9.22,37.01,47.77,70.24,114.57,98.77,46.83,20,106.44,36.7,160.59,45.07,1.78,2.66,4.8,4.33,8.11,4.33,4.18,0,7.9-2.66,9.25-6.62,12.02-35.41,21.46-59.42,62.13-105.08,15.59-17.5,24.18-40.07,24.18-63.53,0-52.69-42.87-95.56-95.56-95.56ZM64.44,142.72c-6.55-14.23-15.76-28.46-33.55-48.42-7.33-8.23-11.36-18.83-11.36-29.86,0-24.76,20.15-44.91,44.91-44.91s44.91,20.15,44.91,44.91c0,11.03-4.03,21.63-11.36,29.85-17.79,19.97-27,34.19-33.55,48.42Zm75.69,204.39c-7.39-29.67,12.4-61.96,58.81-95.97,50.42-36.94,70.14-63.55,63.92-86.3-8.88-32.5-69.34-42.78-155.37-51.72,1.61-1.88,3.29-3.82,5.09-5.84.63-.7,1.23-1.42,1.82-2.14,117.78,11.28,185.2,32.65,200.43,63.54,10.63,21.56-6.21,48.2-21.05,71.71-14.02,22.19-26.12,41.35-18.14,58.33,4.73,10.06,15.46,16.56,33.45,20.14-.12,1.95-.19,3.92-.19,5.9,0,12.35,2.4,24.44,6.93,35.68-1.95-.75-3.9-1.49-5.83-2.22-12.35-4.67-25.12-9.51-36.58-15.82-4.72-2.6-10.66-.88-13.27,3.84-2.6,4.72-.88,10.66,3.84,13.27,12.68,6.98,26.11,12.07,39.1,16.98,11.13,4.21,21.66,8.21,31.19,13.15,32.21,36.38,44.46,58.98,54.29,84.96-49.64-8.58-102.8-23.89-145.13-41.96-60.02-25.63-95.73-55.2-103.29-85.53Zm321.11,28.19c-32.29,36.25-46.27,60.23-56.79,86.38-10.52-26.15-24.5-50.12-56.79-86.38-12.4-13.92-19.23-31.87-19.23-50.54,0-41.92,34.1-76.03,76.03-76.03s76.03,34.11,76.03,76.03c0,18.67-6.83,36.62-19.24,50.54Z"/>
  <path class="cls-1" d="m64.44,36.04c-15.66,0-28.41,12.74-28.41,28.41s12.74,28.41,28.41,28.41,28.41-12.74,28.41-28.41-12.74-28.41-28.41-28.41Zm0,37.28c-4.89,0-8.87-3.98-8.87-8.87s3.98-8.88,8.87-8.88,8.88,3.98,8.88,8.88-3.98,8.87-8.88,8.87Z"/>
  <path class="cls-1" d="m200.08,187.85c-1.07.95-2.05,1.82-2.88,2.57-3.97,3.65-4.24,9.83-.59,13.8,1.93,2.1,4.56,3.16,7.2,3.16,2.36,0,4.72-.85,6.6-2.57.75-.69,1.65-1.48,2.62-2.34,9.79-8.67,16.72-15.4,16.72-23.16,0-14.84-18.55-19.73-32.1-23.29-2.01-.53-3.92-1.03-5.33-1.46-5.15-1.58-10.62,1.33-12.19,6.48-1.58,5.16,1.33,10.62,6.48,12.19,1.77.54,3.86,1.09,6.07,1.67,3.77.99,11.53,3.03,15.75,5.08-2.5,2.67-6.37,6.1-8.35,7.86Z"/>
  <path class="cls-1" d="m202.44,451.27l-.9-.43c-4.85-2.37-10.69-.36-13.06,4.49s-.36,10.69,4.48,13.06c.28.14.56.27.83.39l.28.13c1.35.64,2.78.94,4.17.94,3.66,0,7.16-2.06,8.83-5.58,2.31-4.87.23-10.7-4.64-13.01Z"/>
  <path class="cls-1" d="m177.21,435.88c-35.54-25.14-63.1-54.9-65.54-70.75-.82-5.33-5.81-8.99-11.14-8.17-5.33.82-8.99,5.81-8.17,11.14,5.31,34.55,66.59,78.79,73.56,83.73,1.71,1.21,3.68,1.79,5.63,1.79,3.06,0,6.08-1.44,7.98-4.13,3.12-4.4,2.07-10.5-2.33-13.61Z"/>
  <path class="cls-1" d="m256.89,329.62c-1.85-5.06-7.46-7.67-12.53-5.82-5.07,1.85-7.67,7.46-5.82,12.52.18.49.38.97.59,1.45,1.63,3.61,5.19,5.75,8.91,5.75,1.34,0,2.71-.28,4.01-.87,4.92-2.22,7.11-8,4.89-12.92l-.06-.13Z"/>
</svg>